<svg width="367" height="92" viewBox="0 0 367 92" fill="none" xmlns="http://www.w3.org/2000/svg">
<g clip-path="url(#clip0_2234_9556)">
<path d="M3.392 13.48V18H1.24V6.432H4.768C5.55733 6.432 6.232 6.51467 6.792 6.68C7.35733 6.84 7.81867 7.06667 8.176 7.36C8.53867 7.65333 8.80267 8.00533 8.968 8.416C9.13867 8.82133 9.224 9.26933 9.224 9.76C9.224 10.1493 9.16533 10.5173 9.048 10.864C8.936 11.2107 8.77067 11.5253 8.552 11.808C8.33867 12.0907 8.072 12.3387 7.752 12.552C7.43733 12.7653 7.07733 12.936 6.672 13.064C6.944 13.2187 7.17867 13.44 7.376 13.728L10.272 18H8.336C8.14933 18 7.98933 17.9627 7.856 17.888C7.728 17.8133 7.61867 17.7067 7.528 17.568L5.096 13.864C5.00533 13.7253 4.904 13.6267 4.792 13.568C4.68533 13.5093 4.52533 13.48 4.312 13.48H3.392ZM3.392 11.936H4.736C5.14133 11.936 5.49333 11.8853 5.792 11.784C6.096 11.6827 6.344 11.544 6.536 11.368C6.73333 11.1867 6.88 10.9733 6.976 10.728C7.072 10.4827 7.12 10.2133 7.12 9.92C7.12 9.33333 6.92533 8.88267 6.536 8.568C6.152 8.25333 5.56267 8.096 4.768 8.096H3.392V11.936ZM19.9484 6.432V8.144H14.8204V11.352H18.8604V13.008H14.8204V16.28H19.9484V18H12.6524V6.432H19.9484ZM32.9766 18H31.3126C31.126 18 30.9713 17.9547 30.8486 17.864C30.7313 17.768 30.646 17.6507 30.5926 17.512L29.7286 15.152H24.9366L24.0726 17.512C24.03 17.6347 23.9446 17.7467 23.8166 17.848C23.694 17.9493 23.542 18 23.3606 18H21.6886L26.2326 6.432H28.4326L32.9766 18ZM25.4886 13.632H29.1766L27.7686 9.784C27.7046 9.61333 27.6326 9.41333 27.5526 9.184C27.478 8.94933 27.4033 8.696 27.3286 8.424C27.254 8.696 27.1793 8.94933 27.1046 9.184C27.0353 9.41867 26.966 9.624 26.8966 9.8L25.4886 13.632ZM45.44 12.216C45.44 13.064 45.2987 13.8427 45.016 14.552C44.7333 15.2613 44.336 15.872 43.824 16.384C43.312 16.896 42.696 17.2933 41.976 17.576C41.256 17.8587 40.4587 18 39.584 18H35.168V6.432H39.584C40.4587 6.432 41.256 6.576 41.976 6.864C42.696 7.14667 43.312 7.544 43.824 8.056C44.336 8.56267 44.7333 9.17067 45.016 9.88C45.2987 10.5893 45.44 11.368 45.44 12.216ZM43.24 12.216C43.24 11.5813 43.1547 11.0133 42.984 10.512C42.8133 10.0053 42.5707 9.57867 42.256 9.232C41.9413 8.88 41.5573 8.61067 41.104 8.424C40.656 8.23733 40.1493 8.144 39.584 8.144H37.336V16.288H39.584C40.1493 16.288 40.656 16.1947 41.104 16.008C41.5573 15.8213 41.9413 15.5547 42.256 15.208C42.5707 14.856 42.8133 14.4293 42.984 13.928C43.1547 13.4213 43.24 12.8507 43.24 12.216ZM52.6245 13.504V18H50.4725V13.504L46.2565 6.432H48.1525C48.3392 6.432 48.4858 6.47733 48.5925 6.568C48.7045 6.65867 48.7978 6.77333 48.8725 6.912L50.9925 10.776C51.1152 11.0053 51.2218 11.224 51.3125 11.432C51.4032 11.6347 51.4858 11.8347 51.5605 12.032C51.6298 11.8293 51.7072 11.6267 51.7925 11.424C51.8832 11.216 51.9898 11 52.1125 10.776L54.2165 6.912C54.2752 6.79467 54.3632 6.68533 54.4805 6.584C54.5978 6.48267 54.7472 6.432 54.9285 6.432H56.8325L52.6245 13.504ZM71.195 6.432V8.2H67.715V18H65.563V8.2H62.067V6.432H71.195ZM84.0296 12.216C84.0296 13.064 83.8883 13.8507 83.6056 14.576C83.323 15.296 82.9256 15.92 82.4136 16.448C81.9016 16.976 81.2856 17.3893 80.5656 17.688C79.8456 17.9813 79.0483 18.128 78.1736 18.128C77.299 18.128 76.499 17.9813 75.7736 17.688C75.0536 17.3893 74.435 16.976 73.9176 16.448C73.4056 15.92 73.0083 15.296 72.7256 14.576C72.443 13.8507 72.3016 13.064 72.3016 12.216C72.3016 11.368 72.443 10.584 72.7256 9.864C73.0083 9.13867 73.4056 8.512 73.9176 7.984C74.435 7.456 75.0536 7.04533 75.7736 6.752C76.499 6.45333 77.299 6.304 78.1736 6.304C79.0483 6.304 79.8456 6.45333 80.5656 6.752C81.2856 7.05067 81.9016 7.464 82.4136 7.992C82.9256 8.51467 83.323 9.13867 83.6056 9.864C83.8883 10.584 84.0296 11.368 84.0296 12.216ZM81.8216 12.216C81.8216 11.5813 81.7363 11.0133 81.5656 10.512C81.4003 10.0053 81.1603 9.576 80.8456 9.224C80.531 8.872 80.147 8.60267 79.6936 8.416C79.2456 8.22933 78.739 8.136 78.1736 8.136C77.6083 8.136 77.099 8.22933 76.6456 8.416C76.1923 8.60267 75.8056 8.872 75.4856 9.224C75.171 9.576 74.9283 10.0053 74.7576 10.512C74.587 11.0133 74.5016 11.5813 74.5016 12.216C74.5016 12.8507 74.587 13.4213 74.7576 13.928C74.9283 14.4293 75.171 14.856 75.4856 15.208C75.8056 15.5547 76.1923 15.8213 76.6456 16.008C77.099 16.1947 77.6083 16.288 78.1736 16.288C78.739 16.288 79.2456 16.1947 79.6936 16.008C80.147 15.8213 80.531 15.5547 80.8456 15.208C81.1603 14.856 81.4003 14.4293 81.5656 13.928C81.7363 13.4213 81.8216 12.8507 81.8216 12.216ZM92.9763 16.224H97.6083V18H90.8243V6.432H92.9763V16.224ZM107.386 6.432V8.144H102.258V11.352H106.298V13.008H102.258V16.28H107.386V18H100.09V6.432H107.386ZM120.414 18H118.75C118.563 18 118.409 17.9547 118.286 17.864C118.169 17.768 118.083 17.6507 118.03 17.512L117.166 15.152H112.374L111.51 17.512C111.467 17.6347 111.382 17.7467 111.254 17.848C111.131 17.9493 110.979 18 110.798 18H109.126L113.67 6.432H115.87L120.414 18ZM112.926 13.632H116.614L115.206 9.784C115.142 9.61333 115.07 9.41333 114.99 9.184C114.915 8.94933 114.841 8.696 114.766 8.424C114.691 8.696 114.617 8.94933 114.542 9.184C114.473 9.41867 114.403 9.624 114.334 9.8L112.926 13.632ZM124.83 13.48V18H122.678V6.432H126.206C126.995 6.432 127.67 6.51467 128.23 6.68C128.795 6.84 129.256 7.06667 129.614 7.36C129.976 7.65333 130.24 8.00533 130.406 8.416C130.576 8.82133 130.661 9.26933 130.661 9.76C130.661 10.1493 130.603 10.5173 130.486 10.864C130.374 11.2107 130.208 11.5253 129.99 11.808C129.776 12.0907 129.51 12.3387 129.19 12.552C128.875 12.7653 128.515 12.936 128.11 13.064C128.382 13.2187 128.616 13.44 128.814 13.728L131.71 18H129.774C129.587 18 129.427 17.9627 129.294 17.888C129.166 17.8133 129.056 17.7067 128.966 17.568L126.534 13.864C126.443 13.7253 126.342 13.6267 126.23 13.568C126.123 13.5093 125.963 13.48 125.75 13.48H124.83ZM124.83 11.936H126.174C126.579 11.936 126.931 11.8853 127.23 11.784C127.534 11.6827 127.782 11.544 127.974 11.368C128.171 11.1867 128.318 10.9733 128.414 10.728C128.51 10.4827 128.558 10.2133 128.558 9.92C128.558 9.33333 128.363 8.88267 127.974 8.568C127.59 8.25333 127 8.096 126.206 8.096H124.83V11.936ZM135.218 6.432C135.314 6.432 135.394 6.43733 135.458 6.448C135.522 6.45333 135.578 6.46933 135.626 6.496C135.679 6.51733 135.73 6.552 135.778 6.6C135.826 6.64267 135.879 6.70133 135.938 6.776L142.01 14.512C141.989 14.3253 141.973 14.144 141.962 13.968C141.957 13.7867 141.954 13.6187 141.954 13.464V6.432H143.85V18H142.738C142.567 18 142.426 17.9733 142.314 17.92C142.202 17.8667 142.093 17.7707 141.986 17.632L135.938 9.928C135.954 10.0987 135.965 10.2693 135.97 10.44C135.981 10.6053 135.986 10.7573 135.986 10.896V18H134.09V6.432H135.218ZM146.312 7.48C146.493 7.32 146.69 7.168 146.904 7.024C147.122 6.88 147.357 6.75467 147.608 6.648C147.858 6.54133 148.13 6.45867 148.424 6.4C148.717 6.336 149.034 6.304 149.376 6.304C149.84 6.304 150.261 6.368 150.64 6.496C151.024 6.624 151.352 6.808 151.624 7.048C151.896 7.28267 152.106 7.568 152.256 7.904C152.405 8.24 152.48 8.616 152.48 9.032C152.48 9.43733 152.421 9.78933 152.304 10.088C152.186 10.3813 152.037 10.6373 151.856 10.856C151.68 11.0747 151.488 11.264 151.28 11.424C151.072 11.584 150.874 11.736 150.688 11.88C150.501 12.0187 150.338 12.1573 150.2 12.296C150.066 12.4293 149.986 12.5813 149.96 12.752L149.776 13.92H148.424L148.288 12.616C148.282 12.5893 148.28 12.568 148.28 12.552C148.28 12.5307 148.28 12.5067 148.28 12.48C148.28 12.2453 148.338 12.0427 148.456 11.872C148.573 11.696 148.72 11.5333 148.896 11.384C149.072 11.2293 149.261 11.08 149.464 10.936C149.666 10.792 149.856 10.6373 150.032 10.472C150.208 10.3013 150.354 10.1093 150.472 9.896C150.589 9.68267 150.648 9.432 150.648 9.144C150.648 8.952 150.61 8.78133 150.536 8.632C150.466 8.47733 150.368 8.34667 150.24 8.24C150.112 8.128 149.957 8.04267 149.776 7.984C149.6 7.92533 149.408 7.896 149.2 7.896C148.896 7.896 148.637 7.93067 148.424 8C148.216 8.064 148.037 8.13867 147.888 8.224C147.744 8.304 147.621 8.37867 147.52 8.448C147.418 8.512 147.328 8.544 147.248 8.544C147.056 8.544 146.917 8.464 146.832 8.304L146.312 7.48ZM147.824 16.912C147.824 16.7467 147.853 16.5893 147.912 16.44C147.976 16.2907 148.061 16.1627 148.168 16.056C148.28 15.9493 148.41 15.864 148.56 15.8C148.709 15.736 148.869 15.704 149.04 15.704C149.205 15.704 149.362 15.736 149.512 15.8C149.661 15.864 149.789 15.9493 149.896 16.056C150.002 16.1627 150.088 16.2907 150.152 16.44C150.216 16.5893 150.248 16.7467 150.248 16.912C150.248 17.0827 150.216 17.2427 150.152 17.392C150.088 17.536 150.002 17.6613 149.896 17.768C149.789 17.8747 149.661 17.9573 149.512 18.016C149.362 18.08 149.205 18.112 149.04 18.112C148.869 18.112 148.709 18.08 148.56 18.016C148.41 17.9573 148.28 17.8747 148.168 17.768C148.061 17.6613 147.976 17.536 147.912 17.392C147.853 17.2427 147.824 17.0827 147.824 16.912Z" fill="#1E212C"/>
<path d="M24.334 46.489V52.469H10.58V60.956H22.034V66.959H10.58V80H2.76V46.489H24.334ZM37.1849 55.781C38.7642 55.781 40.2056 56.0263 41.5089 56.517C42.8276 57.0077 43.9546 57.7207 44.8899 58.656C45.8406 59.5913 46.5766 60.7413 47.0979 62.106C47.6346 63.4553 47.9029 64.9887 47.9029 66.706C47.9029 67.2427 47.8799 67.6797 47.8339 68.017C47.7879 68.3543 47.7036 68.6227 47.5809 68.822C47.4582 69.0213 47.2896 69.1593 47.0749 69.236C46.8756 69.3127 46.6149 69.351 46.2929 69.351H32.5389C32.7689 71.3443 33.3746 72.7933 34.3559 73.698C35.3372 74.5873 36.6022 75.032 38.1509 75.032C38.9789 75.032 39.6919 74.9323 40.2899 74.733C40.8879 74.5337 41.4169 74.3113 41.8769 74.066C42.3522 73.8207 42.7816 73.5983 43.1649 73.399C43.5636 73.1997 43.9776 73.1 44.4069 73.1C44.9742 73.1 45.4036 73.307 45.6949 73.721L47.7649 76.274C47.0289 77.1173 46.2316 77.8073 45.3729 78.344C44.5296 78.8653 43.6556 79.2793 42.7509 79.586C41.8616 79.8773 40.9646 80.0767 40.0599 80.184C39.1706 80.3067 38.3196 80.368 37.5069 80.368C35.8356 80.368 34.2639 80.0997 32.7919 79.563C31.3352 79.011 30.0549 78.1983 28.9509 77.125C27.8622 76.0517 26.9959 74.7177 26.3519 73.123C25.7232 71.5283 25.4089 69.673 25.4089 67.557C25.4089 65.9623 25.6772 64.452 26.2139 63.026C26.7659 61.6 27.5479 60.3503 28.5599 59.277C29.5872 58.2037 30.8216 57.3527 32.2629 56.724C33.7196 56.0953 35.3602 55.781 37.1849 55.781ZM37.3229 60.703C35.9582 60.703 34.8926 61.094 34.1259 61.876C33.3592 62.6427 32.8532 63.7543 32.6079 65.211H41.5089C41.5089 64.6437 41.4322 64.0917 41.2789 63.555C41.1409 63.0183 40.9032 62.543 40.5659 62.129C40.2439 61.6997 39.8146 61.3547 39.2779 61.094C38.7412 60.8333 38.0896 60.703 37.3229 60.703ZM68.4624 80C67.7877 80 67.274 79.908 66.9214 79.724C66.584 79.54 66.3004 79.1567 66.0704 78.574L65.5644 77.263C64.9664 77.769 64.3914 78.2137 63.8394 78.597C63.2874 78.9803 62.7124 79.31 62.1144 79.586C61.5317 79.8467 60.903 80.0383 60.2284 80.161C59.569 80.299 58.833 80.368 58.0204 80.368C56.9317 80.368 55.9427 80.23 55.0534 79.954C54.164 79.6627 53.405 79.241 52.7764 78.689C52.163 78.137 51.6877 77.4547 51.3504 76.642C51.013 75.814 50.8444 74.8633 50.8444 73.79C50.8444 72.9467 51.059 72.0803 51.4884 71.191C51.9177 70.3017 52.6614 69.4967 53.7194 68.776C54.7774 68.04 56.2034 67.4267 57.9974 66.936C59.7914 66.4453 62.053 66.1693 64.7824 66.108V65.096C64.7824 63.7007 64.491 62.6963 63.9084 62.083C63.341 61.4543 62.5284 61.14 61.4704 61.14C60.627 61.14 59.937 61.232 59.4004 61.416C58.8637 61.6 58.3807 61.807 57.9514 62.037C57.5374 62.267 57.131 62.474 56.7324 62.658C56.3337 62.842 55.8584 62.934 55.3064 62.934C54.8157 62.934 54.394 62.819 54.0414 62.589C53.704 62.3437 53.4357 62.0447 53.2364 61.692L51.9484 59.461C53.3897 58.1883 54.9844 57.2453 56.7324 56.632C58.4957 56.0033 60.3817 55.689 62.3904 55.689C63.8317 55.689 65.1274 55.9267 66.2774 56.402C67.4427 56.862 68.424 57.5137 69.2214 58.357C70.034 59.185 70.655 60.174 71.0844 61.324C71.5137 62.474 71.7284 63.7313 71.7284 65.096V80H68.4624ZM60.2744 75.653C61.1944 75.653 61.9994 75.492 62.6894 75.17C63.3794 74.848 64.077 74.3267 64.7824 73.606V70.294C63.3564 70.3553 62.1834 70.478 61.2634 70.662C60.3434 70.846 59.615 71.076 59.0784 71.352C58.5417 71.628 58.166 71.9423 57.9514 72.295C57.752 72.6477 57.6524 73.031 57.6524 73.445C57.6524 74.2577 57.8747 74.8327 58.3194 75.17C58.764 75.492 59.4157 75.653 60.2744 75.653ZM85.1633 80.368C84.0286 80.368 83.0243 80.207 82.1503 79.885C81.2916 79.5477 80.5633 79.08 79.9653 78.482C79.3826 77.8687 78.9379 77.1327 78.6313 76.274C78.3246 75.4153 78.1713 74.457 78.1713 73.399V61.071H76.1473C75.7793 61.071 75.4649 60.956 75.2043 60.726C74.9436 60.4807 74.8133 60.128 74.8133 59.668V56.885L78.6083 56.149L80.0113 50.33C80.1953 49.594 80.7166 49.226 81.5753 49.226H85.3013V56.195H91.0973V61.071H85.3013V72.916C85.3013 73.468 85.4316 73.928 85.6923 74.296C85.9683 74.6487 86.3593 74.825 86.8653 74.825C87.1259 74.825 87.3406 74.802 87.5093 74.756C87.6933 74.6947 87.8466 74.6333 87.9693 74.572C88.1073 74.4953 88.2299 74.434 88.3373 74.388C88.4599 74.3267 88.5979 74.296 88.7513 74.296C88.9659 74.296 89.1346 74.3497 89.2573 74.457C89.3953 74.549 89.5333 74.7023 89.6713 74.917L91.8333 78.298C90.9133 78.988 89.8783 79.5093 88.7283 79.862C87.5783 80.1993 86.3899 80.368 85.1633 80.368ZM101.879 56.149V71.283C101.879 72.4637 102.148 73.376 102.684 74.02C103.221 74.664 104.011 74.986 105.053 74.986C105.835 74.986 106.564 74.825 107.238 74.503C107.928 74.181 108.595 73.7287 109.239 73.146V56.149H116.369V80H111.953C111.064 80 110.481 79.6013 110.205 78.804L109.768 77.424C109.308 77.8687 108.833 78.275 108.342 78.643C107.852 78.9957 107.323 79.3023 106.755 79.563C106.203 79.8083 105.605 80 104.961 80.138C104.317 80.2913 103.612 80.368 102.845 80.368C101.542 80.368 100.384 80.1457 99.3722 79.701C98.3756 79.241 97.5322 78.6047 96.8422 77.792C96.1522 76.9793 95.6309 76.021 95.2782 74.917C94.9256 73.813 94.7492 72.6017 94.7492 71.283V56.149H101.879ZM121.893 80V56.149H126.125C126.477 56.149 126.769 56.1797 126.999 56.241C127.244 56.3023 127.443 56.402 127.597 56.54C127.765 56.6627 127.888 56.8313 127.965 57.046C128.057 57.2607 128.133 57.5213 128.195 57.828L128.586 60.059C129.46 58.7097 130.441 57.644 131.53 56.862C132.618 56.08 133.807 55.689 135.095 55.689C136.183 55.689 137.057 55.9497 137.717 56.471L136.797 61.715C136.735 62.037 136.613 62.267 136.429 62.405C136.245 62.5277 135.999 62.589 135.693 62.589C135.432 62.589 135.125 62.5583 134.773 62.497C134.42 62.4203 133.975 62.382 133.439 62.382C131.568 62.382 130.096 63.3787 129.023 65.372V80H121.893ZM151.107 55.781C152.686 55.781 154.127 56.0263 155.431 56.517C156.749 57.0077 157.876 57.7207 158.812 58.656C159.762 59.5913 160.498 60.7413 161.02 62.106C161.556 63.4553 161.825 64.9887 161.825 66.706C161.825 67.2427 161.802 67.6797 161.756 68.017C161.71 68.3543 161.625 68.6227 161.503 68.822C161.38 69.0213 161.211 69.1593 160.997 69.236C160.797 69.3127 160.537 69.351 160.215 69.351H146.461C146.691 71.3443 147.296 72.7933 148.278 73.698C149.259 74.5873 150.524 75.032 152.073 75.032C152.901 75.032 153.614 74.9323 154.212 74.733C154.81 74.5337 155.339 74.3113 155.799 74.066C156.274 73.8207 156.703 73.5983 157.087 73.399C157.485 73.1997 157.899 73.1 158.329 73.1C158.896 73.1 159.325 73.307 159.617 73.721L161.687 76.274C160.951 77.1173 160.153 77.8073 159.295 78.344C158.451 78.8653 157.577 79.2793 156.673 79.586C155.783 79.8773 154.886 80.0767 153.982 80.184C153.092 80.3067 152.241 80.368 151.429 80.368C149.757 80.368 148.186 80.0997 146.714 79.563C145.257 79.011 143.977 78.1983 142.873 77.125C141.784 76.0517 140.918 74.7177 140.274 73.123C139.645 71.5283 139.331 69.673 139.331 67.557C139.331 65.9623 139.599 64.452 140.136 63.026C140.688 61.6 141.47 60.3503 142.482 59.277C143.509 58.2037 144.743 57.3527 146.185 56.724C147.641 56.0953 149.282 55.781 151.107 55.781ZM151.245 60.703C149.88 60.703 148.814 61.094 148.048 61.876C147.281 62.6427 146.775 63.7543 146.53 65.211H155.431C155.431 64.6437 155.354 64.0917 155.201 63.555C155.063 63.0183 154.825 62.543 154.488 62.129C154.166 61.6997 153.736 61.3547 153.2 61.094C152.663 60.8333 152.011 60.703 151.245 60.703ZM182.66 80C182.216 80 181.84 79.9003 181.533 79.701C181.242 79.5017 181.035 79.2027 180.912 78.804L180.36 76.987C179.885 77.493 179.387 77.953 178.865 78.367C178.344 78.781 177.777 79.1413 177.163 79.448C176.565 79.7393 175.914 79.9617 175.208 80.115C174.518 80.2837 173.767 80.368 172.954 80.368C171.712 80.368 170.562 80.092 169.504 79.54C168.446 78.988 167.534 78.1907 166.767 77.148C166.001 76.1053 165.395 74.8327 164.95 73.33C164.521 71.812 164.306 70.087 164.306 68.155C164.306 66.3763 164.552 64.728 165.042 63.21C165.533 61.6767 166.223 60.358 167.112 59.254C168.017 58.1347 169.098 57.2607 170.355 56.632C171.613 56.0033 173 55.689 174.518 55.689C175.745 55.689 176.78 55.873 177.623 56.241C178.482 56.5937 179.256 57.0613 179.946 57.644V45.569H187.076V80H182.66ZM175.438 74.894C175.96 74.894 176.427 74.848 176.841 74.756C177.271 74.6487 177.662 74.503 178.014 74.319C178.367 74.135 178.697 73.905 179.003 73.629C179.325 73.353 179.64 73.031 179.946 72.663V62.543C179.394 61.945 178.804 61.531 178.175 61.301C177.562 61.0557 176.91 60.933 176.22 60.933C175.561 60.933 174.955 61.0633 174.403 61.324C173.851 61.5847 173.368 62.0063 172.954 62.589C172.556 63.1563 172.241 63.9 172.011 64.82C171.781 65.74 171.666 66.8517 171.666 68.155C171.666 69.4123 171.758 70.4703 171.942 71.329C172.126 72.1877 172.379 72.8853 172.701 73.422C173.039 73.9433 173.437 74.319 173.897 74.549C174.357 74.779 174.871 74.894 175.438 74.894ZM224.011 71.329C224.195 71.329 224.379 71.3673 224.563 71.444C224.747 71.5053 224.924 71.6203 225.092 71.789L228.174 75.032C226.825 76.7953 225.131 78.1293 223.091 79.034C221.067 79.9233 218.668 80.368 215.892 80.368C213.347 80.368 211.062 79.9387 209.038 79.08C207.03 78.206 205.32 77.01 203.909 75.492C202.514 73.9587 201.441 72.1493 200.689 70.064C199.938 67.9633 199.562 65.6863 199.562 63.233C199.562 60.7337 199.992 58.4413 200.85 56.356C201.709 54.2553 202.905 52.446 204.438 50.928C205.987 49.41 207.835 48.2293 209.981 47.386C212.128 46.5427 214.497 46.121 217.088 46.121C218.346 46.121 219.526 46.236 220.63 46.466C221.75 46.6807 222.792 46.9873 223.758 47.386C224.724 47.7693 225.614 48.237 226.426 48.789C227.239 49.3257 227.96 49.9237 228.588 50.583L225.966 54.102C225.798 54.3167 225.598 54.516 225.368 54.7C225.138 54.8687 224.816 54.953 224.402 54.953C224.126 54.953 223.866 54.8917 223.62 54.769C223.375 54.6463 223.114 54.5007 222.838 54.332C222.562 54.148 222.256 53.9563 221.918 53.757C221.596 53.5423 221.205 53.3507 220.745 53.182C220.301 52.998 219.772 52.8447 219.158 52.722C218.56 52.5993 217.855 52.538 217.042 52.538C215.632 52.538 214.344 52.791 213.178 53.297C212.013 53.7877 211.009 54.5007 210.165 55.436C209.337 56.356 208.686 57.4753 208.21 58.794C207.75 60.1127 207.52 61.5923 207.52 63.233C207.52 64.9503 207.75 66.476 208.21 67.81C208.686 69.144 209.322 70.271 210.119 71.191C210.932 72.0957 211.875 72.7857 212.948 73.261C214.022 73.7363 215.172 73.974 216.398 73.974C217.104 73.974 217.748 73.9433 218.33 73.882C218.913 73.8053 219.45 73.6827 219.94 73.514C220.446 73.3453 220.922 73.1307 221.366 72.87C221.826 72.594 222.286 72.2567 222.746 71.858C222.93 71.7047 223.13 71.582 223.344 71.49C223.559 71.3827 223.781 71.329 224.011 71.329ZM242.353 55.781C244.162 55.781 245.81 56.0647 247.298 56.632C248.785 57.1993 250.058 58.012 251.116 59.07C252.189 60.128 253.017 61.416 253.6 62.934C254.198 64.4367 254.497 66.131 254.497 68.017C254.497 69.9183 254.198 71.6357 253.6 73.169C253.017 74.687 252.189 75.9827 251.116 77.056C250.058 78.114 248.785 78.9343 247.298 79.517C245.81 80.0843 244.162 80.368 242.353 80.368C240.528 80.368 238.864 80.0843 237.362 79.517C235.874 78.9343 234.586 78.114 233.498 77.056C232.424 75.9827 231.589 74.687 230.991 73.169C230.408 71.6357 230.117 69.9183 230.117 68.017C230.117 66.131 230.408 64.4367 230.991 62.934C231.589 61.416 232.424 60.128 233.498 59.07C234.586 58.012 235.874 57.1993 237.362 56.632C238.864 56.0647 240.528 55.781 242.353 55.781ZM242.353 75.078C243.993 75.078 245.197 74.503 245.964 73.353C246.746 72.1877 247.137 70.4243 247.137 68.063C247.137 65.7017 246.746 63.946 245.964 62.796C245.197 61.646 243.993 61.071 242.353 61.071C240.666 61.071 239.432 61.646 238.65 62.796C237.868 63.946 237.477 65.7017 237.477 68.063C237.477 70.4243 237.868 72.1877 238.65 73.353C239.432 74.503 240.666 75.078 242.353 75.078ZM265.08 56.149V71.283C265.08 72.4637 265.349 73.376 265.885 74.02C266.422 74.664 267.212 74.986 268.254 74.986C269.036 74.986 269.765 74.825 270.439 74.503C271.129 74.181 271.796 73.7287 272.44 73.146V56.149H279.57V80H275.154C274.265 80 273.682 79.6013 273.406 78.804L272.969 77.424C272.509 77.8687 272.034 78.275 271.543 78.643C271.053 78.9957 270.524 79.3023 269.956 79.563C269.404 79.8083 268.806 80 268.162 80.138C267.518 80.2913 266.813 80.368 266.046 80.368C264.743 80.368 263.585 80.1457 262.573 79.701C261.577 79.241 260.733 78.6047 260.043 77.792C259.353 76.9793 258.832 76.021 258.479 74.917C258.127 73.813 257.95 72.6017 257.95 71.283V56.149H265.08ZM285.094 80V56.149H289.326C289.679 56.149 289.97 56.1797 290.2 56.241C290.445 56.3023 290.645 56.402 290.798 56.54C290.967 56.6627 291.089 56.8313 291.166 57.046C291.258 57.2607 291.335 57.5213 291.396 57.828L291.787 60.059C292.661 58.7097 293.642 57.644 294.731 56.862C295.82 56.08 297.008 55.689 298.296 55.689C299.385 55.689 300.259 55.9497 300.918 56.471L299.998 61.715C299.937 62.037 299.814 62.267 299.63 62.405C299.446 62.5277 299.201 62.589 298.894 62.589C298.633 62.589 298.327 62.5583 297.974 62.497C297.621 62.4203 297.177 62.382 296.64 62.382C294.769 62.382 293.297 63.3787 292.224 65.372V80H285.094ZM318.678 61.37C318.494 61.6613 318.295 61.8683 318.08 61.991C317.881 62.1137 317.62 62.175 317.298 62.175C316.961 62.175 316.623 62.106 316.286 61.968C315.949 61.8147 315.581 61.6537 315.182 61.485C314.799 61.3163 314.362 61.163 313.871 61.025C313.38 60.8717 312.821 60.795 312.192 60.795C311.287 60.795 310.59 60.9713 310.099 61.324C309.624 61.6613 309.386 62.1367 309.386 62.75C309.386 63.1947 309.539 63.5627 309.846 63.854C310.168 64.1453 310.59 64.406 311.111 64.636C311.632 64.8507 312.223 65.0577 312.882 65.257C313.541 65.4563 314.216 65.6787 314.906 65.924C315.596 66.1693 316.271 66.4607 316.93 66.798C317.589 67.12 318.18 67.5263 318.701 68.017C319.222 68.4923 319.636 69.075 319.943 69.765C320.265 70.455 320.426 71.283 320.426 72.249C320.426 73.4297 320.211 74.5183 319.782 75.515C319.353 76.5117 318.709 77.3703 317.85 78.091C317.007 78.8117 315.956 79.3713 314.699 79.77C313.457 80.1687 312.023 80.368 310.398 80.368C309.585 80.368 308.773 80.2913 307.96 80.138C307.147 79.9847 306.358 79.7777 305.591 79.517C304.84 79.2563 304.142 78.9497 303.498 78.597C302.854 78.229 302.302 77.838 301.842 77.424L303.498 74.802C303.697 74.4953 303.935 74.2577 304.211 74.089C304.487 73.905 304.847 73.813 305.292 73.813C305.706 73.813 306.074 73.905 306.396 74.089C306.733 74.273 307.094 74.4723 307.477 74.687C307.86 74.9017 308.305 75.101 308.811 75.285C309.332 75.469 309.984 75.561 310.766 75.561C311.318 75.561 311.786 75.5073 312.169 75.4C312.552 75.2773 312.859 75.1163 313.089 74.917C313.319 74.7177 313.488 74.4953 313.595 74.25C313.702 74.0047 313.756 73.7517 313.756 73.491C313.756 73.0157 313.595 72.6247 313.273 72.318C312.951 72.0113 312.529 71.7507 312.008 71.536C311.487 71.306 310.889 71.099 310.214 70.915C309.555 70.7157 308.88 70.4933 308.19 70.248C307.5 70.0027 306.818 69.7113 306.143 69.374C305.484 69.0213 304.893 68.5843 304.372 68.063C303.851 67.5263 303.429 66.8747 303.107 66.108C302.785 65.3413 302.624 64.4137 302.624 63.325C302.624 62.313 302.816 61.3547 303.199 60.45C303.598 59.53 304.188 58.725 304.97 58.035C305.752 57.345 306.733 56.8007 307.914 56.402C309.095 55.988 310.475 55.781 312.054 55.781C312.913 55.781 313.741 55.8577 314.538 56.011C315.351 56.1643 316.11 56.379 316.815 56.655C317.52 56.931 318.164 57.2607 318.747 57.644C319.33 58.012 319.843 58.4183 320.288 58.863L318.678 61.37ZM334.568 55.781C336.147 55.781 337.588 56.0263 338.892 56.517C340.21 57.0077 341.337 57.7207 342.273 58.656C343.223 59.5913 343.959 60.7413 344.481 62.106C345.017 63.4553 345.286 64.9887 345.286 66.706C345.286 67.2427 345.263 67.6797 345.217 68.017C345.171 68.3543 345.086 68.6227 344.964 68.822C344.841 69.0213 344.672 69.1593 344.458 69.236C344.258 69.3127 343.998 69.351 343.676 69.351H329.922C330.152 71.3443 330.757 72.7933 331.739 73.698C332.72 74.5873 333.985 75.032 335.534 75.032C336.362 75.032 337.075 74.9323 337.673 74.733C338.271 74.5337 338.8 74.3113 339.26 74.066C339.735 73.8207 340.164 73.5983 340.548 73.399C340.946 73.1997 341.36 73.1 341.79 73.1C342.357 73.1 342.786 73.307 343.078 73.721L345.148 76.274C344.412 77.1173 343.614 77.8073 342.756 78.344C341.912 78.8653 341.038 79.2793 340.134 79.586C339.244 79.8773 338.347 80.0767 337.443 80.184C336.553 80.3067 335.702 80.368 334.89 80.368C333.218 80.368 331.647 80.0997 330.175 79.563C328.718 79.011 327.438 78.1983 326.334 77.125C325.245 76.0517 324.379 74.7177 323.735 73.123C323.106 71.5283 322.792 69.673 322.792 67.557C322.792 65.9623 323.06 64.452 323.597 63.026C324.149 61.6 324.931 60.3503 325.943 59.277C326.97 58.2037 328.204 57.3527 329.646 56.724C331.102 56.0953 332.743 55.781 334.568 55.781ZM334.706 60.703C333.341 60.703 332.275 61.094 331.509 61.876C330.742 62.6427 330.236 63.7543 329.991 65.211H338.892C338.892 64.6437 338.815 64.0917 338.662 63.555C338.524 63.0183 338.286 62.543 337.949 62.129C337.627 61.6997 337.197 61.3547 336.661 61.094C336.124 60.8333 335.472 60.703 334.706 60.703ZM363.959 61.37C363.775 61.6613 363.576 61.8683 363.361 61.991C363.162 62.1137 362.901 62.175 362.579 62.175C362.242 62.175 361.905 62.106 361.567 61.968C361.23 61.8147 360.862 61.6537 360.463 61.485C360.08 61.3163 359.643 61.163 359.152 61.025C358.662 60.8717 358.102 60.795 357.473 60.795C356.569 60.795 355.871 60.9713 355.38 61.324C354.905 61.6613 354.667 62.1367 354.667 62.75C354.667 63.1947 354.821 63.5627 355.127 63.854C355.449 64.1453 355.871 64.406 356.392 64.636C356.914 64.8507 357.504 65.0577 358.163 65.257C358.823 65.4563 359.497 65.6787 360.187 65.924C360.877 66.1693 361.552 66.4607 362.211 66.798C362.871 67.12 363.461 67.5263 363.982 68.017C364.504 68.4923 364.918 69.075 365.224 69.765C365.546 70.455 365.707 71.283 365.707 72.249C365.707 73.4297 365.493 74.5183 365.063 75.515C364.634 76.5117 363.99 77.3703 363.131 78.091C362.288 78.8117 361.238 79.3713 359.98 79.77C358.738 80.1687 357.305 80.368 355.679 80.368C354.867 80.368 354.054 80.2913 353.241 80.138C352.429 79.9847 351.639 79.7777 350.872 79.517C350.121 79.2563 349.423 78.9497 348.779 78.597C348.135 78.229 347.583 77.838 347.123 77.424L348.779 74.802C348.979 74.4953 349.216 74.2577 349.492 74.089C349.768 73.905 350.129 73.813 350.573 73.813C350.987 73.813 351.355 73.905 351.677 74.089C352.015 74.273 352.375 74.4723 352.758 74.687C353.142 74.9017 353.586 75.101 354.092 75.285C354.614 75.469 355.265 75.561 356.047 75.561C356.599 75.561 357.067 75.5073 357.45 75.4C357.834 75.2773 358.14 75.1163 358.37 74.917C358.6 74.7177 358.769 74.4953 358.876 74.25C358.984 74.0047 359.037 73.7517 359.037 73.491C359.037 73.0157 358.876 72.6247 358.554 72.318C358.232 72.0113 357.811 71.7507 357.289 71.536C356.768 71.306 356.17 71.099 355.495 70.915C354.836 70.7157 354.161 70.4933 353.471 70.248C352.781 70.0027 352.099 69.7113 351.424 69.374C350.765 69.0213 350.175 68.5843 349.653 68.063C349.132 67.5263 348.71 66.8747 348.388 66.108C348.066 65.3413 347.905 64.4137 347.905 63.325C347.905 62.313 348.097 61.3547 348.48 60.45C348.879 59.53 349.469 58.725 350.251 58.035C351.033 57.345 352.015 56.8007 353.195 56.402C354.376 55.988 355.756 55.781 357.335 55.781C358.194 55.781 359.022 55.8577 359.819 56.011C360.632 56.1643 361.391 56.379 362.096 56.655C362.802 56.931 363.446 57.2607 364.028 57.644C364.611 58.012 365.125 58.4183 365.569 58.863L363.959 61.37Z" fill="#1E212C"/>
</g>
<defs>
<clipPath id="clip0_2234_9556">
<rect width="367" height="92" fill="white"/>
</clipPath>
</defs>
</svg>
