<svg width="298" height="92" viewBox="0 0 298 92" fill="none" xmlns="http://www.w3.org/2000/svg">
<g clip-path="url(#clip0_2234_9562)">
<path d="M0.096 6.432H1.904C2.09067 6.432 2.24533 6.47733 2.368 6.568C2.496 6.65333 2.58133 6.77067 2.624 6.92L4.592 13.84C4.64 14.0107 4.68267 14.1973 4.72 14.4C4.76267 14.5973 4.80267 14.808 4.84 15.032C4.88267 14.808 4.928 14.5973 4.976 14.4C5.02933 14.1973 5.08533 14.0107 5.144 13.84L7.416 6.92C7.45867 6.79733 7.54133 6.68533 7.664 6.584C7.792 6.48267 7.94667 6.432 8.128 6.432H8.76C8.94667 6.432 9.10133 6.47733 9.224 6.568C9.34667 6.65333 9.432 6.77067 9.48 6.92L11.736 13.84C11.8533 14.1813 11.9547 14.56 12.04 14.976C12.0773 14.768 12.1147 14.568 12.152 14.376C12.1947 14.184 12.2373 14.0053 12.28 13.84L14.248 6.92C14.2853 6.78667 14.368 6.672 14.496 6.576C14.624 6.48 14.7787 6.432 14.96 6.432H16.648L13.056 18H11.112L8.584 10.096C8.552 9.99467 8.51733 9.88533 8.48 9.768C8.448 9.65067 8.416 9.52533 8.384 9.392C8.352 9.52533 8.31733 9.65067 8.28 9.768C8.248 9.88533 8.216 9.99467 8.184 10.096L5.632 18H3.688L0.096 6.432ZM28.678 18H26.51V12.944H21.086V18H18.918V6.432H21.086V11.408H26.51V6.432H28.678V18ZM43.1078 12.216C43.1078 13.064 42.9664 13.8507 42.6838 14.576C42.4011 15.296 42.0038 15.92 41.4918 16.448C40.9798 16.976 40.3638 17.3893 39.6438 17.688C38.9238 17.9813 38.1264 18.128 37.2518 18.128C36.3771 18.128 35.5771 17.9813 34.8518 17.688C34.1318 17.3893 33.5131 16.976 32.9958 16.448C32.4838 15.92 32.0864 15.296 31.8038 14.576C31.5211 13.8507 31.3798 13.064 31.3798 12.216C31.3798 11.368 31.5211 10.584 31.8038 9.864C32.0864 9.13867 32.4838 8.512 32.9958 7.984C33.5131 7.456 34.1318 7.04533 34.8518 6.752C35.5771 6.45333 36.3771 6.304 37.2518 6.304C38.1264 6.304 38.9238 6.45333 39.6438 6.752C40.3638 7.05067 40.9798 7.464 41.4918 7.992C42.0038 8.51467 42.4011 9.13867 42.6838 9.864C42.9664 10.584 43.1078 11.368 43.1078 12.216ZM40.8998 12.216C40.8998 11.5813 40.8144 11.0133 40.6438 10.512C40.4784 10.0053 40.2384 9.576 39.9238 9.224C39.6091 8.872 39.2251 8.60267 38.7718 8.416C38.3238 8.22933 37.8171 8.136 37.2518 8.136C36.6864 8.136 36.1771 8.22933 35.7238 8.416C35.2704 8.60267 34.8838 8.872 34.5638 9.224C34.2491 9.576 34.0064 10.0053 33.8358 10.512C33.6651 11.0133 33.5798 11.5813 33.5798 12.216C33.5798 12.8507 33.6651 13.4213 33.8358 13.928C34.0064 14.4293 34.2491 14.856 34.5638 15.208C34.8838 15.5547 35.2704 15.8213 35.7238 16.008C36.1771 16.1947 36.6864 16.288 37.2518 16.288C37.8171 16.288 38.3238 16.1947 38.7718 16.008C39.2251 15.8213 39.6091 15.5547 39.9238 15.208C40.2384 14.856 40.4784 14.4293 40.6438 13.928C40.8144 13.4213 40.8998 12.8507 40.8998 12.216ZM48.8304 6.432H50.6384C50.825 6.432 50.9797 6.47733 51.1024 6.568C51.2304 6.65333 51.3157 6.77067 51.3584 6.92L53.3264 13.84C53.3744 14.0107 53.417 14.1973 53.4544 14.4C53.497 14.5973 53.537 14.808 53.5744 15.032C53.617 14.808 53.6624 14.5973 53.7104 14.4C53.7637 14.1973 53.8197 14.0107 53.8784 13.84L56.1504 6.92C56.193 6.79733 56.2757 6.68533 56.3984 6.584C56.5264 6.48267 56.681 6.432 56.8624 6.432H57.4944C57.681 6.432 57.8357 6.47733 57.9584 6.568C58.081 6.65333 58.1664 6.77067 58.2144 6.92L60.4704 13.84C60.5877 14.1813 60.689 14.56 60.7744 14.976C60.8117 14.768 60.849 14.568 60.8864 14.376C60.929 14.184 60.9717 14.0053 61.0144 13.84L62.9824 6.92C63.0197 6.78667 63.1024 6.672 63.2304 6.576C63.3584 6.48 63.513 6.432 63.6944 6.432H65.3824L61.7904 18H59.8464L57.3184 10.096C57.2864 9.99467 57.2517 9.88533 57.2144 9.768C57.1824 9.65067 57.1504 9.52533 57.1184 9.392C57.0864 9.52533 57.0517 9.65067 57.0144 9.768C56.9824 9.88533 56.9504 9.99467 56.9184 10.096L54.3664 18H52.4224L48.8304 6.432ZM74.9484 6.432V8.144H69.8204V11.352H73.8604V13.008H69.8204V16.28H74.9484V18H67.6524V6.432H74.9484ZM92.0704 18H90.4064C90.2197 18 90.065 17.9547 89.9424 17.864C89.825 17.768 89.7397 17.6507 89.6864 17.512L88.8224 15.152H84.0304L83.1664 17.512C83.1237 17.6347 83.0384 17.7467 82.9104 17.848C82.7877 17.9493 82.6357 18 82.4544 18H80.7824L85.3264 6.432H87.5264L92.0704 18ZM84.5824 13.632H88.2704L86.8624 9.784C86.7984 9.61333 86.7264 9.41333 86.6464 9.184C86.5717 8.94933 86.497 8.696 86.4224 8.424C86.3477 8.696 86.273 8.94933 86.1984 9.184C86.129 9.41867 86.0597 9.624 85.9904 9.8L84.5824 13.632ZM96.4858 13.48V18H94.3338V6.432H97.8618C98.6511 6.432 99.3258 6.51467 99.8858 6.68C100.451 6.84 100.912 7.06667 101.27 7.36C101.632 7.65333 101.896 8.00533 102.062 8.416C102.232 8.82133 102.318 9.26933 102.318 9.76C102.318 10.1493 102.259 10.5173 102.142 10.864C102.03 11.2107 101.864 11.5253 101.646 11.808C101.432 12.0907 101.166 12.3387 100.846 12.552C100.531 12.7653 100.171 12.936 99.7658 13.064C100.038 13.2187 100.272 13.44 100.47 13.728L103.366 18H101.43C101.243 18 101.083 17.9627 100.95 17.888C100.822 17.8133 100.712 17.7067 100.622 17.568L98.1898 13.864C98.0991 13.7253 97.9978 13.6267 97.8858 13.568C97.7791 13.5093 97.6191 13.48 97.4058 13.48H96.4858ZM96.4858 11.936H97.8298C98.2351 11.936 98.5871 11.8853 98.8858 11.784C99.1898 11.6827 99.4378 11.544 99.6298 11.368C99.8271 11.1867 99.9738 10.9733 100.07 10.728C100.166 10.4827 100.214 10.2133 100.214 9.92C100.214 9.33333 100.019 8.88267 99.6298 8.568C99.2458 8.25333 98.6564 8.096 97.8618 8.096H96.4858V11.936ZM113.042 6.432V8.144H107.914V11.352H111.954V13.008H107.914V16.28H113.042V18H105.746V6.432H113.042Z" fill="#1E212C"/>
<path d="M0.23 46.489H6.762C7.43667 46.489 7.99633 46.6423 8.441 46.949C8.901 47.2557 9.2 47.662 9.338 48.168L13.938 65.648C14.0913 66.2153 14.2447 66.821 14.398 67.465C14.5513 68.109 14.6663 68.7837 14.743 69.489C14.8963 68.7683 15.065 68.0937 15.249 67.465C15.433 66.821 15.6093 66.2153 15.778 65.648L21.206 48.168C21.344 47.7387 21.6353 47.3553 22.08 47.018C22.54 46.6653 23.092 46.489 23.736 46.489H26.036C26.7107 46.489 27.2627 46.6423 27.692 46.949C28.1367 47.2403 28.4433 47.6467 28.612 48.168L33.994 65.648C34.1627 66.1847 34.339 66.7597 34.523 67.373C34.707 67.971 34.868 68.615 35.006 69.305C35.1287 68.6303 35.2513 67.9863 35.374 67.373C35.512 66.7597 35.65 66.1847 35.788 65.648L40.388 48.168C40.5107 47.7233 40.802 47.3323 41.262 46.995C41.722 46.6577 42.274 46.489 42.918 46.489H49.036L38.686 80H31.648L25.346 59.231C25.2387 58.909 25.1237 58.5563 25.001 58.173C24.8937 57.7897 24.7863 57.3833 24.679 56.954C24.5717 57.3833 24.4567 57.7897 24.334 58.173C24.2267 58.5563 24.1193 58.909 24.012 59.231L17.618 80H10.58L0.23 46.489ZM52.0393 80V45.569H59.1693V58.242C60.028 57.506 60.9556 56.9157 61.9523 56.471C62.9643 56.011 64.168 55.781 65.5633 55.781C66.8666 55.781 68.0166 56.011 69.0133 56.471C70.0253 56.9157 70.8763 57.5443 71.5663 58.357C72.2563 59.1543 72.7776 60.1127 73.1303 61.232C73.483 62.336 73.6593 63.5397 73.6593 64.843V80H66.5293V64.843C66.5293 63.6777 66.261 62.773 65.7243 62.129C65.1876 61.4697 64.398 61.14 63.3553 61.14C62.5733 61.14 61.8373 61.3087 61.1473 61.646C60.4573 61.9833 59.798 62.4357 59.1693 63.003V80H52.0393ZM87.5765 86.187C87.3618 86.6623 87.1011 87.0073 86.7945 87.222C86.4878 87.452 85.9971 87.567 85.3225 87.567H79.9865L84.5865 77.907L75.0645 56.149H81.3665C81.9185 56.149 82.3478 56.2717 82.6545 56.517C82.9611 56.7623 83.1758 57.0537 83.2985 57.391L87.2085 67.672C87.5765 68.6227 87.8755 69.5733 88.1055 70.524C88.2588 70.0333 88.4275 69.5503 88.6115 69.075C88.7955 68.5997 88.9718 68.1167 89.1405 67.626L92.6825 57.391C92.8051 57.0383 93.0428 56.747 93.3955 56.517C93.7635 56.2717 94.1545 56.149 94.5685 56.149H100.318L87.5765 86.187ZM134.662 71.329C134.846 71.329 135.03 71.3673 135.214 71.444C135.398 71.5053 135.574 71.6203 135.743 71.789L138.825 75.032C137.475 76.7953 135.781 78.1293 133.742 79.034C131.718 79.9233 129.318 80.368 126.543 80.368C123.997 80.368 121.713 79.9387 119.689 79.08C117.68 78.206 115.97 77.01 114.56 75.492C113.164 73.9587 112.091 72.1493 111.34 70.064C110.588 67.9633 110.213 65.6863 110.213 63.233C110.213 60.7337 110.642 58.4413 111.501 56.356C112.359 54.2553 113.555 52.446 115.089 50.928C116.637 49.41 118.485 48.2293 120.632 47.386C122.778 46.5427 125.147 46.121 127.739 46.121C128.996 46.121 130.177 46.236 131.281 46.466C132.4 46.6807 133.443 46.9873 134.409 47.386C135.375 47.7693 136.264 48.237 137.077 48.789C137.889 49.3257 138.61 49.9237 139.239 50.583L136.617 54.102C136.448 54.3167 136.249 54.516 136.019 54.7C135.789 54.8687 135.467 54.953 135.053 54.953C134.777 54.953 134.516 54.8917 134.271 54.769C134.025 54.6463 133.765 54.5007 133.489 54.332C133.213 54.148 132.906 53.9563 132.569 53.757C132.247 53.5423 131.856 53.3507 131.396 53.182C130.951 52.998 130.422 52.8447 129.809 52.722C129.211 52.5993 128.505 52.538 127.693 52.538C126.282 52.538 124.994 52.791 123.829 53.297C122.663 53.7877 121.659 54.5007 120.816 55.436C119.988 56.356 119.336 57.4753 118.861 58.794C118.401 60.1127 118.171 61.5923 118.171 63.233C118.171 64.9503 118.401 66.476 118.861 67.81C119.336 69.144 119.972 70.271 120.77 71.191C121.582 72.0957 122.525 72.7857 123.599 73.261C124.672 73.7363 125.822 73.974 127.049 73.974C127.754 73.974 128.398 73.9433 128.981 73.882C129.563 73.8053 130.1 73.6827 130.591 73.514C131.097 73.3453 131.572 73.1307 132.017 72.87C132.477 72.594 132.937 72.2567 133.397 71.858C133.581 71.7047 133.78 71.582 133.995 71.49C134.209 71.3827 134.432 71.329 134.662 71.329ZM142.377 80V56.149H146.609C146.962 56.149 147.253 56.1797 147.483 56.241C147.729 56.3023 147.928 56.402 148.081 56.54C148.25 56.6627 148.373 56.8313 148.449 57.046C148.541 57.2607 148.618 57.5213 148.679 57.828L149.07 60.059C149.944 58.7097 150.926 57.644 152.014 56.862C153.103 56.08 154.291 55.689 155.579 55.689C156.668 55.689 157.542 55.9497 158.201 56.471L157.281 61.715C157.22 62.037 157.097 62.267 156.913 62.405C156.729 62.5277 156.484 62.589 156.177 62.589C155.917 62.589 155.61 62.5583 155.257 62.497C154.905 62.4203 154.46 62.382 153.923 62.382C152.053 62.382 150.581 63.3787 149.507 65.372V80H142.377ZM171.591 55.781C173.17 55.781 174.612 56.0263 175.915 56.517C177.234 57.0077 178.361 57.7207 179.296 58.656C180.247 59.5913 180.983 60.7413 181.504 62.106C182.041 63.4553 182.309 64.9887 182.309 66.706C182.309 67.2427 182.286 67.6797 182.24 68.017C182.194 68.3543 182.11 68.6227 181.987 68.822C181.864 69.0213 181.696 69.1593 181.481 69.236C181.282 69.3127 181.021 69.351 180.699 69.351H166.945C167.175 71.3443 167.781 72.7933 168.762 73.698C169.743 74.5873 171.008 75.032 172.557 75.032C173.385 75.032 174.098 74.9323 174.696 74.733C175.294 74.5337 175.823 74.3113 176.283 74.066C176.758 73.8207 177.188 73.5983 177.571 73.399C177.97 73.1997 178.384 73.1 178.813 73.1C179.38 73.1 179.81 73.307 180.101 73.721L182.171 76.274C181.435 77.1173 180.638 77.8073 179.779 78.344C178.936 78.8653 178.062 79.2793 177.157 79.586C176.268 79.8773 175.371 80.0767 174.466 80.184C173.577 80.3067 172.726 80.368 171.913 80.368C170.242 80.368 168.67 80.0997 167.198 79.563C165.741 79.011 164.461 78.1983 163.357 77.125C162.268 76.0517 161.402 74.7177 160.758 73.123C160.129 71.5283 159.815 69.673 159.815 67.557C159.815 65.9623 160.083 64.452 160.62 63.026C161.172 61.6 161.954 60.3503 162.966 59.277C163.993 58.2037 165.228 57.3527 166.669 56.724C168.126 56.0953 169.766 55.781 171.591 55.781ZM171.729 60.703C170.364 60.703 169.299 61.094 168.532 61.876C167.765 62.6427 167.259 63.7543 167.014 65.211H175.915C175.915 64.6437 175.838 64.0917 175.685 63.555C175.547 63.0183 175.309 62.543 174.972 62.129C174.65 61.6997 174.221 61.3547 173.684 61.094C173.147 60.8333 172.496 60.703 171.729 60.703ZM202.869 80C202.194 80 201.68 79.908 201.328 79.724C200.99 79.54 200.707 79.1567 200.477 78.574L199.971 77.263C199.373 77.769 198.798 78.2137 198.246 78.597C197.694 78.9803 197.119 79.31 196.521 79.586C195.938 79.8467 195.309 80.0383 194.635 80.161C193.975 80.299 193.239 80.368 192.427 80.368C191.338 80.368 190.349 80.23 189.46 79.954C188.57 79.6627 187.811 79.241 187.183 78.689C186.569 78.137 186.094 77.4547 185.757 76.642C185.419 75.814 185.251 74.8633 185.251 73.79C185.251 72.9467 185.465 72.0803 185.895 71.191C186.324 70.3017 187.068 69.4967 188.126 68.776C189.184 68.04 190.61 67.4267 192.404 66.936C194.198 66.4453 196.459 66.1693 199.189 66.108V65.096C199.189 63.7007 198.897 62.6963 198.315 62.083C197.747 61.4543 196.935 61.14 195.877 61.14C195.033 61.14 194.343 61.232 193.807 61.416C193.27 61.6 192.787 61.807 192.358 62.037C191.944 62.267 191.537 62.474 191.139 62.658C190.74 62.842 190.265 62.934 189.713 62.934C189.222 62.934 188.8 62.819 188.448 62.589C188.11 62.3437 187.842 62.0447 187.643 61.692L186.355 59.461C187.796 58.1883 189.391 57.2453 191.139 56.632C192.902 56.0033 194.788 55.689 196.797 55.689C198.238 55.689 199.534 55.9267 200.684 56.402C201.849 56.862 202.83 57.5137 203.628 58.357C204.44 59.185 205.061 60.174 205.491 61.324C205.92 62.474 206.135 63.7313 206.135 65.096V80H202.869ZM194.681 75.653C195.601 75.653 196.406 75.492 197.096 75.17C197.786 74.848 198.483 74.3267 199.189 73.606V70.294C197.763 70.3553 196.59 70.478 195.67 70.662C194.75 70.846 194.021 71.076 193.485 71.352C192.948 71.628 192.572 71.9423 192.358 72.295C192.158 72.6477 192.059 73.031 192.059 73.445C192.059 74.2577 192.281 74.8327 192.726 75.17C193.17 75.492 193.822 75.653 194.681 75.653ZM219.57 80.368C218.435 80.368 217.431 80.207 216.557 79.885C215.698 79.5477 214.97 79.08 214.372 78.482C213.789 77.8687 213.344 77.1327 213.038 76.274C212.731 75.4153 212.578 74.457 212.578 73.399V61.071H210.554C210.186 61.071 209.871 60.956 209.611 60.726C209.35 60.4807 209.22 60.128 209.22 59.668V56.885L213.015 56.149L214.418 50.33C214.602 49.594 215.123 49.226 215.982 49.226H219.708V56.195H225.504V61.071H219.708V72.916C219.708 73.468 219.838 73.928 220.099 74.296C220.375 74.6487 220.766 74.825 221.272 74.825C221.532 74.825 221.747 74.802 221.916 74.756C222.1 74.6947 222.253 74.6333 222.376 74.572C222.514 74.4953 222.636 74.434 222.744 74.388C222.866 74.3267 223.004 74.296 223.158 74.296C223.372 74.296 223.541 74.3497 223.664 74.457C223.802 74.549 223.94 74.7023 224.078 74.917L226.24 78.298C225.32 78.988 224.285 79.5093 223.135 79.862C221.985 80.1993 220.796 80.368 219.57 80.368ZM239.827 55.781C241.407 55.781 242.848 56.0263 244.151 56.517C245.47 57.0077 246.597 57.7207 247.532 58.656C248.483 59.5913 249.219 60.7413 249.74 62.106C250.277 63.4553 250.545 64.9887 250.545 66.706C250.545 67.2427 250.522 67.6797 250.476 68.017C250.43 68.3543 250.346 68.6227 250.223 68.822C250.101 69.0213 249.932 69.1593 249.717 69.236C249.518 69.3127 249.257 69.351 248.935 69.351H235.181C235.411 71.3443 236.017 72.7933 236.998 73.698C237.98 74.5873 239.245 75.032 240.793 75.032C241.621 75.032 242.334 74.9323 242.932 74.733C243.53 74.5337 244.059 74.3113 244.519 74.066C244.995 73.8207 245.424 73.5983 245.807 73.399C246.206 73.1997 246.62 73.1 247.049 73.1C247.617 73.1 248.046 73.307 248.337 73.721L250.407 76.274C249.671 77.1173 248.874 77.8073 248.015 78.344C247.172 78.8653 246.298 79.2793 245.393 79.586C244.504 79.8773 243.607 80.0767 242.702 80.184C241.813 80.3067 240.962 80.368 240.149 80.368C238.478 80.368 236.906 80.0997 235.434 79.563C233.978 79.011 232.697 78.1983 231.593 77.125C230.505 76.0517 229.638 74.7177 228.994 73.123C228.366 71.5283 228.051 69.673 228.051 67.557C228.051 65.9623 228.32 64.452 228.856 63.026C229.408 61.6 230.19 60.3503 231.202 59.277C232.23 58.2037 233.464 57.3527 234.905 56.724C236.362 56.0953 238.003 55.781 239.827 55.781ZM239.965 60.703C238.601 60.703 237.535 61.094 236.768 61.876C236.002 62.6427 235.496 63.7543 235.25 65.211H244.151C244.151 64.6437 244.075 64.0917 243.921 63.555C243.783 63.0183 243.546 62.543 243.208 62.129C242.886 61.6997 242.457 61.3547 241.92 61.094C241.384 60.8333 240.732 60.703 239.965 60.703ZM258.948 67.672L251.266 56.149H258.12C258.626 56.149 258.994 56.218 259.224 56.356C259.47 56.4787 259.684 56.6933 259.868 57L264.123 64.061C264.215 63.785 264.33 63.5167 264.468 63.256C264.606 62.9953 264.76 62.7193 264.928 62.428L267.964 57.115C268.164 56.7623 268.386 56.517 268.631 56.379C268.877 56.2257 269.176 56.149 269.528 56.149H276.06L268.378 67.35L276.382 80H269.528C269.022 80 268.616 79.8773 268.309 79.632C268.003 79.3867 267.75 79.0953 267.55 78.758L263.295 71.444C263.219 71.7047 263.127 71.95 263.019 72.18C262.912 72.41 262.797 72.6247 262.674 72.824L259.178 78.758C258.994 79.08 258.749 79.3713 258.442 79.632C258.136 79.8773 257.752 80 257.292 80H250.944L258.948 67.672ZM277.728 49.548C278.295 49.0727 278.908 48.628 279.568 48.214C280.242 47.8 280.963 47.4397 281.73 47.133C282.496 46.811 283.317 46.5657 284.191 46.397C285.08 46.213 286.038 46.121 287.066 46.121C288.507 46.121 289.803 46.3127 290.953 46.696C292.118 47.0793 293.107 47.6313 293.92 48.352C294.732 49.0573 295.353 49.916 295.783 50.928C296.227 51.9247 296.45 53.0363 296.45 54.263C296.45 55.4437 296.289 56.4557 295.967 57.299C295.645 58.1423 295.231 58.8783 294.725 59.507C294.234 60.1357 293.69 60.68 293.092 61.14C292.509 61.5847 291.949 62.0063 291.413 62.405C290.891 62.8037 290.431 63.1947 290.033 63.578C289.649 63.9613 289.412 64.3907 289.32 64.866L288.676 68.086H283.8L283.294 64.383C283.278 64.291 283.263 64.199 283.248 64.107C283.248 64.015 283.248 63.923 283.248 63.831C283.248 63.1563 283.409 62.566 283.731 62.06C284.053 61.554 284.459 61.094 284.95 60.68C285.44 60.2507 285.969 59.8443 286.537 59.461C287.104 59.0623 287.633 58.6407 288.124 58.196C288.614 57.736 289.021 57.23 289.343 56.678C289.665 56.1107 289.826 55.4437 289.826 54.677C289.826 53.757 289.519 53.0287 288.906 52.492C288.308 51.94 287.48 51.664 286.422 51.664C285.609 51.664 284.927 51.7483 284.375 51.917C283.838 52.0857 283.37 52.2773 282.972 52.492C282.588 52.6913 282.251 52.8753 281.96 53.044C281.668 53.2127 281.377 53.297 281.086 53.297C280.426 53.297 279.936 53.0133 279.614 52.446L277.728 49.548ZM281.96 76.389C281.96 75.837 282.059 75.3233 282.259 74.848C282.473 74.3727 282.757 73.9587 283.11 73.606C283.478 73.2533 283.907 72.9773 284.398 72.778C284.888 72.5633 285.425 72.456 286.008 72.456C286.575 72.456 287.104 72.5633 287.595 72.778C288.085 72.9773 288.515 73.2533 288.883 73.606C289.251 73.9587 289.534 74.3727 289.734 74.848C289.948 75.3233 290.056 75.837 290.056 76.389C290.056 76.941 289.948 77.4623 289.734 77.953C289.534 78.4283 289.251 78.8423 288.883 79.195C288.515 79.5477 288.085 79.8237 287.595 80.023C287.104 80.2223 286.575 80.322 286.008 80.322C285.425 80.322 284.888 80.2223 284.398 80.023C283.907 79.8237 283.478 79.5477 283.11 79.195C282.757 78.8423 282.473 78.4283 282.259 77.953C282.059 77.4623 281.96 76.941 281.96 76.389Z" fill="#1E212C"/>
</g>
<defs>
<clipPath id="clip0_2234_9562">
<rect width="298" height="92" fill="white"/>
</clipPath>
</defs>
</svg>
