<svg width="325" height="21" viewBox="0 0 325 21" fill="none" xmlns="http://www.w3.org/2000/svg">
<g clip-path="url(#clip0_2913_935)">
<path d="M12.103 5.878V16H10.444V9.462C10.444 9.20067 10.458 8.91833 10.486 8.615L7.427 14.362C7.28233 14.6373 7.06067 14.775 6.762 14.775H6.496C6.19733 14.775 5.97567 14.6373 5.831 14.362L2.737 8.594C2.751 8.748 2.76267 8.89967 2.772 9.049C2.78133 9.19833 2.786 9.336 2.786 9.462V16H1.127V5.878H2.548C2.632 5.878 2.70433 5.88033 2.765 5.885C2.82567 5.88967 2.87933 5.90133 2.926 5.92C2.97733 5.93867 3.02167 5.969 3.059 6.011C3.101 6.053 3.14067 6.109 3.178 6.179L6.209 11.8C6.28833 11.9493 6.36067 12.1033 6.426 12.262C6.496 12.4207 6.56367 12.584 6.629 12.752C6.69433 12.5793 6.762 12.4137 6.832 12.255C6.902 12.0917 6.97667 11.9353 7.056 11.786L10.045 6.179C10.0823 6.109 10.122 6.053 10.164 6.011C10.206 5.969 10.2503 5.93867 10.297 5.92C10.3483 5.90133 10.4043 5.88967 10.465 5.885C10.5257 5.88033 10.598 5.878 10.682 5.878H12.103ZM17.7046 12.934C17.2053 12.9573 16.7853 13.0017 16.4446 13.067C16.104 13.1277 15.831 13.207 15.6256 13.305C15.4203 13.403 15.2733 13.5173 15.1846 13.648C15.096 13.7787 15.0516 13.921 15.0516 14.075C15.0516 14.3783 15.1403 14.5953 15.3176 14.726C15.4996 14.8567 15.7353 14.922 16.0246 14.922C16.3793 14.922 16.685 14.859 16.9416 14.733C17.203 14.6023 17.4573 14.4063 17.7046 14.145V12.934ZM13.7426 9.819C14.5686 9.063 15.5626 8.685 16.7246 8.685C17.1446 8.685 17.5203 8.755 17.8516 8.895C18.183 9.03033 18.463 9.22167 18.6916 9.469C18.9203 9.71167 19.093 10.0033 19.2096 10.344C19.331 10.6847 19.3916 11.058 19.3916 11.464V16H18.6076C18.4443 16 18.3183 15.9767 18.2296 15.93C18.141 15.8787 18.071 15.7783 18.0196 15.629L17.8656 15.111C17.6836 15.2743 17.5063 15.419 17.3336 15.545C17.161 15.6663 16.9813 15.769 16.7946 15.853C16.608 15.937 16.4073 16 16.1926 16.042C15.9826 16.0887 15.7493 16.112 15.4926 16.112C15.1893 16.112 14.9093 16.0723 14.6526 15.993C14.396 15.909 14.1743 15.7853 13.9876 15.622C13.801 15.4587 13.6563 15.2557 13.5536 15.013C13.451 14.7703 13.3996 14.488 13.3996 14.166C13.3996 13.984 13.43 13.8043 13.4906 13.627C13.5513 13.445 13.6493 13.2723 13.7846 13.109C13.9246 12.9457 14.1043 12.7917 14.3236 12.647C14.543 12.5023 14.8113 12.3763 15.1286 12.269C15.4506 12.1617 15.824 12.0753 16.2486 12.01C16.6733 11.94 17.1586 11.898 17.7046 11.884V11.464C17.7046 10.9833 17.602 10.6287 17.3966 10.4C17.1913 10.1667 16.895 10.05 16.5076 10.05C16.2276 10.05 15.9943 10.0827 15.8076 10.148C15.6256 10.2133 15.4646 10.288 15.3246 10.372C15.1846 10.4513 15.0563 10.5237 14.9396 10.589C14.8276 10.6543 14.7016 10.687 14.5616 10.687C14.4403 10.687 14.3376 10.6567 14.2536 10.596C14.1696 10.5307 14.102 10.456 14.0506 10.372L13.7426 9.819ZM22.637 9.7C22.7817 9.55533 22.9333 9.42233 23.092 9.301C23.2553 9.175 23.4257 9.07 23.603 8.986C23.785 8.89733 23.9787 8.82967 24.184 8.783C24.3893 8.73167 24.6133 8.706 24.856 8.706C25.248 8.706 25.5957 8.77367 25.899 8.909C26.2023 9.03967 26.4543 9.22633 26.655 9.469C26.8603 9.707 27.0143 9.994 27.117 10.33C27.2243 10.6613 27.278 11.0277 27.278 11.429V16H25.549V11.429C25.549 10.9903 25.4487 10.652 25.248 10.414C25.0473 10.1713 24.7417 10.05 24.331 10.05C24.0323 10.05 23.7523 10.1177 23.491 10.253C23.2297 10.3883 22.9823 10.5727 22.749 10.806V16H21.02V8.818H22.077C22.301 8.818 22.448 8.923 22.518 9.133L22.637 9.7ZM32.7164 12.934C32.217 12.9573 31.797 13.0017 31.4564 13.067C31.1157 13.1277 30.8427 13.207 30.6374 13.305C30.432 13.403 30.285 13.5173 30.1964 13.648C30.1077 13.7787 30.0634 13.921 30.0634 14.075C30.0634 14.3783 30.152 14.5953 30.3294 14.726C30.5114 14.8567 30.747 14.922 31.0364 14.922C31.391 14.922 31.6967 14.859 31.9534 14.733C32.2147 14.6023 32.469 14.4063 32.7164 14.145V12.934ZM28.7544 9.819C29.5804 9.063 30.5744 8.685 31.7364 8.685C32.1564 8.685 32.532 8.755 32.8634 8.895C33.1947 9.03033 33.4747 9.22167 33.7034 9.469C33.932 9.71167 34.1047 10.0033 34.2214 10.344C34.3427 10.6847 34.4034 11.058 34.4034 11.464V16H33.6194C33.456 16 33.33 15.9767 33.2414 15.93C33.1527 15.8787 33.0827 15.7783 33.0314 15.629L32.8774 15.111C32.6954 15.2743 32.518 15.419 32.3454 15.545C32.1727 15.6663 31.993 15.769 31.8064 15.853C31.6197 15.937 31.419 16 31.2044 16.042C30.9944 16.0887 30.761 16.112 30.5044 16.112C30.201 16.112 29.921 16.0723 29.6644 15.993C29.4077 15.909 29.186 15.7853 28.9994 15.622C28.8127 15.4587 28.668 15.2557 28.5654 15.013C28.4627 14.7703 28.4114 14.488 28.4114 14.166C28.4114 13.984 28.4417 13.8043 28.5024 13.627C28.563 13.445 28.661 13.2723 28.7964 13.109C28.9364 12.9457 29.116 12.7917 29.3354 12.647C29.5547 12.5023 29.823 12.3763 30.1404 12.269C30.4624 12.1617 30.8357 12.0753 31.2604 12.01C31.685 11.94 32.1704 11.898 32.7164 11.884V11.464C32.7164 10.9833 32.6137 10.6287 32.4084 10.4C32.203 10.1667 31.9067 10.05 31.5194 10.05C31.2394 10.05 31.006 10.0827 30.8194 10.148C30.6374 10.2133 30.4764 10.288 30.3364 10.372C30.1964 10.4513 30.068 10.5237 29.9514 10.589C29.8394 10.6543 29.7134 10.687 29.5734 10.687C29.452 10.687 29.3494 10.6567 29.2654 10.596C29.1814 10.5307 29.1137 10.456 29.0624 10.372L28.7544 9.819ZM38.6567 12.234C38.8714 12.234 39.0581 12.206 39.2167 12.15C39.3754 12.0893 39.5061 12.0077 39.6087 11.905C39.7161 11.8023 39.7954 11.6787 39.8467 11.534C39.9027 11.3893 39.9307 11.2307 39.9307 11.058C39.9307 10.7033 39.8234 10.4233 39.6087 10.218C39.3987 10.008 39.0814 9.903 38.6567 9.903C38.2321 9.903 37.9124 10.008 37.6977 10.218C37.4877 10.4233 37.3827 10.7033 37.3827 11.058C37.3827 11.226 37.4084 11.3823 37.4597 11.527C37.5157 11.6717 37.5951 11.7977 37.6977 11.905C37.8051 12.0077 37.9381 12.0893 38.0967 12.15C38.2601 12.206 38.4467 12.234 38.6567 12.234ZM40.6097 16.322C40.6097 16.182 40.5677 16.0677 40.4837 15.979C40.3997 15.8903 40.2854 15.8227 40.1407 15.776C39.9961 15.7247 39.8257 15.6873 39.6297 15.664C39.4384 15.6407 39.2331 15.6243 39.0137 15.615C38.7991 15.601 38.5751 15.5893 38.3417 15.58C38.1131 15.5707 37.8891 15.552 37.6697 15.524C37.4784 15.6313 37.3221 15.7573 37.2007 15.902C37.0841 16.0467 37.0257 16.2147 37.0257 16.406C37.0257 16.532 37.0561 16.6487 37.1167 16.756C37.1821 16.868 37.2824 16.9637 37.4177 17.043C37.5577 17.1223 37.7374 17.183 37.9567 17.225C38.1761 17.2717 38.4444 17.295 38.7617 17.295C39.0837 17.295 39.3614 17.2693 39.5947 17.218C39.8281 17.1713 40.0194 17.1037 40.1687 17.015C40.3227 16.931 40.4347 16.8283 40.5047 16.707C40.5747 16.5903 40.6097 16.462 40.6097 16.322ZM42.3317 9.063V9.707C42.3317 9.91233 42.2081 10.0383 41.9607 10.085L41.3167 10.204C41.4147 10.4513 41.4637 10.722 41.4637 11.016C41.4637 11.3707 41.3914 11.6927 41.2467 11.982C41.1067 12.2667 40.9107 12.5093 40.6587 12.71C40.4067 12.9107 40.1081 13.067 39.7627 13.179C39.4221 13.2863 39.0534 13.34 38.6567 13.34C38.5167 13.34 38.3814 13.333 38.2507 13.319C38.1201 13.305 37.9917 13.2863 37.8657 13.263C37.6417 13.3983 37.5297 13.55 37.5297 13.718C37.5297 13.8627 37.5951 13.97 37.7257 14.04C37.8611 14.1053 38.0384 14.152 38.2577 14.18C38.4771 14.208 38.7267 14.2267 39.0067 14.236C39.2867 14.2407 39.5737 14.2547 39.8677 14.278C40.1617 14.3013 40.4487 14.3433 40.7287 14.404C41.0087 14.46 41.2584 14.551 41.4777 14.677C41.6971 14.803 41.8721 14.9757 42.0027 15.195C42.1381 15.4097 42.2057 15.6873 42.2057 16.028C42.2057 16.3453 42.1264 16.6533 41.9677 16.952C41.8137 17.2507 41.5874 17.5167 41.2887 17.75C40.9947 17.9833 40.6307 18.17 40.1967 18.31C39.7674 18.4547 39.2774 18.527 38.7267 18.527C38.1854 18.527 37.7141 18.4733 37.3127 18.366C36.9114 18.2633 36.5777 18.1233 36.3117 17.946C36.0457 17.7733 35.8474 17.5727 35.7167 17.344C35.5861 17.1153 35.5207 16.8773 35.5207 16.63C35.5207 16.294 35.6211 16.014 35.8217 15.79C36.0271 15.5613 36.3071 15.3793 36.6617 15.244C36.4704 15.146 36.3187 15.0153 36.2067 14.852C36.0947 14.6887 36.0387 14.474 36.0387 14.208C36.0387 14.1007 36.0574 13.991 36.0947 13.879C36.1367 13.7623 36.1951 13.648 36.2697 13.536C36.3491 13.424 36.4471 13.319 36.5637 13.221C36.6804 13.1183 36.8181 13.0273 36.9767 12.948C36.6127 12.752 36.3257 12.4907 36.1157 12.164C35.9104 11.8373 35.8077 11.4547 35.8077 11.016C35.8077 10.6613 35.8777 10.3417 36.0177 10.057C36.1624 9.76767 36.3607 9.52267 36.6127 9.322C36.8694 9.11667 37.1704 8.96033 37.5157 8.853C37.8657 8.74567 38.2461 8.692 38.6567 8.692C38.9647 8.692 39.2541 8.72467 39.5247 8.79C39.7954 8.85067 40.0427 8.94167 40.2667 9.063H42.3317ZM47.9322 11.583C47.9322 11.359 47.8995 11.149 47.8342 10.953C47.7735 10.7523 47.6802 10.5773 47.5542 10.428C47.4282 10.2787 47.2672 10.162 47.0712 10.078C46.8798 9.98933 46.6558 9.945 46.3992 9.945C45.8998 9.945 45.5055 10.0873 45.2162 10.372C44.9315 10.6567 44.7495 11.0603 44.6702 11.583H47.9322ZM44.6352 12.626C44.6632 12.9947 44.7285 13.3143 44.8312 13.585C44.9338 13.851 45.0692 14.0727 45.2372 14.25C45.4052 14.4227 45.6035 14.5533 45.8322 14.642C46.0655 14.726 46.3222 14.768 46.6022 14.768C46.8822 14.768 47.1225 14.7353 47.3232 14.67C47.5285 14.6047 47.7058 14.5323 47.8552 14.453C48.0092 14.3737 48.1422 14.3013 48.2542 14.236C48.3708 14.1707 48.4828 14.138 48.5902 14.138C48.7348 14.138 48.8422 14.1917 48.9122 14.299L49.4092 14.929C49.2178 15.153 49.0032 15.342 48.7652 15.496C48.5272 15.6453 48.2775 15.7667 48.0162 15.86C47.7595 15.9487 47.4958 16.0117 47.2252 16.049C46.9592 16.0863 46.7002 16.105 46.4482 16.105C45.9488 16.105 45.4845 16.0233 45.0552 15.86C44.6258 15.692 44.2525 15.447 43.9352 15.125C43.6178 14.7983 43.3682 14.397 43.1862 13.921C43.0042 13.4403 42.9132 12.885 42.9132 12.255C42.9132 11.765 42.9925 11.3053 43.1512 10.876C43.3098 10.442 43.5362 10.0663 43.8302 9.749C44.1288 9.427 44.4905 9.17267 44.9152 8.986C45.3445 8.79933 45.8275 8.706 46.3642 8.706C46.8168 8.706 47.2345 8.77833 47.6172 8.923C47.9998 9.06767 48.3288 9.28 48.6042 9.56C48.8795 9.83533 49.0942 10.176 49.2482 10.582C49.4068 10.9833 49.4862 11.443 49.4862 11.961C49.4862 12.2223 49.4582 12.3997 49.4022 12.493C49.3462 12.5817 49.2388 12.626 49.0802 12.626H44.6352ZM50.7837 16V8.818H51.8407C52.0647 8.818 52.2117 8.923 52.2817 9.133L52.3937 9.665C52.5197 9.525 52.6504 9.39667 52.7857 9.28C52.9257 9.16333 53.0727 9.063 53.2267 8.979C53.3854 8.895 53.5534 8.82967 53.7307 8.783C53.9127 8.73167 54.111 8.706 54.3257 8.706C54.7784 8.706 55.1494 8.82967 55.4387 9.077C55.7327 9.31967 55.952 9.644 56.0967 10.05C56.2087 9.812 56.3487 9.609 56.5167 9.441C56.6847 9.26833 56.869 9.12833 57.0697 9.021C57.2704 8.91367 57.4827 8.83433 57.7067 8.783C57.9354 8.73167 58.164 8.706 58.3927 8.706C58.7894 8.706 59.1417 8.76667 59.4497 8.888C59.7577 9.00933 60.0167 9.18667 60.2267 9.42C60.4367 9.65333 60.5954 9.938 60.7027 10.274C60.8147 10.61 60.8707 10.995 60.8707 11.429V16H59.1417V11.429C59.1417 10.9717 59.0414 10.6287 58.8407 10.4C58.64 10.1667 58.346 10.05 57.9587 10.05C57.7814 10.05 57.6157 10.0803 57.4617 10.141C57.3124 10.2017 57.1794 10.2903 57.0627 10.407C56.9507 10.519 56.862 10.6613 56.7967 10.834C56.7314 11.0067 56.6987 11.205 56.6987 11.429V16H54.9627V11.429C54.9627 10.9483 54.8647 10.5983 54.6687 10.379C54.4774 10.1597 54.195 10.05 53.8217 10.05C53.5697 10.05 53.334 10.113 53.1147 10.239C52.9 10.3603 52.6994 10.5283 52.5127 10.743V16H50.7837ZM67.1412 11.583C67.1412 11.359 67.1085 11.149 67.0432 10.953C66.9825 10.7523 66.8892 10.5773 66.7632 10.428C66.6372 10.2787 66.4762 10.162 66.2802 10.078C66.0888 9.98933 65.8648 9.945 65.6082 9.945C65.1088 9.945 64.7145 10.0873 64.4252 10.372C64.1405 10.6567 63.9585 11.0603 63.8792 11.583H67.1412ZM63.8442 12.626C63.8722 12.9947 63.9375 13.3143 64.0402 13.585C64.1428 13.851 64.2782 14.0727 64.4462 14.25C64.6142 14.4227 64.8125 14.5533 65.0412 14.642C65.2745 14.726 65.5312 14.768 65.8112 14.768C66.0912 14.768 66.3315 14.7353 66.5322 14.67C66.7375 14.6047 66.9148 14.5323 67.0642 14.453C67.2182 14.3737 67.3512 14.3013 67.4632 14.236C67.5798 14.1707 67.6918 14.138 67.7992 14.138C67.9438 14.138 68.0512 14.1917 68.1212 14.299L68.6182 14.929C68.4268 15.153 68.2122 15.342 67.9742 15.496C67.7362 15.6453 67.4865 15.7667 67.2252 15.86C66.9685 15.9487 66.7048 16.0117 66.4342 16.049C66.1682 16.0863 65.9092 16.105 65.6572 16.105C65.1578 16.105 64.6935 16.0233 64.2642 15.86C63.8348 15.692 63.4615 15.447 63.1442 15.125C62.8268 14.7983 62.5772 14.397 62.3952 13.921C62.2132 13.4403 62.1222 12.885 62.1222 12.255C62.1222 11.765 62.2015 11.3053 62.3602 10.876C62.5188 10.442 62.7452 10.0663 63.0392 9.749C63.3378 9.427 63.6995 9.17267 64.1242 8.986C64.5535 8.79933 65.0365 8.706 65.5732 8.706C66.0258 8.706 66.4435 8.77833 66.8262 8.923C67.2088 9.06767 67.5378 9.28 67.8132 9.56C68.0885 9.83533 68.3032 10.176 68.4572 10.582C68.6158 10.9833 68.6952 11.443 68.6952 11.961C68.6952 12.2223 68.6672 12.3997 68.6112 12.493C68.5552 12.5817 68.4478 12.626 68.2892 12.626H63.8442ZM71.6097 9.7C71.7543 9.55533 71.906 9.42233 72.0647 9.301C72.228 9.175 72.3983 9.07 72.5757 8.986C72.7577 8.89733 72.9513 8.82967 73.1567 8.783C73.362 8.73167 73.586 8.706 73.8287 8.706C74.2207 8.706 74.5683 8.77367 74.8717 8.909C75.175 9.03967 75.427 9.22633 75.6277 9.469C75.833 9.707 75.987 9.994 76.0897 10.33C76.197 10.6613 76.2507 11.0277 76.2507 11.429V16H74.5217V11.429C74.5217 10.9903 74.4213 10.652 74.2207 10.414C74.02 10.1713 73.7143 10.05 73.3037 10.05C73.005 10.05 72.725 10.1177 72.4637 10.253C72.2023 10.3883 71.955 10.5727 71.7217 10.806V16H69.9927V8.818H71.0497C71.2737 8.818 71.4207 8.923 71.4907 9.133L71.6097 9.7ZM80.1933 16.112C79.568 16.112 79.0873 15.937 78.7513 15.587C78.42 15.2323 78.2543 14.7447 78.2543 14.124V10.113H77.5193C77.426 10.113 77.3466 10.0827 77.2813 10.022C77.216 9.96133 77.1833 9.87033 77.1833 9.749V9.063L78.3383 8.874L78.7023 6.914C78.7256 6.82067 78.77 6.74833 78.8353 6.697C78.9006 6.64567 78.9846 6.62 79.0873 6.62H79.9833V8.881H81.9013V10.113H79.9833V14.005C79.9833 14.229 80.037 14.404 80.1443 14.53C80.2563 14.656 80.408 14.719 80.5993 14.719C80.7066 14.719 80.7953 14.7073 80.8653 14.684C80.94 14.656 81.003 14.628 81.0543 14.6C81.1103 14.572 81.1593 14.5463 81.2013 14.523C81.2433 14.495 81.2853 14.481 81.3273 14.481C81.3786 14.481 81.4206 14.495 81.4533 14.523C81.486 14.5463 81.521 14.5837 81.5583 14.635L82.0763 15.475C81.8243 15.685 81.535 15.8437 81.2083 15.951C80.8816 16.0583 80.5433 16.112 80.1933 16.112Z" fill="#787A80"/>
<line x1="95.5" y1="5" x2="95.5" y2="16" stroke="#787A80" stroke-linecap="round"/>
<g clip-path="url(#clip1_2913_935)">
<path fill-rule="evenodd" clip-rule="evenodd" d="M112 3.33398C112.368 3.33398 112.667 3.63246 112.667 4.00065V4.33399L117.333 4.334V4.00065C117.333 3.63246 117.632 3.33398 118 3.33398C118.368 3.33398 118.667 3.63246 118.667 4.00065V4.334L119.5 4.33401C120.973 4.33401 122.167 5.52792 122.167 7.00067V15.0006C122.167 16.4734 120.973 17.6673 119.5 17.6673L110.5 17.6673C109.027 17.6673 107.833 16.4734 107.833 15.0007L107.833 8.50078L107.833 7.00065C107.833 5.52789 109.027 4.33398 110.5 4.33399L111.333 4.33399V4.00065C111.333 3.63246 111.632 3.33398 112 3.33398ZM111.333 5.66732L110.5 5.66732C109.764 5.66732 109.167 6.26427 109.167 7.00065V7.83398H120.833V7.00067C120.833 6.26429 120.237 5.66734 119.5 5.66734L118.667 5.66734V6.00065C118.667 6.36884 118.368 6.66732 118 6.66732C117.632 6.66732 117.333 6.36884 117.333 6.00065V5.66734L112.667 5.66733V6.00065C112.667 6.36884 112.368 6.66732 112 6.66732C111.632 6.66732 111.333 6.36884 111.333 6.00065V5.66732ZM120.833 9.16732H109.167L109.167 15.0007C109.167 15.737 109.764 16.334 110.5 16.334L119.5 16.334C120.237 16.334 120.833 15.737 120.833 15.0006V9.16732Z" fill="#787A80"/>
<path d="M137.608 12.276L136.033 8.195C135.986 8.07367 135.937 7.93367 135.886 7.775C135.835 7.61167 135.786 7.439 135.739 7.257C135.641 7.635 135.541 7.95 135.438 8.202L133.863 12.276H137.608ZM140.436 16H139.386C139.265 16 139.167 15.9697 139.092 15.909C139.017 15.8483 138.961 15.7713 138.924 15.678L137.986 13.256H133.485L132.547 15.678C132.519 15.762 132.465 15.8367 132.386 15.902C132.307 15.9673 132.209 16 132.092 16H131.042L135.053 5.969H136.425L140.436 16ZM147.115 8.909V16H146.373C146.196 16 146.084 15.9137 146.037 15.741L145.939 14.978C145.631 15.3187 145.286 15.594 144.903 15.804C144.52 16.0093 144.082 16.112 143.587 16.112C143.2 16.112 142.857 16.049 142.558 15.923C142.264 15.7923 142.017 15.6103 141.816 15.377C141.615 15.1437 141.464 14.8613 141.361 14.53C141.263 14.1987 141.214 13.8323 141.214 13.431V8.909H142.46V13.431C142.46 13.9677 142.581 14.383 142.824 14.677C143.071 14.971 143.447 15.118 143.951 15.118C144.32 15.118 144.663 15.0317 144.98 14.859C145.302 14.6817 145.598 14.439 145.869 14.131V8.909H147.115ZM151.562 12.535C151.814 12.535 152.035 12.5 152.227 12.43C152.418 12.36 152.579 12.262 152.71 12.136C152.84 12.01 152.938 11.8607 153.004 11.688C153.069 11.5107 153.102 11.317 153.102 11.107C153.102 10.673 152.969 10.3277 152.703 10.071C152.441 9.81433 152.061 9.686 151.562 9.686C151.058 9.686 150.673 9.81433 150.407 10.071C150.145 10.3277 150.015 10.673 150.015 11.107C150.015 11.317 150.047 11.5107 150.113 11.688C150.183 11.8607 150.283 12.01 150.414 12.136C150.544 12.262 150.705 12.36 150.897 12.43C151.088 12.5 151.31 12.535 151.562 12.535ZM153.809 16.385C153.809 16.2123 153.76 16.0723 153.662 15.965C153.564 15.8577 153.431 15.7737 153.263 15.713C153.099 15.6523 152.908 15.6103 152.689 15.587C152.469 15.559 152.236 15.538 151.989 15.524C151.746 15.51 151.499 15.496 151.247 15.482C150.995 15.468 150.752 15.4447 150.519 15.412C150.257 15.5333 150.043 15.6873 149.875 15.874C149.711 16.056 149.63 16.2707 149.63 16.518C149.63 16.6767 149.669 16.8237 149.749 16.959C149.833 17.099 149.959 17.218 150.127 17.316C150.295 17.4187 150.505 17.498 150.757 17.554C151.013 17.6147 151.314 17.645 151.66 17.645C151.996 17.645 152.297 17.6147 152.563 17.554C152.829 17.4933 153.053 17.407 153.235 17.295C153.421 17.183 153.564 17.05 153.662 16.896C153.76 16.742 153.809 16.5717 153.809 16.385ZM155.076 9.189V9.651C155.076 9.805 154.978 9.903 154.782 9.945L153.977 10.05C154.135 10.358 154.215 10.6987 154.215 11.072C154.215 11.4173 154.147 11.7323 154.012 12.017C153.881 12.297 153.699 12.5373 153.466 12.738C153.232 12.9387 152.952 13.0927 152.626 13.2C152.299 13.3073 151.944 13.361 151.562 13.361C151.23 13.361 150.918 13.3213 150.624 13.242C150.474 13.3353 150.36 13.4357 150.281 13.543C150.201 13.6457 150.162 13.7507 150.162 13.858C150.162 14.026 150.229 14.1543 150.365 14.243C150.505 14.327 150.687 14.3877 150.911 14.425C151.135 14.4623 151.389 14.4857 151.674 14.495C151.963 14.5043 152.257 14.5207 152.556 14.544C152.859 14.5627 153.153 14.5977 153.438 14.649C153.727 14.7003 153.984 14.7843 154.208 14.901C154.432 15.0177 154.611 15.1787 154.747 15.384C154.887 15.5893 154.957 15.8553 154.957 16.182C154.957 16.4853 154.88 16.7793 154.726 17.064C154.576 17.3487 154.359 17.6007 154.075 17.82C153.79 18.044 153.44 18.2213 153.025 18.352C152.614 18.4873 152.15 18.555 151.632 18.555C151.114 18.555 150.661 18.5037 150.274 18.401C149.886 18.2983 149.564 18.1607 149.308 17.988C149.051 17.8153 148.857 17.6147 148.727 17.386C148.601 17.162 148.538 16.9263 148.538 16.679C148.538 16.329 148.647 16.0327 148.867 15.79C149.086 15.5473 149.387 15.3537 149.77 15.209C149.56 15.1157 149.392 14.992 149.266 14.838C149.144 14.6793 149.084 14.467 149.084 14.201C149.084 14.0983 149.102 13.9933 149.14 13.886C149.177 13.774 149.233 13.6643 149.308 13.557C149.387 13.445 149.483 13.34 149.595 13.242C149.707 13.144 149.837 13.0577 149.987 12.983C149.637 12.787 149.364 12.528 149.168 12.206C148.972 11.8793 148.874 11.5013 148.874 11.072C148.874 10.7267 148.939 10.414 149.07 10.134C149.205 9.84933 149.392 9.609 149.63 9.413C149.868 9.21233 150.15 9.05833 150.477 8.951C150.808 8.84367 151.17 8.79 151.562 8.79C151.87 8.79 152.157 8.825 152.423 8.895C152.689 8.96033 152.931 9.05833 153.151 9.189H155.076ZM162.195 8.909V16H161.453C161.276 16 161.164 15.9137 161.117 15.741L161.019 14.978C160.711 15.3187 160.366 15.594 159.983 15.804C159.6 16.0093 159.162 16.112 158.667 16.112C158.28 16.112 157.937 16.049 157.638 15.923C157.344 15.7923 157.097 15.6103 156.896 15.377C156.695 15.1437 156.544 14.8613 156.441 14.53C156.343 14.1987 156.294 13.8323 156.294 13.431V8.909H157.54V13.431C157.54 13.9677 157.661 14.383 157.904 14.677C158.151 14.971 158.527 15.118 159.031 15.118C159.4 15.118 159.743 15.0317 160.06 14.859C160.382 14.6817 160.678 14.439 160.949 14.131V8.909H162.195ZM168.301 10.078C168.245 10.1807 168.158 10.232 168.042 10.232C167.972 10.232 167.892 10.2063 167.804 10.155C167.715 10.1037 167.605 10.0477 167.475 9.987C167.349 9.92167 167.197 9.86333 167.02 9.812C166.842 9.756 166.632 9.728 166.39 9.728C166.18 9.728 165.991 9.756 165.823 9.812C165.655 9.86333 165.51 9.93567 165.389 10.029C165.272 10.1223 165.181 10.232 165.116 10.358C165.055 10.4793 165.025 10.6123 165.025 10.757C165.025 10.939 165.076 11.0907 165.179 11.212C165.286 11.3333 165.426 11.4383 165.599 11.527C165.771 11.6157 165.967 11.695 166.187 11.765C166.406 11.8303 166.63 11.9027 166.859 11.982C167.092 12.0567 167.318 12.1407 167.538 12.234C167.757 12.3273 167.953 12.444 168.126 12.584C168.298 12.724 168.436 12.8967 168.539 13.102C168.646 13.3027 168.7 13.5453 168.7 13.83C168.7 14.1567 168.641 14.46 168.525 14.74C168.408 15.0153 168.235 15.2557 168.007 15.461C167.778 15.6617 167.498 15.8203 167.167 15.937C166.835 16.0537 166.453 16.112 166.019 16.112C165.524 16.112 165.076 16.0327 164.675 15.874C164.273 15.7107 163.933 15.503 163.653 15.251L163.947 14.775C163.984 14.7143 164.028 14.6677 164.08 14.635C164.131 14.6023 164.196 14.586 164.276 14.586C164.36 14.586 164.448 14.6187 164.542 14.684C164.635 14.7493 164.747 14.8217 164.878 14.901C165.013 14.9803 165.176 15.0527 165.368 15.118C165.559 15.1833 165.797 15.216 166.082 15.216C166.324 15.216 166.537 15.1857 166.719 15.125C166.901 15.0597 167.052 14.9733 167.174 14.866C167.295 14.7587 167.384 14.635 167.44 14.495C167.5 14.355 167.531 14.2057 167.531 14.047C167.531 13.851 167.477 13.69 167.37 13.564C167.267 13.4333 167.129 13.3237 166.957 13.235C166.784 13.1417 166.586 13.0623 166.362 12.997C166.142 12.927 165.916 12.8547 165.683 12.78C165.454 12.7053 165.228 12.6213 165.004 12.528C164.784 12.43 164.588 12.3087 164.416 12.164C164.243 12.0193 164.103 11.842 163.996 11.632C163.893 11.4173 163.842 11.1583 163.842 10.855C163.842 10.5843 163.898 10.3253 164.01 10.078C164.122 9.826 164.285 9.60667 164.5 9.42C164.714 9.22867 164.978 9.077 165.291 8.965C165.603 8.853 165.96 8.797 166.362 8.797C166.828 8.797 167.246 8.87167 167.615 9.021C167.988 9.16567 168.31 9.36633 168.581 9.623L168.301 10.078ZM172.404 16.112C171.844 16.112 171.413 15.9557 171.109 15.643C170.811 15.3303 170.661 14.88 170.661 14.292V9.952H169.807C169.733 9.952 169.67 9.931 169.618 9.889C169.567 9.84233 169.541 9.77233 169.541 9.679V9.182L170.703 9.035L170.99 6.844C171.004 6.774 171.035 6.718 171.081 6.676C171.133 6.62933 171.198 6.606 171.277 6.606H171.907V9.049H173.958V9.952H171.907V14.208C171.907 14.5067 171.98 14.7283 172.124 14.873C172.269 15.0177 172.456 15.09 172.684 15.09C172.815 15.09 172.927 15.0737 173.02 15.041C173.118 15.0037 173.202 14.964 173.272 14.922C173.342 14.88 173.401 14.8427 173.447 14.81C173.499 14.7727 173.543 14.754 173.58 14.754C173.646 14.754 173.704 14.7937 173.755 14.873L174.119 15.468C173.905 15.6687 173.646 15.8273 173.342 15.944C173.039 16.056 172.726 16.112 172.404 16.112ZM184.749 14.817C184.884 14.817 184.992 14.8567 185.071 14.936C185.15 15.0153 185.19 15.118 185.19 15.244V16H178.498V15.573C178.498 15.4843 178.517 15.3933 178.554 15.3C178.591 15.2067 178.65 15.1203 178.729 15.041L181.942 11.814C182.208 11.5433 182.451 11.2843 182.67 11.037C182.889 10.785 183.076 10.533 183.23 10.281C183.384 10.029 183.503 9.77467 183.587 9.518C183.671 9.25667 183.713 8.979 183.713 8.685C183.713 8.391 183.666 8.13433 183.573 7.915C183.48 7.691 183.351 7.50667 183.188 7.362C183.029 7.21733 182.84 7.11 182.621 7.04C182.402 6.96533 182.166 6.928 181.914 6.928C181.657 6.928 181.422 6.96533 181.207 7.04C180.992 7.11467 180.801 7.21967 180.633 7.355C180.47 7.48567 180.332 7.642 180.22 7.824C180.108 8.006 180.029 8.20667 179.982 8.426C179.926 8.58933 179.849 8.699 179.751 8.755C179.658 8.80633 179.525 8.82033 179.352 8.797L178.701 8.685C178.766 8.22767 178.892 7.824 179.079 7.474C179.27 7.11933 179.508 6.823 179.793 6.585C180.082 6.347 180.411 6.16733 180.78 6.046C181.149 5.92 181.548 5.857 181.977 5.857C182.402 5.857 182.798 5.92 183.167 6.046C183.536 6.172 183.855 6.35633 184.126 6.599C184.397 6.837 184.609 7.12867 184.763 7.474C184.917 7.81933 184.994 8.21133 184.994 8.65C184.994 9.02333 184.938 9.371 184.826 9.693C184.714 10.0103 184.562 10.3137 184.371 10.603C184.18 10.8923 183.958 11.1747 183.706 11.45C183.459 11.7253 183.195 12.003 182.915 12.283L180.269 14.985C180.456 14.9337 180.645 14.894 180.836 14.866C181.027 14.8333 181.212 14.817 181.389 14.817H184.749ZM188.495 9.756C189.018 9.644 189.498 9.588 189.937 9.588C190.46 9.588 190.922 9.665 191.323 9.819C191.724 9.973 192.058 10.1853 192.324 10.456C192.595 10.7267 192.798 11.0463 192.933 11.415C193.073 11.7837 193.143 12.185 193.143 12.619C193.143 13.151 193.05 13.6317 192.863 14.061C192.681 14.4903 192.427 14.859 192.1 15.167C191.778 15.4703 191.398 15.7037 190.959 15.867C190.52 16.0303 190.047 16.112 189.538 16.112C189.244 16.112 188.962 16.0817 188.691 16.021C188.42 15.965 188.166 15.888 187.928 15.79C187.695 15.692 187.478 15.58 187.277 15.454C187.076 15.328 186.899 15.195 186.745 15.055L187.13 14.523C187.214 14.4017 187.324 14.341 187.459 14.341C187.552 14.341 187.657 14.3783 187.774 14.453C187.891 14.523 188.033 14.6023 188.201 14.691C188.369 14.7797 188.565 14.8613 188.789 14.936C189.018 15.006 189.288 15.041 189.601 15.041C189.951 15.041 190.266 14.985 190.546 14.873C190.826 14.761 191.066 14.6023 191.267 14.397C191.468 14.187 191.622 13.9373 191.729 13.648C191.836 13.3587 191.89 13.0343 191.89 12.675C191.89 12.3623 191.843 12.08 191.75 11.828C191.661 11.576 191.524 11.3613 191.337 11.184C191.155 11.0067 190.926 10.869 190.651 10.771C190.376 10.673 190.054 10.624 189.685 10.624C189.433 10.624 189.169 10.645 188.894 10.687C188.623 10.729 188.346 10.7967 188.061 10.89L187.277 10.659L188.082 5.969H192.835V6.515C192.835 6.69233 192.779 6.83933 192.667 6.956C192.56 7.068 192.373 7.124 192.107 7.124H188.957L188.495 9.756ZM194.992 17.694C194.955 17.6613 194.929 17.631 194.915 17.603C194.901 17.575 194.894 17.54 194.894 17.498C194.894 17.4653 194.903 17.4327 194.922 17.4C194.945 17.3673 194.971 17.337 194.999 17.309C195.046 17.2577 195.104 17.19 195.174 17.106C195.249 17.022 195.323 16.9217 195.398 16.805C195.473 16.693 195.54 16.567 195.601 16.427C195.666 16.2917 195.713 16.147 195.741 15.993C195.727 15.9977 195.711 16 195.692 16C195.678 16 195.664 16 195.65 16C195.407 16 195.209 15.9207 195.055 15.762C194.906 15.5987 194.831 15.391 194.831 15.139C194.831 14.9197 194.906 14.733 195.055 14.579C195.209 14.425 195.412 14.348 195.664 14.348C195.804 14.348 195.928 14.3737 196.035 14.425C196.142 14.4763 196.231 14.5487 196.301 14.642C196.376 14.7307 196.432 14.8357 196.469 14.957C196.506 15.0737 196.525 15.202 196.525 15.342C196.525 15.552 196.495 15.7713 196.434 16C196.378 16.224 196.292 16.4457 196.175 16.665C196.063 16.889 195.925 17.106 195.762 17.316C195.599 17.526 195.412 17.7197 195.202 17.897L194.992 17.694ZM207.745 14.817C207.88 14.817 207.988 14.8567 208.067 14.936C208.146 15.0153 208.186 15.118 208.186 15.244V16H201.494V15.573C201.494 15.4843 201.513 15.3933 201.55 15.3C201.587 15.2067 201.646 15.1203 201.725 15.041L204.938 11.814C205.204 11.5433 205.447 11.2843 205.666 11.037C205.885 10.785 206.072 10.533 206.226 10.281C206.38 10.029 206.499 9.77467 206.583 9.518C206.667 9.25667 206.709 8.979 206.709 8.685C206.709 8.391 206.662 8.13433 206.569 7.915C206.476 7.691 206.347 7.50667 206.184 7.362C206.025 7.21733 205.836 7.11 205.617 7.04C205.398 6.96533 205.162 6.928 204.91 6.928C204.653 6.928 204.418 6.96533 204.203 7.04C203.988 7.11467 203.797 7.21967 203.629 7.355C203.466 7.48567 203.328 7.642 203.216 7.824C203.104 8.006 203.025 8.20667 202.978 8.426C202.922 8.58933 202.845 8.699 202.747 8.755C202.654 8.80633 202.521 8.82033 202.348 8.797L201.697 8.685C201.762 8.22767 201.888 7.824 202.075 7.474C202.266 7.11933 202.504 6.823 202.789 6.585C203.078 6.347 203.407 6.16733 203.776 6.046C204.145 5.92 204.544 5.857 204.973 5.857C205.398 5.857 205.794 5.92 206.163 6.046C206.532 6.172 206.851 6.35633 207.122 6.599C207.393 6.837 207.605 7.12867 207.759 7.474C207.913 7.81933 207.99 8.21133 207.99 8.65C207.99 9.02333 207.934 9.371 207.822 9.693C207.71 10.0103 207.558 10.3137 207.367 10.603C207.176 10.8923 206.954 11.1747 206.702 11.45C206.455 11.7253 206.191 12.003 205.911 12.283L203.265 14.985C203.452 14.9337 203.641 14.894 203.832 14.866C204.023 14.8333 204.208 14.817 204.385 14.817H207.745ZM216.657 10.988C216.657 11.8653 216.561 12.626 216.37 13.27C216.183 13.9093 215.927 14.439 215.6 14.859C215.273 15.279 214.886 15.5917 214.438 15.797C213.995 16.0023 213.519 16.105 213.01 16.105C212.497 16.105 212.018 16.0023 211.575 15.797C211.136 15.5917 210.754 15.279 210.427 14.859C210.1 14.439 209.844 13.9093 209.657 13.27C209.47 12.626 209.377 11.8653 209.377 10.988C209.377 10.1107 209.47 9.35 209.657 8.706C209.844 8.062 210.1 7.53 210.427 7.11C210.754 6.68533 211.136 6.37033 211.575 6.165C212.018 5.95967 212.497 5.857 213.01 5.857C213.519 5.857 213.995 5.95967 214.438 6.165C214.886 6.37033 215.273 6.68533 215.6 7.11C215.927 7.53 216.183 8.062 216.37 8.706C216.561 9.35 216.657 10.1107 216.657 10.988ZM215.362 10.988C215.362 10.2227 215.297 9.581 215.166 9.063C215.04 8.54033 214.867 8.12033 214.648 7.803C214.433 7.48567 214.184 7.25933 213.899 7.124C213.614 6.984 213.318 6.914 213.01 6.914C212.702 6.914 212.406 6.984 212.121 7.124C211.836 7.25933 211.587 7.48567 211.372 7.803C211.157 8.12033 210.985 8.54033 210.854 9.063C210.728 9.581 210.665 10.2227 210.665 10.988C210.665 11.7533 210.728 12.395 210.854 12.913C210.985 13.431 211.157 13.8487 211.372 14.166C211.587 14.4833 211.836 14.712 212.121 14.852C212.406 14.9873 212.702 15.055 213.01 15.055C213.318 15.055 213.614 14.9873 213.899 14.852C214.184 14.712 214.433 14.4833 214.648 14.166C214.867 13.8487 215.04 13.431 215.166 12.913C215.297 12.395 215.362 11.7533 215.362 10.988ZM223.987 14.817C224.122 14.817 224.23 14.8567 224.309 14.936C224.388 15.0153 224.428 15.118 224.428 15.244V16H217.736V15.573C217.736 15.4843 217.755 15.3933 217.792 15.3C217.829 15.2067 217.888 15.1203 217.967 15.041L221.18 11.814C221.446 11.5433 221.689 11.2843 221.908 11.037C222.127 10.785 222.314 10.533 222.468 10.281C222.622 10.029 222.741 9.77467 222.825 9.518C222.909 9.25667 222.951 8.979 222.951 8.685C222.951 8.391 222.904 8.13433 222.811 7.915C222.718 7.691 222.589 7.50667 222.426 7.362C222.267 7.21733 222.078 7.11 221.859 7.04C221.64 6.96533 221.404 6.928 221.152 6.928C220.895 6.928 220.66 6.96533 220.445 7.04C220.23 7.11467 220.039 7.21967 219.871 7.355C219.708 7.48567 219.57 7.642 219.458 7.824C219.346 8.006 219.267 8.20667 219.22 8.426C219.164 8.58933 219.087 8.699 218.989 8.755C218.896 8.80633 218.763 8.82033 218.59 8.797L217.939 8.685C218.004 8.22767 218.13 7.824 218.317 7.474C218.508 7.11933 218.746 6.823 219.031 6.585C219.32 6.347 219.649 6.16733 220.018 6.046C220.387 5.92 220.786 5.857 221.215 5.857C221.64 5.857 222.036 5.92 222.405 6.046C222.774 6.172 223.093 6.35633 223.364 6.599C223.635 6.837 223.847 7.12867 224.001 7.474C224.155 7.81933 224.232 8.21133 224.232 8.65C224.232 9.02333 224.176 9.371 224.064 9.693C223.952 10.0103 223.8 10.3137 223.609 10.603C223.418 10.8923 223.196 11.1747 222.944 11.45C222.697 11.7253 222.433 12.003 222.153 12.283L219.507 14.985C219.694 14.9337 219.883 14.894 220.074 14.866C220.265 14.8333 220.45 14.817 220.627 14.817H223.987ZM232.899 10.988C232.899 11.8653 232.804 12.626 232.612 13.27C232.426 13.9093 232.169 14.439 231.842 14.859C231.516 15.279 231.128 15.5917 230.68 15.797C230.237 16.0023 229.761 16.105 229.252 16.105C228.739 16.105 228.261 16.0023 227.817 15.797C227.379 15.5917 226.996 15.279 226.669 14.859C226.343 14.439 226.086 13.9093 225.899 13.27C225.713 12.626 225.619 11.8653 225.619 10.988C225.619 10.1107 225.713 9.35 225.899 8.706C226.086 8.062 226.343 7.53 226.669 7.11C226.996 6.68533 227.379 6.37033 227.817 6.165C228.261 5.95967 228.739 5.857 229.252 5.857C229.761 5.857 230.237 5.95967 230.68 6.165C231.128 6.37033 231.516 6.68533 231.842 7.11C232.169 7.53 232.426 8.062 232.612 8.706C232.804 9.35 232.899 10.1107 232.899 10.988ZM231.604 10.988C231.604 10.2227 231.539 9.581 231.408 9.063C231.282 8.54033 231.11 8.12033 230.89 7.803C230.676 7.48567 230.426 7.25933 230.141 7.124C229.857 6.984 229.56 6.914 229.252 6.914C228.944 6.914 228.648 6.984 228.363 7.124C228.079 7.25933 227.829 7.48567 227.614 7.803C227.4 8.12033 227.227 8.54033 227.096 9.063C226.97 9.581 226.907 10.2227 226.907 10.988C226.907 11.7533 226.97 12.395 227.096 12.913C227.227 13.431 227.4 13.8487 227.614 14.166C227.829 14.4833 228.079 14.712 228.363 14.852C228.648 14.9873 228.944 15.055 229.252 15.055C229.56 15.055 229.857 14.9873 230.141 14.852C230.426 14.712 230.676 14.4833 230.89 14.166C231.11 13.8487 231.282 13.431 231.408 12.913C231.539 12.395 231.604 11.7533 231.604 10.988Z" fill="#787A80"/>
</g>
<line x1="246.5" y1="5" x2="246.5" y2="16" stroke="#787A80" stroke-linecap="round"/>
<g clip-path="url(#clip2_2913_935)">
<path d="M266.667 6.83268C266.667 6.46449 266.368 6.16602 266 6.16602C265.632 6.16602 265.333 6.46449 265.333 6.83268V10.4993C265.333 10.6762 265.403 10.8457 265.528 10.9708L267.528 12.9708C267.789 13.2311 268.211 13.2311 268.471 12.9708C268.732 12.7104 268.732 12.2883 268.471 12.0279L266.667 10.2232V6.83268Z" fill="#787A80"/>
<path fill-rule="evenodd" clip-rule="evenodd" d="M266 3.16602C261.95 3.16602 258.667 6.44926 258.667 10.4993C258.667 14.5494 261.95 17.8327 266 17.8327C270.05 17.8327 273.333 14.5494 273.333 10.4993C273.333 6.44926 270.05 3.16602 266 3.16602ZM260 10.4993C260 7.18564 262.686 4.49935 266 4.49935C269.314 4.49935 272 7.18564 272 10.4993C272 13.8131 269.314 16.4993 266 16.4993C262.686 16.4993 260 13.8131 260 10.4993Z" fill="#787A80"/>
<path d="M287.11 12.381V8.244C287.11 8.12267 287.115 7.98967 287.124 7.845C287.133 7.70033 287.147 7.55333 287.166 7.404L283.512 12.381H287.11ZM289.721 12.381V13.095C289.721 13.1697 289.698 13.2327 289.651 13.284C289.609 13.3353 289.541 13.361 289.448 13.361H288.202V16H287.11V13.361H282.658C282.565 13.361 282.483 13.3353 282.413 13.284C282.348 13.228 282.306 13.1603 282.287 13.081L282.161 12.444L287.04 5.969H288.202V12.381H289.721ZM292.655 9.756C293.178 9.644 293.658 9.588 294.097 9.588C294.62 9.588 295.082 9.665 295.483 9.819C295.884 9.973 296.218 10.1853 296.484 10.456C296.755 10.7267 296.958 11.0463 297.093 11.415C297.233 11.7837 297.303 12.185 297.303 12.619C297.303 13.151 297.21 13.6317 297.023 14.061C296.841 14.4903 296.587 14.859 296.26 15.167C295.938 15.4703 295.558 15.7037 295.119 15.867C294.68 16.0303 294.207 16.112 293.698 16.112C293.404 16.112 293.122 16.0817 292.851 16.021C292.58 15.965 292.326 15.888 292.088 15.79C291.855 15.692 291.638 15.58 291.437 15.454C291.236 15.328 291.059 15.195 290.905 15.055L291.29 14.523C291.374 14.4017 291.484 14.341 291.619 14.341C291.712 14.341 291.817 14.3783 291.934 14.453C292.051 14.523 292.193 14.6023 292.361 14.691C292.529 14.7797 292.725 14.8613 292.949 14.936C293.178 15.006 293.448 15.041 293.761 15.041C294.111 15.041 294.426 14.985 294.706 14.873C294.986 14.761 295.226 14.6023 295.427 14.397C295.628 14.187 295.782 13.9373 295.889 13.648C295.996 13.3587 296.05 13.0343 296.05 12.675C296.05 12.3623 296.003 12.08 295.91 11.828C295.821 11.576 295.684 11.3613 295.497 11.184C295.315 11.0067 295.086 10.869 294.811 10.771C294.536 10.673 294.214 10.624 293.845 10.624C293.593 10.624 293.329 10.645 293.054 10.687C292.783 10.729 292.506 10.7967 292.221 10.89L291.437 10.659L292.242 5.969H296.995V6.515C296.995 6.69233 296.939 6.83933 296.827 6.956C296.72 7.068 296.533 7.124 296.267 7.124H293.117L292.655 9.756ZM302.811 16V8.909H303.56C303.738 8.909 303.847 8.99533 303.889 9.168L303.98 9.896C304.242 9.574 304.536 9.31033 304.862 9.105C305.189 8.89967 305.567 8.797 305.996 8.797C306.472 8.797 306.857 8.93 307.151 9.196C307.45 9.462 307.665 9.82133 307.795 10.274C307.898 10.0173 308.029 9.79567 308.187 9.609C308.351 9.42233 308.533 9.26833 308.733 9.147C308.934 9.02567 309.146 8.937 309.37 8.881C309.599 8.825 309.83 8.797 310.063 8.797C310.437 8.797 310.768 8.85767 311.057 8.979C311.351 9.09567 311.599 9.26833 311.799 9.497C312.005 9.72567 312.161 10.008 312.268 10.344C312.376 10.6753 312.429 11.0557 312.429 11.485V16H311.176V11.485C311.176 10.9297 311.055 10.5097 310.812 10.225C310.57 9.93567 310.22 9.791 309.762 9.791C309.557 9.791 309.361 9.82833 309.174 9.903C308.992 9.973 308.831 10.078 308.691 10.218C308.551 10.358 308.439 10.5353 308.355 10.75C308.276 10.96 308.236 11.205 308.236 11.485V16H306.983V11.485C306.983 10.9157 306.869 10.491 306.64 10.211C306.412 9.931 306.078 9.791 305.639 9.791C305.331 9.791 305.047 9.875 304.785 10.043C304.524 10.2063 304.284 10.4303 304.064 10.715V16H302.811ZM315.639 8.909V16H314.393V8.909H315.639ZM315.905 6.683C315.905 6.80433 315.879 6.91867 315.828 7.026C315.781 7.12867 315.716 7.222 315.632 7.306C315.553 7.38533 315.457 7.44833 315.345 7.495C315.238 7.54167 315.123 7.565 315.002 7.565C314.881 7.565 314.766 7.54167 314.659 7.495C314.556 7.44833 314.465 7.38533 314.386 7.306C314.307 7.222 314.244 7.12867 314.197 7.026C314.15 6.91867 314.127 6.80433 314.127 6.683C314.127 6.56167 314.15 6.44733 314.197 6.34C314.244 6.228 314.307 6.13233 314.386 6.053C314.465 5.969 314.556 5.90367 314.659 5.857C314.766 5.81033 314.881 5.787 315.002 5.787C315.123 5.787 315.238 5.81033 315.345 5.857C315.457 5.90367 315.553 5.969 315.632 6.053C315.716 6.13233 315.781 6.228 315.828 6.34C315.879 6.44733 315.905 6.56167 315.905 6.683ZM318.862 9.938C319.016 9.76533 319.18 9.609 319.352 9.469C319.525 9.329 319.707 9.21 319.898 9.112C320.094 9.00933 320.3 8.93233 320.514 8.881C320.734 8.825 320.969 8.797 321.221 8.797C321.609 8.797 321.949 8.86233 322.243 8.993C322.542 9.119 322.789 9.301 322.985 9.539C323.186 9.77233 323.338 10.0547 323.44 10.386C323.543 10.7173 323.594 11.0837 323.594 11.485V16H322.341V11.485C322.341 10.9483 322.218 10.533 321.97 10.239C321.728 9.94033 321.357 9.791 320.857 9.791C320.489 9.791 320.143 9.87967 319.821 10.057C319.504 10.2343 319.21 10.4747 318.939 10.778V16H317.686V8.909H318.435C318.613 8.909 318.722 8.99533 318.764 9.168L318.862 9.938Z" fill="#787A80"/>
</g>
</g>
<defs>
<clipPath id="clip0_2913_935">
<rect width="325" height="21" fill="white"/>
</clipPath>
<clipPath id="clip1_2913_935">
<rect width="127" height="21" fill="white" transform="translate(107)"/>
</clipPath>
<clipPath id="clip2_2913_935">
<rect width="67" height="21" fill="white" transform="translate(258)"/>
</clipPath>
</defs>
</svg>
