<svg width="187" height="21" viewBox="0 0 187 21" fill="none" xmlns="http://www.w3.org/2000/svg">
<g clip-path="url(#clip0_2913_694)">
<path d="M10.115 10.939C10.115 11.681 9.99133 12.3623 9.744 12.983C9.49667 13.6037 9.149 14.138 8.701 14.586C8.253 15.034 7.714 15.3817 7.084 15.629C6.454 15.8763 5.754 16 4.984 16H1.127V5.878H4.984C5.754 5.878 6.454 6.004 7.084 6.256C7.714 6.50333 8.253 6.851 8.701 7.299C9.149 7.74233 9.49667 8.27433 9.744 8.895C9.99133 9.51567 10.115 10.197 10.115 10.939ZM8.183 10.939C8.183 10.3837 8.10833 9.88667 7.959 9.448C7.81433 9.00467 7.602 8.63133 7.322 8.328C7.04667 8.02 6.71067 7.78433 6.314 7.621C5.922 7.45767 5.47867 7.376 4.984 7.376H3.017V14.502H4.984C5.47867 14.502 5.922 14.4203 6.314 14.257C6.71067 14.0937 7.04667 13.8603 7.322 13.557C7.602 13.249 7.81433 12.8757 7.959 12.437C8.10833 11.9937 8.183 11.4943 8.183 10.939ZM16.0357 11.583C16.0357 11.359 16.003 11.149 15.9377 10.953C15.877 10.7523 15.7837 10.5773 15.6577 10.428C15.5317 10.2787 15.3707 10.162 15.1747 10.078C14.9834 9.98933 14.7594 9.945 14.5027 9.945C14.0034 9.945 13.609 10.0873 13.3197 10.372C13.035 10.6567 12.853 11.0603 12.7737 11.583H16.0357ZM12.7387 12.626C12.7667 12.9947 12.832 13.3143 12.9347 13.585C13.0374 13.851 13.1727 14.0727 13.3407 14.25C13.5087 14.4227 13.707 14.5533 13.9357 14.642C14.169 14.726 14.4257 14.768 14.7057 14.768C14.9857 14.768 15.226 14.7353 15.4267 14.67C15.632 14.6047 15.8094 14.5323 15.9587 14.453C16.1127 14.3737 16.2457 14.3013 16.3577 14.236C16.4744 14.1707 16.5864 14.138 16.6937 14.138C16.8384 14.138 16.9457 14.1917 17.0157 14.299L17.5127 14.929C17.3214 15.153 17.1067 15.342 16.8687 15.496C16.6307 15.6453 16.381 15.7667 16.1197 15.86C15.863 15.9487 15.5994 16.0117 15.3287 16.049C15.0627 16.0863 14.8037 16.105 14.5517 16.105C14.0524 16.105 13.588 16.0233 13.1587 15.86C12.7294 15.692 12.356 15.447 12.0387 15.125C11.7214 14.7983 11.4717 14.397 11.2897 13.921C11.1077 13.4403 11.0167 12.885 11.0167 12.255C11.0167 11.765 11.096 11.3053 11.2547 10.876C11.4134 10.442 11.6397 10.0663 11.9337 9.749C12.2324 9.427 12.594 9.17267 13.0187 8.986C13.448 8.79933 13.931 8.706 14.4677 8.706C14.9204 8.706 15.338 8.77833 15.7207 8.923C16.1034 9.06767 16.4324 9.28 16.7077 9.56C16.983 9.83533 17.1977 10.176 17.3517 10.582C17.5104 10.9833 17.5897 11.443 17.5897 11.961C17.5897 12.2223 17.5617 12.3997 17.5057 12.493C17.4497 12.5817 17.3424 12.626 17.1837 12.626H12.7387ZM23.2692 10.218C23.2225 10.2927 23.1735 10.3463 23.1222 10.379C23.0709 10.407 23.0055 10.421 22.9262 10.421C22.8422 10.421 22.7512 10.3977 22.6532 10.351C22.5599 10.3043 22.4502 10.253 22.3242 10.197C22.1982 10.1363 22.0535 10.0827 21.8902 10.036C21.7315 9.98933 21.5425 9.966 21.3232 9.966C20.9825 9.966 20.7142 10.0383 20.5182 10.183C20.3269 10.3277 20.2312 10.5167 20.2312 10.75C20.2312 10.904 20.2802 11.0347 20.3782 11.142C20.4809 11.2447 20.6139 11.3357 20.7772 11.415C20.9452 11.4943 21.1342 11.5667 21.3442 11.632C21.5542 11.6927 21.7665 11.7603 21.9812 11.835C22.2005 11.9097 22.4152 11.996 22.6252 12.094C22.8352 12.1873 23.0219 12.3087 23.1852 12.458C23.3532 12.6027 23.4862 12.7777 23.5842 12.983C23.6869 13.1883 23.7382 13.4357 23.7382 13.725C23.7382 14.0703 23.6752 14.39 23.5492 14.684C23.4279 14.9733 23.2459 15.2253 23.0032 15.44C22.7605 15.65 22.4595 15.8157 22.1002 15.937C21.7455 16.0537 21.3349 16.112 20.8682 16.112C20.6209 16.112 20.3782 16.0887 20.1402 16.042C19.9069 16 19.6805 15.9393 19.4612 15.86C19.2465 15.7807 19.0459 15.6873 18.8592 15.58C18.6772 15.4727 18.5162 15.356 18.3762 15.23L18.7752 14.572C18.8265 14.4927 18.8872 14.432 18.9572 14.39C19.0272 14.348 19.1159 14.327 19.2232 14.327C19.3305 14.327 19.4309 14.3573 19.5242 14.418C19.6222 14.4787 19.7342 14.544 19.8602 14.614C19.9862 14.684 20.1332 14.7493 20.3012 14.81C20.4739 14.8707 20.6909 14.901 20.9522 14.901C21.1575 14.901 21.3325 14.8777 21.4772 14.831C21.6265 14.7797 21.7479 14.7143 21.8412 14.635C21.9392 14.5557 22.0092 14.4647 22.0512 14.362C22.0979 14.2547 22.1212 14.145 22.1212 14.033C22.1212 13.865 22.0699 13.7273 21.9672 13.62C21.8692 13.5127 21.7362 13.4193 21.5682 13.34C21.4049 13.2607 21.2159 13.1907 21.0012 13.13C20.7912 13.0647 20.5742 12.9947 20.3502 12.92C20.1309 12.8453 19.9139 12.759 19.6992 12.661C19.4892 12.5583 19.3002 12.43 19.1322 12.276C18.9689 12.122 18.8359 11.933 18.7332 11.709C18.6352 11.485 18.5862 11.2143 18.5862 10.897C18.5862 10.603 18.6445 10.323 18.7612 10.057C18.8779 9.791 19.0482 9.56 19.2722 9.364C19.5009 9.16333 19.7832 9.00467 20.1192 8.888C20.4599 8.76667 20.8519 8.706 21.2952 8.706C21.7899 8.706 22.2402 8.78767 22.6462 8.951C23.0522 9.11433 23.3905 9.329 23.6612 9.595L23.2692 10.218ZM26.8315 8.818V16H25.0955V8.818H26.8315ZM27.0695 6.725C27.0695 6.87433 27.0392 7.01433 26.9785 7.145C26.9179 7.27567 26.8362 7.39 26.7335 7.488C26.6355 7.586 26.5189 7.66533 26.3835 7.726C26.2482 7.782 26.1035 7.81 25.9495 7.81C25.8002 7.81 25.6579 7.782 25.5225 7.726C25.3919 7.66533 25.2775 7.586 25.1795 7.488C25.0815 7.39 25.0022 7.27567 24.9415 7.145C24.8855 7.01433 24.8575 6.87433 24.8575 6.725C24.8575 6.571 24.8855 6.42633 24.9415 6.291C25.0022 6.15567 25.0815 6.039 25.1795 5.941C25.2775 5.843 25.3919 5.766 25.5225 5.71C25.6579 5.64933 25.8002 5.619 25.9495 5.619C26.1035 5.619 26.2482 5.64933 26.3835 5.71C26.5189 5.766 26.6355 5.843 26.7335 5.941C26.8362 6.039 26.9179 6.15567 26.9785 6.291C27.0392 6.42633 27.0695 6.571 27.0695 6.725ZM31.2192 12.234C31.4339 12.234 31.6206 12.206 31.7792 12.15C31.9379 12.0893 32.0686 12.0077 32.1712 11.905C32.2786 11.8023 32.3579 11.6787 32.4092 11.534C32.4652 11.3893 32.4932 11.2307 32.4932 11.058C32.4932 10.7033 32.3859 10.4233 32.1712 10.218C31.9612 10.008 31.6439 9.903 31.2192 9.903C30.7946 9.903 30.4749 10.008 30.2602 10.218C30.0502 10.4233 29.9452 10.7033 29.9452 11.058C29.9452 11.226 29.9709 11.3823 30.0222 11.527C30.0782 11.6717 30.1576 11.7977 30.2602 11.905C30.3676 12.0077 30.5006 12.0893 30.6592 12.15C30.8226 12.206 31.0092 12.234 31.2192 12.234ZM33.1722 16.322C33.1722 16.182 33.1302 16.0677 33.0462 15.979C32.9622 15.8903 32.8479 15.8227 32.7032 15.776C32.5586 15.7247 32.3882 15.6873 32.1922 15.664C32.0009 15.6407 31.7956 15.6243 31.5762 15.615C31.3616 15.601 31.1376 15.5893 30.9042 15.58C30.6756 15.5707 30.4516 15.552 30.2322 15.524C30.0409 15.6313 29.8846 15.7573 29.7632 15.902C29.6466 16.0467 29.5882 16.2147 29.5882 16.406C29.5882 16.532 29.6186 16.6487 29.6792 16.756C29.7446 16.868 29.8449 16.9637 29.9802 17.043C30.1202 17.1223 30.2999 17.183 30.5192 17.225C30.7386 17.2717 31.0069 17.295 31.3242 17.295C31.6462 17.295 31.9239 17.2693 32.1572 17.218C32.3906 17.1713 32.5819 17.1037 32.7312 17.015C32.8852 16.931 32.9972 16.8283 33.0672 16.707C33.1372 16.5903 33.1722 16.462 33.1722 16.322ZM34.8942 9.063V9.707C34.8942 9.91233 34.7706 10.0383 34.5232 10.085L33.8792 10.204C33.9772 10.4513 34.0262 10.722 34.0262 11.016C34.0262 11.3707 33.9539 11.6927 33.8092 11.982C33.6692 12.2667 33.4732 12.5093 33.2212 12.71C32.9692 12.9107 32.6706 13.067 32.3252 13.179C31.9846 13.2863 31.6159 13.34 31.2192 13.34C31.0792 13.34 30.9439 13.333 30.8132 13.319C30.6826 13.305 30.5542 13.2863 30.4282 13.263C30.2042 13.3983 30.0922 13.55 30.0922 13.718C30.0922 13.8627 30.1576 13.97 30.2882 14.04C30.4236 14.1053 30.6009 14.152 30.8202 14.18C31.0396 14.208 31.2892 14.2267 31.5692 14.236C31.8492 14.2407 32.1362 14.2547 32.4302 14.278C32.7242 14.3013 33.0112 14.3433 33.2912 14.404C33.5712 14.46 33.8209 14.551 34.0402 14.677C34.2596 14.803 34.4346 14.9757 34.5652 15.195C34.7006 15.4097 34.7682 15.6873 34.7682 16.028C34.7682 16.3453 34.6889 16.6533 34.5302 16.952C34.3762 17.2507 34.1499 17.5167 33.8512 17.75C33.5572 17.9833 33.1932 18.17 32.7592 18.31C32.3299 18.4547 31.8399 18.527 31.2892 18.527C30.7479 18.527 30.2766 18.4733 29.8752 18.366C29.4739 18.2633 29.1402 18.1233 28.8742 17.946C28.6082 17.7733 28.4099 17.5727 28.2792 17.344C28.1486 17.1153 28.0832 16.8773 28.0832 16.63C28.0832 16.294 28.1836 16.014 28.3842 15.79C28.5896 15.5613 28.8696 15.3793 29.2242 15.244C29.0329 15.146 28.8812 15.0153 28.7692 14.852C28.6572 14.6887 28.6012 14.474 28.6012 14.208C28.6012 14.1007 28.6199 13.991 28.6572 13.879C28.6992 13.7623 28.7576 13.648 28.8322 13.536C28.9116 13.424 29.0096 13.319 29.1262 13.221C29.2429 13.1183 29.3806 13.0273 29.5392 12.948C29.1752 12.752 28.8882 12.4907 28.6782 12.164C28.4729 11.8373 28.3702 11.4547 28.3702 11.016C28.3702 10.6613 28.4402 10.3417 28.5802 10.057C28.7249 9.76767 28.9232 9.52267 29.1752 9.322C29.4319 9.11667 29.7329 8.96033 30.0782 8.853C30.4282 8.74567 30.8086 8.692 31.2192 8.692C31.5272 8.692 31.8166 8.72467 32.0872 8.79C32.3579 8.85067 32.6052 8.94167 32.8292 9.063H34.8942ZM37.6077 9.7C37.7524 9.55533 37.9041 9.42233 38.0627 9.301C38.2261 9.175 38.3964 9.07 38.5737 8.986C38.7557 8.89733 38.9494 8.82967 39.1547 8.783C39.3601 8.73167 39.5841 8.706 39.8267 8.706C40.2187 8.706 40.5664 8.77367 40.8697 8.909C41.1731 9.03967 41.4251 9.22633 41.6257 9.469C41.8311 9.707 41.9851 9.994 42.0877 10.33C42.1951 10.6613 42.2487 11.0277 42.2487 11.429V16H40.5197V11.429C40.5197 10.9903 40.4194 10.652 40.2187 10.414C40.0181 10.1713 39.7124 10.05 39.3017 10.05C39.0031 10.05 38.7231 10.1177 38.4617 10.253C38.2004 10.3883 37.9531 10.5727 37.7197 10.806V16H35.9907V8.818H37.0477C37.2717 8.818 37.4187 8.923 37.4887 9.133L37.6077 9.7Z" fill="#787A80"/>
<line x1="56.5" y1="5" x2="56.5" y2="16" stroke="#787A80" stroke-linecap="round"/>
<g clip-path="url(#clip1_2913_694)">
<path fill-rule="evenodd" clip-rule="evenodd" d="M73.0002 3.33398C73.3684 3.33398 73.6668 3.63246 73.6668 4.00065V4.33399L78.3335 4.334V4.00065C78.3335 3.63246 78.632 3.33398 79.0002 3.33398C79.3684 3.33398 79.6668 3.63246 79.6668 4.00065V4.334L80.5002 4.33401C81.9729 4.33401 83.1668 5.52792 83.1668 7.00067V15.0006C83.1668 16.4734 81.9729 17.6673 80.5002 17.6673L71.5002 17.6673C70.0274 17.6673 68.8335 16.4734 68.8335 15.0007L68.8335 8.50078L68.8335 7.00065C68.8335 5.52789 70.0274 4.33398 71.5002 4.33399L72.3335 4.33399V4.00065C72.3335 3.63246 72.632 3.33398 73.0002 3.33398ZM72.3335 5.66732L71.5002 5.66732C70.7638 5.66732 70.1668 6.26427 70.1668 7.00065V7.83398H81.8335V7.00067C81.8335 6.26429 81.2365 5.66734 80.5002 5.66734L79.6668 5.66734V6.00065C79.6668 6.36884 79.3684 6.66732 79.0002 6.66732C78.632 6.66732 78.3335 6.36884 78.3335 6.00065V5.66734L73.6668 5.66733V6.00065C73.6668 6.36884 73.3684 6.66732 73.0002 6.66732C72.632 6.66732 72.3335 6.36884 72.3335 6.00065V5.66732ZM81.8335 9.16732H70.1668L70.1668 15.0007C70.1668 15.737 70.7638 16.334 71.5002 16.334L80.5002 16.334C81.2365 16.334 81.8335 15.737 81.8335 15.0006V9.16732Z" fill="#787A80"/>
<path d="M98.608 12.276L97.033 8.195C96.9863 8.07367 96.9373 7.93367 96.886 7.775C96.8347 7.61167 96.7857 7.439 96.739 7.257C96.641 7.635 96.5407 7.95 96.438 8.202L94.863 12.276H98.608ZM101.436 16H100.386C100.265 16 100.167 15.9697 100.092 15.909C100.017 15.8483 99.9613 15.7713 99.924 15.678L98.986 13.256H94.485L93.547 15.678C93.519 15.762 93.4653 15.8367 93.386 15.902C93.3067 15.9673 93.2087 16 93.092 16H92.042L96.053 5.969H97.425L101.436 16ZM108.115 8.909V16H107.373C107.196 16 107.084 15.9137 107.037 15.741L106.939 14.978C106.631 15.3187 106.286 15.594 105.903 15.804C105.52 16.0093 105.082 16.112 104.587 16.112C104.2 16.112 103.857 16.049 103.558 15.923C103.264 15.7923 103.017 15.6103 102.816 15.377C102.615 15.1437 102.464 14.8613 102.361 14.53C102.263 14.1987 102.214 13.8323 102.214 13.431V8.909H103.46V13.431C103.46 13.9677 103.581 14.383 103.824 14.677C104.071 14.971 104.447 15.118 104.951 15.118C105.32 15.118 105.663 15.0317 105.98 14.859C106.302 14.6817 106.598 14.439 106.869 14.131V8.909H108.115ZM112.562 12.535C112.814 12.535 113.035 12.5 113.227 12.43C113.418 12.36 113.579 12.262 113.71 12.136C113.84 12.01 113.938 11.8607 114.004 11.688C114.069 11.5107 114.102 11.317 114.102 11.107C114.102 10.673 113.969 10.3277 113.703 10.071C113.441 9.81433 113.061 9.686 112.562 9.686C112.058 9.686 111.673 9.81433 111.407 10.071C111.145 10.3277 111.015 10.673 111.015 11.107C111.015 11.317 111.047 11.5107 111.113 11.688C111.183 11.8607 111.283 12.01 111.414 12.136C111.544 12.262 111.705 12.36 111.897 12.43C112.088 12.5 112.31 12.535 112.562 12.535ZM114.809 16.385C114.809 16.2123 114.76 16.0723 114.662 15.965C114.564 15.8577 114.431 15.7737 114.263 15.713C114.099 15.6523 113.908 15.6103 113.689 15.587C113.469 15.559 113.236 15.538 112.989 15.524C112.746 15.51 112.499 15.496 112.247 15.482C111.995 15.468 111.752 15.4447 111.519 15.412C111.257 15.5333 111.043 15.6873 110.875 15.874C110.711 16.056 110.63 16.2707 110.63 16.518C110.63 16.6767 110.669 16.8237 110.749 16.959C110.833 17.099 110.959 17.218 111.127 17.316C111.295 17.4187 111.505 17.498 111.757 17.554C112.013 17.6147 112.314 17.645 112.66 17.645C112.996 17.645 113.297 17.6147 113.563 17.554C113.829 17.4933 114.053 17.407 114.235 17.295C114.421 17.183 114.564 17.05 114.662 16.896C114.76 16.742 114.809 16.5717 114.809 16.385ZM116.076 9.189V9.651C116.076 9.805 115.978 9.903 115.782 9.945L114.977 10.05C115.135 10.358 115.215 10.6987 115.215 11.072C115.215 11.4173 115.147 11.7323 115.012 12.017C114.881 12.297 114.699 12.5373 114.466 12.738C114.232 12.9387 113.952 13.0927 113.626 13.2C113.299 13.3073 112.944 13.361 112.562 13.361C112.23 13.361 111.918 13.3213 111.624 13.242C111.474 13.3353 111.36 13.4357 111.281 13.543C111.201 13.6457 111.162 13.7507 111.162 13.858C111.162 14.026 111.229 14.1543 111.365 14.243C111.505 14.327 111.687 14.3877 111.911 14.425C112.135 14.4623 112.389 14.4857 112.674 14.495C112.963 14.5043 113.257 14.5207 113.556 14.544C113.859 14.5627 114.153 14.5977 114.438 14.649C114.727 14.7003 114.984 14.7843 115.208 14.901C115.432 15.0177 115.611 15.1787 115.747 15.384C115.887 15.5893 115.957 15.8553 115.957 16.182C115.957 16.4853 115.88 16.7793 115.726 17.064C115.576 17.3487 115.359 17.6007 115.075 17.82C114.79 18.044 114.44 18.2213 114.025 18.352C113.614 18.4873 113.15 18.555 112.632 18.555C112.114 18.555 111.661 18.5037 111.274 18.401C110.886 18.2983 110.564 18.1607 110.308 17.988C110.051 17.8153 109.857 17.6147 109.727 17.386C109.601 17.162 109.538 16.9263 109.538 16.679C109.538 16.329 109.647 16.0327 109.867 15.79C110.086 15.5473 110.387 15.3537 110.77 15.209C110.56 15.1157 110.392 14.992 110.266 14.838C110.144 14.6793 110.084 14.467 110.084 14.201C110.084 14.0983 110.102 13.9933 110.14 13.886C110.177 13.774 110.233 13.6643 110.308 13.557C110.387 13.445 110.483 13.34 110.595 13.242C110.707 13.144 110.837 13.0577 110.987 12.983C110.637 12.787 110.364 12.528 110.168 12.206C109.972 11.8793 109.874 11.5013 109.874 11.072C109.874 10.7267 109.939 10.414 110.07 10.134C110.205 9.84933 110.392 9.609 110.63 9.413C110.868 9.21233 111.15 9.05833 111.477 8.951C111.808 8.84367 112.17 8.79 112.562 8.79C112.87 8.79 113.157 8.825 113.423 8.895C113.689 8.96033 113.931 9.05833 114.151 9.189H116.076ZM123.195 8.909V16H122.453C122.276 16 122.164 15.9137 122.117 15.741L122.019 14.978C121.711 15.3187 121.366 15.594 120.983 15.804C120.6 16.0093 120.162 16.112 119.667 16.112C119.28 16.112 118.937 16.049 118.638 15.923C118.344 15.7923 118.097 15.6103 117.896 15.377C117.695 15.1437 117.544 14.8613 117.441 14.53C117.343 14.1987 117.294 13.8323 117.294 13.431V8.909H118.54V13.431C118.54 13.9677 118.661 14.383 118.904 14.677C119.151 14.971 119.527 15.118 120.031 15.118C120.4 15.118 120.743 15.0317 121.06 14.859C121.382 14.6817 121.678 14.439 121.949 14.131V8.909H123.195ZM129.301 10.078C129.245 10.1807 129.158 10.232 129.042 10.232C128.972 10.232 128.892 10.2063 128.804 10.155C128.715 10.1037 128.605 10.0477 128.475 9.987C128.349 9.92167 128.197 9.86333 128.02 9.812C127.842 9.756 127.632 9.728 127.39 9.728C127.18 9.728 126.991 9.756 126.823 9.812C126.655 9.86333 126.51 9.93567 126.389 10.029C126.272 10.1223 126.181 10.232 126.116 10.358C126.055 10.4793 126.025 10.6123 126.025 10.757C126.025 10.939 126.076 11.0907 126.179 11.212C126.286 11.3333 126.426 11.4383 126.599 11.527C126.771 11.6157 126.967 11.695 127.187 11.765C127.406 11.8303 127.63 11.9027 127.859 11.982C128.092 12.0567 128.318 12.1407 128.538 12.234C128.757 12.3273 128.953 12.444 129.126 12.584C129.298 12.724 129.436 12.8967 129.539 13.102C129.646 13.3027 129.7 13.5453 129.7 13.83C129.7 14.1567 129.641 14.46 129.525 14.74C129.408 15.0153 129.235 15.2557 129.007 15.461C128.778 15.6617 128.498 15.8203 128.167 15.937C127.835 16.0537 127.453 16.112 127.019 16.112C126.524 16.112 126.076 16.0327 125.675 15.874C125.273 15.7107 124.933 15.503 124.653 15.251L124.947 14.775C124.984 14.7143 125.028 14.6677 125.08 14.635C125.131 14.6023 125.196 14.586 125.276 14.586C125.36 14.586 125.448 14.6187 125.542 14.684C125.635 14.7493 125.747 14.8217 125.878 14.901C126.013 14.9803 126.176 15.0527 126.368 15.118C126.559 15.1833 126.797 15.216 127.082 15.216C127.324 15.216 127.537 15.1857 127.719 15.125C127.901 15.0597 128.052 14.9733 128.174 14.866C128.295 14.7587 128.384 14.635 128.44 14.495C128.5 14.355 128.531 14.2057 128.531 14.047C128.531 13.851 128.477 13.69 128.37 13.564C128.267 13.4333 128.129 13.3237 127.957 13.235C127.784 13.1417 127.586 13.0623 127.362 12.997C127.142 12.927 126.916 12.8547 126.683 12.78C126.454 12.7053 126.228 12.6213 126.004 12.528C125.784 12.43 125.588 12.3087 125.416 12.164C125.243 12.0193 125.103 11.842 124.996 11.632C124.893 11.4173 124.842 11.1583 124.842 10.855C124.842 10.5843 124.898 10.3253 125.01 10.078C125.122 9.826 125.285 9.60667 125.5 9.42C125.714 9.22867 125.978 9.077 126.291 8.965C126.603 8.853 126.96 8.797 127.362 8.797C127.828 8.797 128.246 8.87167 128.615 9.021C128.988 9.16567 129.31 9.36633 129.581 9.623L129.301 10.078ZM133.404 16.112C132.844 16.112 132.413 15.9557 132.109 15.643C131.811 15.3303 131.661 14.88 131.661 14.292V9.952H130.807C130.733 9.952 130.67 9.931 130.618 9.889C130.567 9.84233 130.541 9.77233 130.541 9.679V9.182L131.703 9.035L131.99 6.844C132.004 6.774 132.035 6.718 132.081 6.676C132.133 6.62933 132.198 6.606 132.277 6.606H132.907V9.049H134.958V9.952H132.907V14.208C132.907 14.5067 132.98 14.7283 133.124 14.873C133.269 15.0177 133.456 15.09 133.684 15.09C133.815 15.09 133.927 15.0737 134.02 15.041C134.118 15.0037 134.202 14.964 134.272 14.922C134.342 14.88 134.401 14.8427 134.447 14.81C134.499 14.7727 134.543 14.754 134.58 14.754C134.646 14.754 134.704 14.7937 134.755 14.873L135.119 15.468C134.905 15.6687 134.646 15.8273 134.342 15.944C134.039 16.056 133.726 16.112 133.404 16.112ZM142.9 15.118C143.227 15.118 143.518 15.0737 143.775 14.985C144.036 14.8917 144.256 14.7633 144.433 14.6C144.615 14.432 144.753 14.2337 144.846 14.005C144.944 13.7717 144.993 13.515 144.993 13.235C144.993 12.8897 144.935 12.5957 144.818 12.353C144.706 12.1057 144.552 11.905 144.356 11.751C144.165 11.597 143.943 11.485 143.691 11.415C143.439 11.3403 143.175 11.303 142.9 11.303C142.625 11.303 142.361 11.3403 142.109 11.415C141.857 11.485 141.633 11.597 141.437 11.751C141.246 11.905 141.092 12.1057 140.975 12.353C140.863 12.5957 140.807 12.8897 140.807 13.235C140.807 13.515 140.854 13.7717 140.947 14.005C141.045 14.2337 141.183 14.432 141.36 14.6C141.542 14.7633 141.761 14.8917 142.018 14.985C142.279 15.0737 142.573 15.118 142.9 15.118ZM142.9 6.823C142.601 6.823 142.338 6.86733 142.109 6.956C141.885 7.04467 141.696 7.166 141.542 7.32C141.393 7.474 141.278 7.65367 141.199 7.859C141.124 8.06433 141.087 8.28367 141.087 8.517C141.087 8.74567 141.12 8.96733 141.185 9.182C141.25 9.39667 141.355 9.588 141.5 9.756C141.645 9.91933 141.831 10.0523 142.06 10.155C142.293 10.253 142.573 10.302 142.9 10.302C143.227 10.302 143.504 10.253 143.733 10.155C143.966 10.0523 144.155 9.91933 144.3 9.756C144.445 9.588 144.55 9.39667 144.615 9.182C144.68 8.96733 144.713 8.74567 144.713 8.517C144.713 8.28367 144.673 8.06433 144.594 7.859C144.519 7.65367 144.405 7.474 144.251 7.32C144.102 7.166 143.913 7.04467 143.684 6.956C143.46 6.86733 143.199 6.823 142.9 6.823ZM144.335 10.771C144.96 10.9483 145.441 11.2447 145.777 11.66C146.113 12.0753 146.281 12.6073 146.281 13.256C146.281 13.6947 146.197 14.0913 146.029 14.446C145.866 14.796 145.635 15.0947 145.336 15.342C145.042 15.5893 144.687 15.7807 144.272 15.916C143.857 16.0467 143.399 16.112 142.9 16.112C142.401 16.112 141.943 16.0467 141.528 15.916C141.113 15.7807 140.756 15.5893 140.457 15.342C140.158 15.0947 139.927 14.796 139.764 14.446C139.601 14.0913 139.519 13.6947 139.519 13.256C139.519 12.6073 139.687 12.0753 140.023 11.66C140.359 11.2447 140.84 10.9483 141.465 10.771C140.938 10.575 140.539 10.2833 140.268 9.896C140.002 9.504 139.869 9.03733 139.869 8.496C139.869 8.12733 139.941 7.782 140.086 7.46C140.231 7.138 140.436 6.858 140.702 6.62C140.968 6.382 141.285 6.19533 141.654 6.06C142.027 5.92467 142.443 5.857 142.9 5.857C143.353 5.857 143.766 5.92467 144.139 6.06C144.512 6.19533 144.832 6.382 145.098 6.62C145.364 6.858 145.569 7.138 145.714 7.46C145.859 7.782 145.931 8.12733 145.931 8.496C145.931 9.03733 145.796 9.504 145.525 9.896C145.259 10.2833 144.862 10.575 144.335 10.771ZM147.871 17.694C147.834 17.6613 147.808 17.631 147.794 17.603C147.78 17.575 147.773 17.54 147.773 17.498C147.773 17.4653 147.782 17.4327 147.801 17.4C147.824 17.3673 147.85 17.337 147.878 17.309C147.925 17.2577 147.983 17.19 148.053 17.106C148.128 17.022 148.202 16.9217 148.277 16.805C148.352 16.693 148.419 16.567 148.48 16.427C148.545 16.2917 148.592 16.147 148.62 15.993C148.606 15.9977 148.59 16 148.571 16C148.557 16 148.543 16 148.529 16C148.286 16 148.088 15.9207 147.934 15.762C147.785 15.5987 147.71 15.391 147.71 15.139C147.71 14.9197 147.785 14.733 147.934 14.579C148.088 14.425 148.291 14.348 148.543 14.348C148.683 14.348 148.807 14.3737 148.914 14.425C149.021 14.4763 149.11 14.5487 149.18 14.642C149.255 14.7307 149.311 14.8357 149.348 14.957C149.385 15.0737 149.404 15.202 149.404 15.342C149.404 15.552 149.374 15.7713 149.313 16C149.257 16.224 149.171 16.4457 149.054 16.665C148.942 16.889 148.804 17.106 148.641 17.316C148.478 17.526 148.291 17.7197 148.081 17.897L147.871 17.694ZM160.624 14.817C160.759 14.817 160.867 14.8567 160.946 14.936C161.025 15.0153 161.065 15.118 161.065 15.244V16H154.373V15.573C154.373 15.4843 154.392 15.3933 154.429 15.3C154.466 15.2067 154.525 15.1203 154.604 15.041L157.817 11.814C158.083 11.5433 158.326 11.2843 158.545 11.037C158.764 10.785 158.951 10.533 159.105 10.281C159.259 10.029 159.378 9.77467 159.462 9.518C159.546 9.25667 159.588 8.979 159.588 8.685C159.588 8.391 159.541 8.13433 159.448 7.915C159.355 7.691 159.226 7.50667 159.063 7.362C158.904 7.21733 158.715 7.11 158.496 7.04C158.277 6.96533 158.041 6.928 157.789 6.928C157.532 6.928 157.297 6.96533 157.082 7.04C156.867 7.11467 156.676 7.21967 156.508 7.355C156.345 7.48567 156.207 7.642 156.095 7.824C155.983 8.006 155.904 8.20667 155.857 8.426C155.801 8.58933 155.724 8.699 155.626 8.755C155.533 8.80633 155.4 8.82033 155.227 8.797L154.576 8.685C154.641 8.22767 154.767 7.824 154.954 7.474C155.145 7.11933 155.383 6.823 155.668 6.585C155.957 6.347 156.286 6.16733 156.655 6.046C157.024 5.92 157.423 5.857 157.852 5.857C158.277 5.857 158.673 5.92 159.042 6.046C159.411 6.172 159.73 6.35633 160.001 6.599C160.272 6.837 160.484 7.12867 160.638 7.474C160.792 7.81933 160.869 8.21133 160.869 8.65C160.869 9.02333 160.813 9.371 160.701 9.693C160.589 10.0103 160.437 10.3137 160.246 10.603C160.055 10.8923 159.833 11.1747 159.581 11.45C159.334 11.7253 159.07 12.003 158.79 12.283L156.144 14.985C156.331 14.9337 156.52 14.894 156.711 14.866C156.902 14.8333 157.087 14.817 157.264 14.817H160.624ZM169.536 10.988C169.536 11.8653 169.44 12.626 169.249 13.27C169.062 13.9093 168.806 14.439 168.479 14.859C168.152 15.279 167.765 15.5917 167.317 15.797C166.874 16.0023 166.398 16.105 165.889 16.105C165.376 16.105 164.897 16.0023 164.454 15.797C164.015 15.5917 163.633 15.279 163.306 14.859C162.979 14.439 162.723 13.9093 162.536 13.27C162.349 12.626 162.256 11.8653 162.256 10.988C162.256 10.1107 162.349 9.35 162.536 8.706C162.723 8.062 162.979 7.53 163.306 7.11C163.633 6.68533 164.015 6.37033 164.454 6.165C164.897 5.95967 165.376 5.857 165.889 5.857C166.398 5.857 166.874 5.95967 167.317 6.165C167.765 6.37033 168.152 6.68533 168.479 7.11C168.806 7.53 169.062 8.062 169.249 8.706C169.44 9.35 169.536 10.1107 169.536 10.988ZM168.241 10.988C168.241 10.2227 168.176 9.581 168.045 9.063C167.919 8.54033 167.746 8.12033 167.527 7.803C167.312 7.48567 167.063 7.25933 166.778 7.124C166.493 6.984 166.197 6.914 165.889 6.914C165.581 6.914 165.285 6.984 165 7.124C164.715 7.25933 164.466 7.48567 164.251 7.803C164.036 8.12033 163.864 8.54033 163.733 9.063C163.607 9.581 163.544 10.2227 163.544 10.988C163.544 11.7533 163.607 12.395 163.733 12.913C163.864 13.431 164.036 13.8487 164.251 14.166C164.466 14.4833 164.715 14.712 165 14.852C165.285 14.9873 165.581 15.055 165.889 15.055C166.197 15.055 166.493 14.9873 166.778 14.852C167.063 14.712 167.312 14.4833 167.527 14.166C167.746 13.8487 167.919 13.431 168.045 12.913C168.176 12.395 168.241 11.7533 168.241 10.988ZM176.866 14.817C177.001 14.817 177.109 14.8567 177.188 14.936C177.267 15.0153 177.307 15.118 177.307 15.244V16H170.615V15.573C170.615 15.4843 170.634 15.3933 170.671 15.3C170.708 15.2067 170.767 15.1203 170.846 15.041L174.059 11.814C174.325 11.5433 174.568 11.2843 174.787 11.037C175.006 10.785 175.193 10.533 175.347 10.281C175.501 10.029 175.62 9.77467 175.704 9.518C175.788 9.25667 175.83 8.979 175.83 8.685C175.83 8.391 175.783 8.13433 175.69 7.915C175.597 7.691 175.468 7.50667 175.305 7.362C175.146 7.21733 174.957 7.11 174.738 7.04C174.519 6.96533 174.283 6.928 174.031 6.928C173.774 6.928 173.539 6.96533 173.324 7.04C173.109 7.11467 172.918 7.21967 172.75 7.355C172.587 7.48567 172.449 7.642 172.337 7.824C172.225 8.006 172.146 8.20667 172.099 8.426C172.043 8.58933 171.966 8.699 171.868 8.755C171.775 8.80633 171.642 8.82033 171.469 8.797L170.818 8.685C170.883 8.22767 171.009 7.824 171.196 7.474C171.387 7.11933 171.625 6.823 171.91 6.585C172.199 6.347 172.528 6.16733 172.897 6.046C173.266 5.92 173.665 5.857 174.094 5.857C174.519 5.857 174.915 5.92 175.284 6.046C175.653 6.172 175.972 6.35633 176.243 6.599C176.514 6.837 176.726 7.12867 176.88 7.474C177.034 7.81933 177.111 8.21133 177.111 8.65C177.111 9.02333 177.055 9.371 176.943 9.693C176.831 10.0103 176.679 10.3137 176.488 10.603C176.297 10.8923 176.075 11.1747 175.823 11.45C175.576 11.7253 175.312 12.003 175.032 12.283L172.386 14.985C172.573 14.9337 172.762 14.894 172.953 14.866C173.144 14.8333 173.329 14.817 173.506 14.817H176.866ZM185.778 10.988C185.778 11.8653 185.682 12.626 185.491 13.27C185.304 13.9093 185.048 14.439 184.721 14.859C184.394 15.279 184.007 15.5917 183.559 15.797C183.116 16.0023 182.64 16.105 182.131 16.105C181.618 16.105 181.139 16.0023 180.696 15.797C180.257 15.5917 179.875 15.279 179.548 14.859C179.221 14.439 178.965 13.9093 178.778 13.27C178.591 12.626 178.498 11.8653 178.498 10.988C178.498 10.1107 178.591 9.35 178.778 8.706C178.965 8.062 179.221 7.53 179.548 7.11C179.875 6.68533 180.257 6.37033 180.696 6.165C181.139 5.95967 181.618 5.857 182.131 5.857C182.64 5.857 183.116 5.95967 183.559 6.165C184.007 6.37033 184.394 6.68533 184.721 7.11C185.048 7.53 185.304 8.062 185.491 8.706C185.682 9.35 185.778 10.1107 185.778 10.988ZM184.483 10.988C184.483 10.2227 184.418 9.581 184.287 9.063C184.161 8.54033 183.988 8.12033 183.769 7.803C183.554 7.48567 183.305 7.25933 183.02 7.124C182.735 6.984 182.439 6.914 182.131 6.914C181.823 6.914 181.527 6.984 181.242 7.124C180.957 7.25933 180.708 7.48567 180.493 7.803C180.278 8.12033 180.106 8.54033 179.975 9.063C179.849 9.581 179.786 10.2227 179.786 10.988C179.786 11.7533 179.849 12.395 179.975 12.913C180.106 13.431 180.278 13.8487 180.493 14.166C180.708 14.4833 180.957 14.712 181.242 14.852C181.527 14.9873 181.823 15.055 182.131 15.055C182.439 15.055 182.735 14.9873 183.02 14.852C183.305 14.712 183.554 14.4833 183.769 14.166C183.988 13.8487 184.161 13.431 184.287 12.913C184.418 12.395 184.483 11.7533 184.483 10.988Z" fill="#787A80"/>
</g>
</g>
<defs>
<clipPath id="clip0_2913_694">
<rect width="187" height="21" fill="white"/>
</clipPath>
<clipPath id="clip1_2913_694">
<rect width="119" height="21" fill="white" transform="translate(68)"/>
</clipPath>
</defs>
</svg>
