<svg width="322" height="21" viewBox="0 0 322 21" fill="none" xmlns="http://www.w3.org/2000/svg">
<g clip-path="url(#clip0_2913_1111)">
<path d="M12.103 5.878V16H10.444V9.462C10.444 9.20067 10.458 8.91833 10.486 8.615L7.427 14.362C7.28233 14.6373 7.06067 14.775 6.762 14.775H6.496C6.19733 14.775 5.97567 14.6373 5.831 14.362L2.737 8.594C2.751 8.748 2.76267 8.89967 2.772 9.049C2.78133 9.19833 2.786 9.336 2.786 9.462V16H1.127V5.878H2.548C2.632 5.878 2.70433 5.88033 2.765 5.885C2.82567 5.88967 2.87933 5.90133 2.926 5.92C2.97733 5.93867 3.02167 5.969 3.059 6.011C3.101 6.053 3.14067 6.109 3.178 6.179L6.209 11.8C6.28833 11.9493 6.36067 12.1033 6.426 12.262C6.496 12.4207 6.56367 12.584 6.629 12.752C6.69433 12.5793 6.762 12.4137 6.832 12.255C6.902 12.0917 6.97667 11.9353 7.056 11.786L10.045 6.179C10.0823 6.109 10.122 6.053 10.164 6.011C10.206 5.969 10.2503 5.93867 10.297 5.92C10.3483 5.90133 10.4043 5.88967 10.465 5.885C10.5257 5.88033 10.598 5.878 10.682 5.878H12.103ZM17.7046 12.934C17.2053 12.9573 16.7853 13.0017 16.4446 13.067C16.104 13.1277 15.831 13.207 15.6256 13.305C15.4203 13.403 15.2733 13.5173 15.1846 13.648C15.096 13.7787 15.0516 13.921 15.0516 14.075C15.0516 14.3783 15.1403 14.5953 15.3176 14.726C15.4996 14.8567 15.7353 14.922 16.0246 14.922C16.3793 14.922 16.685 14.859 16.9416 14.733C17.203 14.6023 17.4573 14.4063 17.7046 14.145V12.934ZM13.7426 9.819C14.5686 9.063 15.5626 8.685 16.7246 8.685C17.1446 8.685 17.5203 8.755 17.8516 8.895C18.183 9.03033 18.463 9.22167 18.6916 9.469C18.9203 9.71167 19.093 10.0033 19.2096 10.344C19.331 10.6847 19.3916 11.058 19.3916 11.464V16H18.6076C18.4443 16 18.3183 15.9767 18.2296 15.93C18.141 15.8787 18.071 15.7783 18.0196 15.629L17.8656 15.111C17.6836 15.2743 17.5063 15.419 17.3336 15.545C17.161 15.6663 16.9813 15.769 16.7946 15.853C16.608 15.937 16.4073 16 16.1926 16.042C15.9826 16.0887 15.7493 16.112 15.4926 16.112C15.1893 16.112 14.9093 16.0723 14.6526 15.993C14.396 15.909 14.1743 15.7853 13.9876 15.622C13.801 15.4587 13.6563 15.2557 13.5536 15.013C13.451 14.7703 13.3996 14.488 13.3996 14.166C13.3996 13.984 13.43 13.8043 13.4906 13.627C13.5513 13.445 13.6493 13.2723 13.7846 13.109C13.9246 12.9457 14.1043 12.7917 14.3236 12.647C14.543 12.5023 14.8113 12.3763 15.1286 12.269C15.4506 12.1617 15.824 12.0753 16.2486 12.01C16.6733 11.94 17.1586 11.898 17.7046 11.884V11.464C17.7046 10.9833 17.602 10.6287 17.3966 10.4C17.1913 10.1667 16.895 10.05 16.5076 10.05C16.2276 10.05 15.9943 10.0827 15.8076 10.148C15.6256 10.2133 15.4646 10.288 15.3246 10.372C15.1846 10.4513 15.0563 10.5237 14.9396 10.589C14.8276 10.6543 14.7016 10.687 14.5616 10.687C14.4403 10.687 14.3376 10.6567 14.2536 10.596C14.1696 10.5307 14.102 10.456 14.0506 10.372L13.7426 9.819ZM22.651 10.064C22.875 9.63467 23.141 9.29867 23.449 9.056C23.757 8.80867 24.121 8.685 24.541 8.685C24.8723 8.685 25.1383 8.75733 25.339 8.902L25.227 10.197C25.2037 10.281 25.1687 10.3417 25.122 10.379C25.08 10.4117 25.0217 10.428 24.947 10.428C24.877 10.428 24.772 10.4163 24.632 10.393C24.4967 10.3697 24.3637 10.358 24.233 10.358C24.0417 10.358 23.8713 10.386 23.722 10.442C23.5727 10.498 23.4373 10.5797 23.316 10.687C23.1993 10.7897 23.0943 10.9157 23.001 11.065C22.9123 11.2143 22.8283 11.3847 22.749 11.576V16H21.02V8.818H22.035C22.2123 8.818 22.336 8.85067 22.406 8.916C22.476 8.97667 22.5227 9.08867 22.546 9.252L22.651 10.064ZM27.9717 5.598V11.555H28.2937C28.4103 11.555 28.5013 11.541 28.5667 11.513C28.6367 11.4803 28.7067 11.4173 28.7767 11.324L30.5617 9.119C30.6363 9.021 30.718 8.94633 30.8067 8.895C30.9 8.84367 31.019 8.818 31.1637 8.818H32.7457L30.5127 11.485C30.354 11.695 30.1813 11.856 29.9947 11.968C30.0927 12.038 30.179 12.1197 30.2537 12.213C30.333 12.3063 30.4077 12.4067 30.4777 12.514L32.8717 16H31.3107C31.1753 16 31.0587 15.979 30.9607 15.937C30.8627 15.8903 30.781 15.8087 30.7157 15.692L28.8817 12.969C28.8163 12.8617 28.7487 12.7917 28.6787 12.759C28.6087 12.7263 28.5037 12.71 28.3637 12.71H27.9717V16H26.2427V5.598H27.9717ZM37.979 11.583C37.979 11.359 37.9464 11.149 37.881 10.953C37.8204 10.7523 37.727 10.5773 37.601 10.428C37.475 10.2787 37.314 10.162 37.118 10.078C36.9267 9.98933 36.7027 9.945 36.446 9.945C35.9467 9.945 35.5524 10.0873 35.263 10.372C34.9784 10.6567 34.7964 11.0603 34.717 11.583H37.979ZM34.682 12.626C34.71 12.9947 34.7754 13.3143 34.878 13.585C34.9807 13.851 35.116 14.0727 35.284 14.25C35.452 14.4227 35.6504 14.5533 35.879 14.642C36.1124 14.726 36.369 14.768 36.649 14.768C36.929 14.768 37.1694 14.7353 37.37 14.67C37.5754 14.6047 37.7527 14.5323 37.902 14.453C38.056 14.3737 38.189 14.3013 38.301 14.236C38.4177 14.1707 38.5297 14.138 38.637 14.138C38.7817 14.138 38.889 14.1917 38.959 14.299L39.456 14.929C39.2647 15.153 39.05 15.342 38.812 15.496C38.574 15.6453 38.3244 15.7667 38.063 15.86C37.8064 15.9487 37.5427 16.0117 37.272 16.049C37.006 16.0863 36.747 16.105 36.495 16.105C35.9957 16.105 35.5314 16.0233 35.102 15.86C34.6727 15.692 34.2994 15.447 33.982 15.125C33.6647 14.7983 33.415 14.397 33.233 13.921C33.051 13.4403 32.96 12.885 32.96 12.255C32.96 11.765 33.0394 11.3053 33.198 10.876C33.3567 10.442 33.583 10.0663 33.877 9.749C34.1757 9.427 34.5374 9.17267 34.962 8.986C35.3914 8.79933 35.8744 8.706 36.411 8.706C36.8637 8.706 37.2814 8.77833 37.664 8.923C38.0467 9.06767 38.3757 9.28 38.651 9.56C38.9264 9.83533 39.141 10.176 39.295 10.582C39.4537 10.9833 39.533 11.443 39.533 11.961C39.533 12.2223 39.505 12.3997 39.449 12.493C39.393 12.5817 39.2857 12.626 39.127 12.626H34.682ZM48.0072 16H46.2782V10.113H42.9462V14.005C42.9462 14.229 42.9999 14.404 43.1072 14.53C43.2192 14.656 43.3709 14.719 43.5622 14.719C43.6695 14.719 43.7582 14.7073 43.8282 14.684C43.9029 14.656 43.9659 14.628 44.0172 14.6C44.0732 14.572 44.1222 14.5463 44.1642 14.523C44.2062 14.495 44.2482 14.481 44.2902 14.481C44.3415 14.481 44.3835 14.495 44.4162 14.523C44.4489 14.5463 44.4839 14.5837 44.5212 14.635L45.0392 15.475C44.7872 15.685 44.4979 15.8437 44.1712 15.951C43.8445 16.0583 43.5062 16.112 43.1562 16.112C42.5309 16.112 42.0502 15.937 41.7142 15.587C41.3829 15.2323 41.2172 14.7447 41.2172 14.124V10.113H40.4822C40.3889 10.113 40.3095 10.0827 40.2442 10.022C40.1789 9.96133 40.1462 9.87033 40.1462 9.749V9.063L41.3012 8.867L41.6652 6.914C41.6885 6.82067 41.7329 6.74833 41.7982 6.697C41.8635 6.64567 41.9475 6.62 42.0502 6.62H42.9462V8.881H48.0072V16ZM48.3082 6.697C48.3082 6.84633 48.2779 6.98867 48.2172 7.124C48.1565 7.25467 48.0749 7.369 47.9722 7.467C47.8742 7.565 47.7552 7.64433 47.6152 7.705C47.4799 7.761 47.3352 7.789 47.1812 7.789C47.0319 7.789 46.8919 7.761 46.7612 7.705C46.6305 7.64433 46.5162 7.565 46.4182 7.467C46.3202 7.369 46.2409 7.25467 46.1802 7.124C46.1242 6.98867 46.0962 6.84633 46.0962 6.697C46.0962 6.543 46.1242 6.40067 46.1802 6.27C46.2409 6.13467 46.3202 6.018 46.4182 5.92C46.5162 5.81733 46.6305 5.738 46.7612 5.682C46.8919 5.62133 47.0319 5.591 47.1812 5.591C47.3352 5.591 47.4799 5.62133 47.6152 5.682C47.7552 5.738 47.8742 5.81733 47.9722 5.92C48.0749 6.018 48.1565 6.13467 48.2172 6.27C48.2779 6.40067 48.3082 6.543 48.3082 6.697ZM51.389 9.7C51.5336 9.55533 51.6853 9.42233 51.844 9.301C52.0073 9.175 52.1776 9.07 52.355 8.986C52.537 8.89733 52.7306 8.82967 52.936 8.783C53.1413 8.73167 53.3653 8.706 53.608 8.706C54 8.706 54.3476 8.77367 54.651 8.909C54.9543 9.03967 55.2063 9.22633 55.407 9.469C55.6123 9.707 55.7663 9.994 55.869 10.33C55.9763 10.6613 56.03 11.0277 56.03 11.429V16H54.301V11.429C54.301 10.9903 54.2006 10.652 54 10.414C53.7993 10.1713 53.4936 10.05 53.083 10.05C52.7843 10.05 52.5043 10.1177 52.243 10.253C51.9816 10.3883 51.7343 10.5727 51.501 10.806V16H49.772V8.818H50.829C51.053 8.818 51.2 8.923 51.27 9.133L51.389 9.7ZM60.2993 12.234C60.514 12.234 60.7006 12.206 60.8593 12.15C61.018 12.0893 61.1486 12.0077 61.2513 11.905C61.3586 11.8023 61.438 11.6787 61.4893 11.534C61.5453 11.3893 61.5733 11.2307 61.5733 11.058C61.5733 10.7033 61.466 10.4233 61.2513 10.218C61.0413 10.008 60.724 9.903 60.2993 9.903C59.8746 9.903 59.555 10.008 59.3403 10.218C59.1303 10.4233 59.0253 10.7033 59.0253 11.058C59.0253 11.226 59.051 11.3823 59.1023 11.527C59.1583 11.6717 59.2376 11.7977 59.3403 11.905C59.4476 12.0077 59.5806 12.0893 59.7393 12.15C59.9026 12.206 60.0893 12.234 60.2993 12.234ZM62.2523 16.322C62.2523 16.182 62.2103 16.0677 62.1263 15.979C62.0423 15.8903 61.928 15.8227 61.7833 15.776C61.6386 15.7247 61.4683 15.6873 61.2723 15.664C61.081 15.6407 60.8756 15.6243 60.6563 15.615C60.4416 15.601 60.2176 15.5893 59.9843 15.58C59.7556 15.5707 59.5316 15.552 59.3123 15.524C59.121 15.6313 58.9646 15.7573 58.8433 15.902C58.7266 16.0467 58.6683 16.2147 58.6683 16.406C58.6683 16.532 58.6986 16.6487 58.7593 16.756C58.8246 16.868 58.925 16.9637 59.0603 17.043C59.2003 17.1223 59.38 17.183 59.5993 17.225C59.8186 17.2717 60.087 17.295 60.4043 17.295C60.7263 17.295 61.004 17.2693 61.2373 17.218C61.4706 17.1713 61.662 17.1037 61.8113 17.015C61.9653 16.931 62.0773 16.8283 62.1473 16.707C62.2173 16.5903 62.2523 16.462 62.2523 16.322ZM63.9743 9.063V9.707C63.9743 9.91233 63.8506 10.0383 63.6033 10.085L62.9593 10.204C63.0573 10.4513 63.1063 10.722 63.1063 11.016C63.1063 11.3707 63.034 11.6927 62.8893 11.982C62.7493 12.2667 62.5533 12.5093 62.3013 12.71C62.0493 12.9107 61.7506 13.067 61.4053 13.179C61.0646 13.2863 60.696 13.34 60.2993 13.34C60.1593 13.34 60.024 13.333 59.8933 13.319C59.7626 13.305 59.6343 13.2863 59.5083 13.263C59.2843 13.3983 59.1723 13.55 59.1723 13.718C59.1723 13.8627 59.2376 13.97 59.3683 14.04C59.5036 14.1053 59.681 14.152 59.9003 14.18C60.1196 14.208 60.3693 14.2267 60.6493 14.236C60.9293 14.2407 61.2163 14.2547 61.5103 14.278C61.8043 14.3013 62.0913 14.3433 62.3713 14.404C62.6513 14.46 62.901 14.551 63.1203 14.677C63.3396 14.803 63.5146 14.9757 63.6453 15.195C63.7806 15.4097 63.8483 15.6873 63.8483 16.028C63.8483 16.3453 63.769 16.6533 63.6103 16.952C63.4563 17.2507 63.23 17.5167 62.9313 17.75C62.6373 17.9833 62.2733 18.17 61.8393 18.31C61.41 18.4547 60.92 18.527 60.3693 18.527C59.828 18.527 59.3566 18.4733 58.9553 18.366C58.554 18.2633 58.2203 18.1233 57.9543 17.946C57.6883 17.7733 57.49 17.5727 57.3593 17.344C57.2286 17.1153 57.1633 16.8773 57.1633 16.63C57.1633 16.294 57.2636 16.014 57.4643 15.79C57.6696 15.5613 57.9496 15.3793 58.3043 15.244C58.113 15.146 57.9613 15.0153 57.8493 14.852C57.7373 14.6887 57.6813 14.474 57.6813 14.208C57.6813 14.1007 57.7 13.991 57.7373 13.879C57.7793 13.7623 57.8376 13.648 57.9123 13.536C57.9916 13.424 58.0896 13.319 58.2063 13.221C58.323 13.1183 58.4606 13.0273 58.6193 12.948C58.2553 12.752 57.9683 12.4907 57.7583 12.164C57.553 11.8373 57.4503 11.4547 57.4503 11.016C57.4503 10.6613 57.5203 10.3417 57.6603 10.057C57.805 9.76767 58.0033 9.52267 58.2553 9.322C58.512 9.11667 58.813 8.96033 59.1583 8.853C59.5083 8.74567 59.8886 8.692 60.2993 8.692C60.6073 8.692 60.8966 8.72467 61.1673 8.79C61.438 8.85067 61.6853 8.94167 61.9093 9.063H63.9743Z" fill="#787A80"/>
<line x1="77.5" y1="5" x2="77.5" y2="16" stroke="#787A80" stroke-linecap="round"/>
<g clip-path="url(#clip1_2913_1111)">
<path fill-rule="evenodd" clip-rule="evenodd" d="M94.0002 3.33398C94.3684 3.33398 94.6668 3.63246 94.6668 4.00065V4.33399L99.3335 4.334V4.00065C99.3335 3.63246 99.632 3.33398 100 3.33398C100.368 3.33398 100.667 3.63246 100.667 4.00065V4.334L101.5 4.33401C102.973 4.33401 104.167 5.52792 104.167 7.00067V15.0006C104.167 16.4734 102.973 17.6673 101.5 17.6673L92.5002 17.6673C91.0274 17.6673 89.8335 16.4734 89.8335 15.0007L89.8335 8.50078L89.8335 7.00065C89.8335 5.52789 91.0274 4.33398 92.5002 4.33399L93.3335 4.33399V4.00065C93.3335 3.63246 93.632 3.33398 94.0002 3.33398ZM93.3335 5.66732L92.5002 5.66732C91.7638 5.66732 91.1668 6.26427 91.1668 7.00065V7.83398H102.833V7.00067C102.833 6.26429 102.237 5.66734 101.5 5.66734L100.667 5.66734V6.00065C100.667 6.36884 100.368 6.66732 100 6.66732C99.632 6.66732 99.3335 6.36884 99.3335 6.00065V5.66734L94.6668 5.66733V6.00065C94.6668 6.36884 94.3684 6.66732 94.0002 6.66732C93.632 6.66732 93.3335 6.36884 93.3335 6.00065V5.66732ZM102.833 9.16732H91.1668L91.1668 15.0007C91.1668 15.737 91.7638 16.334 92.5002 16.334L101.5 16.334C102.237 16.334 102.833 15.737 102.833 15.0006V9.16732Z" fill="#787A80"/>
<path d="M119.412 7.537C119.37 7.607 119.323 7.66067 119.272 7.698C119.225 7.73067 119.167 7.747 119.097 7.747C119.018 7.747 118.924 7.70733 118.817 7.628C118.71 7.54867 118.574 7.46233 118.411 7.369C118.252 7.271 118.059 7.18233 117.83 7.103C117.606 7.02367 117.333 6.984 117.011 6.984C116.708 6.984 116.439 7.026 116.206 7.11C115.977 7.18933 115.784 7.299 115.625 7.439C115.471 7.579 115.354 7.74467 115.275 7.936C115.196 8.12267 115.156 8.32567 115.156 8.545C115.156 8.825 115.224 9.05833 115.359 9.245C115.499 9.427 115.681 9.58333 115.905 9.714C116.134 9.84467 116.39 9.959 116.675 10.057C116.964 10.1503 117.258 10.2483 117.557 10.351C117.86 10.4537 118.154 10.5703 118.439 10.701C118.728 10.827 118.985 10.988 119.209 11.184C119.438 11.38 119.62 11.6203 119.755 11.905C119.895 12.1897 119.965 12.5397 119.965 12.955C119.965 13.3937 119.89 13.8067 119.741 14.194C119.592 14.5767 119.372 14.9103 119.083 15.195C118.798 15.4797 118.446 15.7037 118.026 15.867C117.611 16.0303 117.137 16.112 116.605 16.112C115.952 16.112 115.359 15.9953 114.827 15.762C114.295 15.524 113.84 15.2043 113.462 14.803L113.854 14.159C113.891 14.1077 113.936 14.0657 113.987 14.033C114.043 13.9957 114.104 13.977 114.169 13.977C114.23 13.977 114.297 14.0027 114.372 14.054C114.451 14.1007 114.54 14.1613 114.638 14.236C114.736 14.3107 114.848 14.3923 114.974 14.481C115.1 14.5697 115.242 14.6513 115.401 14.726C115.564 14.8007 115.749 14.8637 115.954 14.915C116.159 14.9617 116.39 14.985 116.647 14.985C116.969 14.985 117.256 14.9407 117.508 14.852C117.76 14.7633 117.972 14.6397 118.145 14.481C118.322 14.3177 118.458 14.124 118.551 13.9C118.644 13.676 118.691 13.4263 118.691 13.151C118.691 12.8477 118.621 12.6003 118.481 12.409C118.346 12.213 118.166 12.0497 117.942 11.919C117.718 11.7883 117.461 11.6787 117.172 11.59C116.883 11.4967 116.589 11.4033 116.29 11.31C115.991 11.212 115.697 11.1 115.408 10.974C115.119 10.848 114.862 10.6847 114.638 10.484C114.414 10.2833 114.232 10.0337 114.092 9.735C113.957 9.43167 113.889 9.05833 113.889 8.615C113.889 8.26033 113.957 7.91733 114.092 7.586C114.232 7.25467 114.433 6.96067 114.694 6.704C114.96 6.44733 115.284 6.242 115.667 6.088C116.054 5.934 116.498 5.857 116.997 5.857C117.557 5.857 118.066 5.94567 118.523 6.123C118.985 6.30033 119.391 6.557 119.741 6.893L119.412 7.537ZM126.294 11.681C126.294 11.3917 126.252 11.128 126.168 10.89C126.088 10.6473 125.969 10.4397 125.811 10.267C125.657 10.0897 125.468 9.95433 125.244 9.861C125.02 9.763 124.765 9.714 124.481 9.714C123.883 9.714 123.41 9.889 123.06 10.239C122.714 10.5843 122.5 11.065 122.416 11.681H126.294ZM127.302 15.006C127.148 15.1927 126.963 15.356 126.749 15.496C126.534 15.6313 126.303 15.7433 126.056 15.832C125.813 15.9207 125.561 15.986 125.3 16.028C125.038 16.0747 124.779 16.098 124.523 16.098C124.033 16.098 123.58 16.0163 123.165 15.853C122.754 15.685 122.397 15.4423 122.094 15.125C121.795 14.803 121.562 14.4063 121.394 13.935C121.226 13.4637 121.142 12.9223 121.142 12.311C121.142 11.8163 121.216 11.3543 121.366 10.925C121.52 10.4957 121.739 10.1247 122.024 9.812C122.308 9.49467 122.656 9.24733 123.067 9.07C123.477 8.888 123.939 8.797 124.453 8.797C124.877 8.797 125.269 8.86933 125.629 9.014C125.993 9.154 126.305 9.35933 126.567 9.63C126.833 9.896 127.04 10.2273 127.19 10.624C127.339 11.016 127.414 11.464 127.414 11.968C127.414 12.164 127.393 12.2947 127.351 12.36C127.309 12.4253 127.229 12.458 127.113 12.458H122.374C122.388 12.906 122.448 13.2957 122.556 13.627C122.668 13.9583 122.822 14.236 123.018 14.46C123.214 14.6793 123.447 14.845 123.718 14.957C123.988 15.0643 124.292 15.118 124.628 15.118C124.94 15.118 125.209 15.083 125.433 15.013C125.661 14.9383 125.857 14.859 126.021 14.775C126.184 14.691 126.319 14.614 126.427 14.544C126.539 14.4693 126.634 14.432 126.714 14.432C126.816 14.432 126.896 14.4717 126.952 14.551L127.302 15.006ZM130.197 14.292C130.426 14.6 130.675 14.817 130.946 14.943C131.217 15.069 131.52 15.132 131.856 15.132C132.519 15.132 133.027 14.8963 133.382 14.425C133.737 13.9537 133.914 13.2817 133.914 12.409C133.914 11.947 133.872 11.5503 133.788 11.219C133.709 10.8877 133.592 10.617 133.438 10.407C133.284 10.1923 133.095 10.036 132.871 9.938C132.647 9.84 132.393 9.791 132.108 9.791C131.702 9.791 131.345 9.88433 131.037 10.071C130.734 10.2577 130.454 10.5213 130.197 10.862V14.292ZM130.134 10.008C130.433 9.63933 130.778 9.343 131.17 9.119C131.562 8.895 132.01 8.783 132.514 8.783C132.925 8.783 133.296 8.86233 133.627 9.021C133.958 9.175 134.241 9.406 134.474 9.714C134.707 10.0173 134.887 10.3953 135.013 10.848C135.139 11.3007 135.202 11.821 135.202 12.409C135.202 12.9317 135.132 13.4193 134.992 13.872C134.852 14.32 134.649 14.7097 134.383 15.041C134.122 15.3677 133.8 15.6267 133.417 15.818C133.039 16.0047 132.612 16.098 132.136 16.098C131.702 16.098 131.329 16.0257 131.016 15.881C130.708 15.7317 130.435 15.5263 130.197 15.265V18.401H128.944V8.909H129.693C129.87 8.909 129.98 8.99533 130.022 9.168L130.134 10.008ZM138.873 16.112C138.313 16.112 137.881 15.9557 137.578 15.643C137.279 15.3303 137.13 14.88 137.13 14.292V9.952H136.276C136.201 9.952 136.138 9.931 136.087 9.889C136.036 9.84233 136.01 9.77233 136.01 9.679V9.182L137.172 9.035L137.459 6.844C137.473 6.774 137.503 6.718 137.55 6.676C137.601 6.62933 137.667 6.606 137.746 6.606H138.376V9.049H140.427V9.952H138.376V14.208C138.376 14.5067 138.448 14.7283 138.593 14.873C138.738 15.0177 138.924 15.09 139.153 15.09C139.284 15.09 139.396 15.0737 139.489 15.041C139.587 15.0037 139.671 14.964 139.741 14.922C139.811 14.88 139.869 14.8427 139.916 14.81C139.967 14.7727 140.012 14.754 140.049 14.754C140.114 14.754 140.173 14.7937 140.224 14.873L140.588 15.468C140.373 15.6687 140.114 15.8273 139.811 15.944C139.508 16.056 139.195 16.112 138.873 16.112ZM146.419 11.681C146.419 11.3917 146.377 11.128 146.293 10.89C146.213 10.6473 146.094 10.4397 145.936 10.267C145.782 10.0897 145.593 9.95433 145.369 9.861C145.145 9.763 144.89 9.714 144.606 9.714C144.008 9.714 143.535 9.889 143.185 10.239C142.839 10.5843 142.625 11.065 142.541 11.681H146.419ZM147.427 15.006C147.273 15.1927 147.088 15.356 146.874 15.496C146.659 15.6313 146.428 15.7433 146.181 15.832C145.938 15.9207 145.686 15.986 145.425 16.028C145.163 16.0747 144.904 16.098 144.648 16.098C144.158 16.098 143.705 16.0163 143.29 15.853C142.879 15.685 142.522 15.4423 142.219 15.125C141.92 14.803 141.687 14.4063 141.519 13.935C141.351 13.4637 141.267 12.9223 141.267 12.311C141.267 11.8163 141.341 11.3543 141.491 10.925C141.645 10.4957 141.864 10.1247 142.149 9.812C142.433 9.49467 142.781 9.24733 143.192 9.07C143.602 8.888 144.064 8.797 144.578 8.797C145.002 8.797 145.394 8.86933 145.754 9.014C146.118 9.154 146.43 9.35933 146.692 9.63C146.958 9.896 147.165 10.2273 147.315 10.624C147.464 11.016 147.539 11.464 147.539 11.968C147.539 12.164 147.518 12.2947 147.476 12.36C147.434 12.4253 147.354 12.458 147.238 12.458H142.499C142.513 12.906 142.573 13.2957 142.681 13.627C142.793 13.9583 142.947 14.236 143.143 14.46C143.339 14.6793 143.572 14.845 143.843 14.957C144.113 15.0643 144.417 15.118 144.753 15.118C145.065 15.118 145.334 15.083 145.558 15.013C145.786 14.9383 145.982 14.859 146.146 14.775C146.309 14.691 146.444 14.614 146.552 14.544C146.664 14.4693 146.759 14.432 146.839 14.432C146.941 14.432 147.021 14.4717 147.077 14.551L147.427 15.006ZM149.069 16V8.909H149.818C149.995 8.909 150.105 8.99533 150.147 9.168L150.238 9.896C150.499 9.574 150.793 9.31033 151.12 9.105C151.447 8.89967 151.825 8.797 152.254 8.797C152.73 8.797 153.115 8.93 153.409 9.196C153.708 9.462 153.922 9.82133 154.053 10.274C154.156 10.0173 154.286 9.79567 154.445 9.609C154.608 9.42233 154.79 9.26833 154.991 9.147C155.192 9.02567 155.404 8.937 155.628 8.881C155.857 8.825 156.088 8.797 156.321 8.797C156.694 8.797 157.026 8.85767 157.315 8.979C157.609 9.09567 157.856 9.26833 158.057 9.497C158.262 9.72567 158.419 10.008 158.526 10.344C158.633 10.6753 158.687 11.0557 158.687 11.485V16H157.434V11.485C157.434 10.9297 157.313 10.5097 157.07 10.225C156.827 9.93567 156.477 9.791 156.02 9.791C155.815 9.791 155.619 9.82833 155.432 9.903C155.25 9.973 155.089 10.078 154.949 10.218C154.809 10.358 154.697 10.5353 154.613 10.75C154.534 10.96 154.494 11.205 154.494 11.485V16H153.241V11.485C153.241 10.9157 153.127 10.491 152.898 10.211C152.669 9.931 152.336 9.791 151.897 9.791C151.589 9.791 151.304 9.875 151.043 10.043C150.782 10.2063 150.541 10.4303 150.322 10.715V16H149.069ZM161.834 14.292C162.062 14.6 162.312 14.817 162.583 14.943C162.858 15.069 163.159 15.132 163.486 15.132C164.153 15.132 164.664 14.8963 165.019 14.425C165.373 13.9537 165.551 13.2513 165.551 12.318C165.551 11.45 165.392 10.813 165.075 10.407C164.762 9.99633 164.314 9.791 163.731 9.791C163.325 9.791 162.97 9.88433 162.667 10.071C162.368 10.2577 162.09 10.5213 161.834 10.862V14.292ZM161.834 9.931C162.132 9.58567 162.468 9.31033 162.842 9.105C163.22 8.89967 163.654 8.797 164.144 8.797C164.559 8.797 164.932 8.87633 165.264 9.035C165.6 9.19367 165.884 9.42467 166.118 9.728C166.351 10.0267 166.528 10.3907 166.65 10.82C166.776 11.2493 166.839 11.7323 166.839 12.269C166.839 12.843 166.769 13.3657 166.629 13.837C166.489 14.3083 166.286 14.712 166.02 15.048C165.758 15.3793 165.439 15.6383 165.061 15.825C164.683 16.007 164.258 16.098 163.787 16.098C163.32 16.098 162.926 16.0117 162.604 15.839C162.286 15.6617 162.009 15.412 161.771 15.09L161.708 15.734C161.67 15.9113 161.563 16 161.386 16H160.581V5.689H161.834V9.931ZM173.161 11.681C173.161 11.3917 173.119 11.128 173.035 10.89C172.955 10.6473 172.836 10.4397 172.678 10.267C172.524 10.0897 172.335 9.95433 172.111 9.861C171.887 9.763 171.632 9.714 171.348 9.714C170.75 9.714 170.277 9.889 169.927 10.239C169.581 10.5843 169.367 11.065 169.283 11.681H173.161ZM174.169 15.006C174.015 15.1927 173.83 15.356 173.616 15.496C173.401 15.6313 173.17 15.7433 172.923 15.832C172.68 15.9207 172.428 15.986 172.167 16.028C171.905 16.0747 171.646 16.098 171.39 16.098C170.9 16.098 170.447 16.0163 170.032 15.853C169.621 15.685 169.264 15.4423 168.961 15.125C168.662 14.803 168.429 14.4063 168.261 13.935C168.093 13.4637 168.009 12.9223 168.009 12.311C168.009 11.8163 168.083 11.3543 168.233 10.925C168.387 10.4957 168.606 10.1247 168.891 9.812C169.175 9.49467 169.523 9.24733 169.934 9.07C170.344 8.888 170.806 8.797 171.32 8.797C171.744 8.797 172.136 8.86933 172.496 9.014C172.86 9.154 173.172 9.35933 173.434 9.63C173.7 9.896 173.907 10.2273 174.057 10.624C174.206 11.016 174.281 11.464 174.281 11.968C174.281 12.164 174.26 12.2947 174.218 12.36C174.176 12.4253 174.096 12.458 173.98 12.458H169.241C169.255 12.906 169.315 13.2957 169.423 13.627C169.535 13.9583 169.689 14.236 169.885 14.46C170.081 14.6793 170.314 14.845 170.585 14.957C170.855 15.0643 171.159 15.118 171.495 15.118C171.807 15.118 172.076 15.083 172.3 15.013C172.528 14.9383 172.724 14.859 172.888 14.775C173.051 14.691 173.186 14.614 173.294 14.544C173.406 14.4693 173.501 14.432 173.581 14.432C173.683 14.432 173.763 14.4717 173.819 14.551L174.169 15.006ZM176.994 10.33C177.218 9.84467 177.494 9.46667 177.82 9.196C178.147 8.92067 178.546 8.783 179.017 8.783C179.167 8.783 179.309 8.79933 179.444 8.832C179.584 8.86467 179.708 8.916 179.815 8.986L179.724 9.917C179.696 10.0337 179.626 10.092 179.514 10.092C179.449 10.092 179.353 10.078 179.227 10.05C179.101 10.022 178.959 10.008 178.8 10.008C178.576 10.008 178.376 10.0407 178.198 10.106C178.026 10.1713 177.869 10.2693 177.729 10.4C177.594 10.526 177.47 10.6847 177.358 10.876C177.251 11.0627 177.153 11.2773 177.064 11.52V16H175.811V8.909H176.525C176.661 8.909 176.754 8.93467 176.805 8.986C176.857 9.03733 176.892 9.126 176.91 9.252L176.994 10.33ZM188.315 12.381V8.244C188.315 8.12267 188.32 7.98967 188.329 7.845C188.338 7.70033 188.352 7.55333 188.371 7.404L184.717 12.381H188.315ZM190.926 12.381V13.095C190.926 13.1697 190.903 13.2327 190.856 13.284C190.814 13.3353 190.746 13.361 190.653 13.361H189.407V16H188.315V13.361H183.863C183.77 13.361 183.688 13.3353 183.618 13.284C183.553 13.228 183.511 13.1603 183.492 13.081L183.366 12.444L188.245 5.969H189.407V12.381H190.926ZM192.236 17.694C192.199 17.6613 192.173 17.631 192.159 17.603C192.145 17.575 192.138 17.54 192.138 17.498C192.138 17.4653 192.148 17.4327 192.166 17.4C192.19 17.3673 192.215 17.337 192.243 17.309C192.29 17.2577 192.348 17.19 192.418 17.106C192.493 17.022 192.568 16.9217 192.642 16.805C192.717 16.693 192.785 16.567 192.845 16.427C192.911 16.2917 192.957 16.147 192.985 15.993C192.971 15.9977 192.955 16 192.936 16C192.922 16 192.908 16 192.894 16C192.652 16 192.453 15.9207 192.299 15.762C192.15 15.5987 192.075 15.391 192.075 15.139C192.075 14.9197 192.15 14.733 192.299 14.579C192.453 14.425 192.656 14.348 192.908 14.348C193.048 14.348 193.172 14.3737 193.279 14.425C193.387 14.4763 193.475 14.5487 193.545 14.642C193.62 14.7307 193.676 14.8357 193.713 14.957C193.751 15.0737 193.769 15.202 193.769 15.342C193.769 15.552 193.739 15.7713 193.678 16C193.622 16.224 193.536 16.4457 193.419 16.665C193.307 16.889 193.17 17.106 193.006 17.316C192.843 17.526 192.656 17.7197 192.446 17.897L192.236 17.694ZM204.989 14.817C205.124 14.817 205.232 14.8567 205.311 14.936C205.39 15.0153 205.43 15.118 205.43 15.244V16H198.738V15.573C198.738 15.4843 198.757 15.3933 198.794 15.3C198.831 15.2067 198.89 15.1203 198.969 15.041L202.182 11.814C202.448 11.5433 202.691 11.2843 202.91 11.037C203.129 10.785 203.316 10.533 203.47 10.281C203.624 10.029 203.743 9.77467 203.827 9.518C203.911 9.25667 203.953 8.979 203.953 8.685C203.953 8.391 203.906 8.13433 203.813 7.915C203.72 7.691 203.591 7.50667 203.428 7.362C203.269 7.21733 203.08 7.11 202.861 7.04C202.642 6.96533 202.406 6.928 202.154 6.928C201.897 6.928 201.662 6.96533 201.447 7.04C201.232 7.11467 201.041 7.21967 200.873 7.355C200.71 7.48567 200.572 7.642 200.46 7.824C200.348 8.006 200.269 8.20667 200.222 8.426C200.166 8.58933 200.089 8.699 199.991 8.755C199.898 8.80633 199.765 8.82033 199.592 8.797L198.941 8.685C199.006 8.22767 199.132 7.824 199.319 7.474C199.51 7.11933 199.748 6.823 200.033 6.585C200.322 6.347 200.651 6.16733 201.02 6.046C201.389 5.92 201.788 5.857 202.217 5.857C202.642 5.857 203.038 5.92 203.407 6.046C203.776 6.172 204.095 6.35633 204.366 6.599C204.637 6.837 204.849 7.12867 205.003 7.474C205.157 7.81933 205.234 8.21133 205.234 8.65C205.234 9.02333 205.178 9.371 205.066 9.693C204.954 10.0103 204.802 10.3137 204.611 10.603C204.42 10.8923 204.198 11.1747 203.946 11.45C203.699 11.7253 203.435 12.003 203.155 12.283L200.509 14.985C200.696 14.9337 200.885 14.894 201.076 14.866C201.267 14.8333 201.452 14.817 201.629 14.817H204.989ZM213.901 10.988C213.901 11.8653 213.806 12.626 213.614 13.27C213.428 13.9093 213.171 14.439 212.844 14.859C212.518 15.279 212.13 15.5917 211.682 15.797C211.239 16.0023 210.763 16.105 210.254 16.105C209.741 16.105 209.263 16.0023 208.819 15.797C208.381 15.5917 207.998 15.279 207.671 14.859C207.345 14.439 207.088 13.9093 206.901 13.27C206.715 12.626 206.621 11.8653 206.621 10.988C206.621 10.1107 206.715 9.35 206.901 8.706C207.088 8.062 207.345 7.53 207.671 7.11C207.998 6.68533 208.381 6.37033 208.819 6.165C209.263 5.95967 209.741 5.857 210.254 5.857C210.763 5.857 211.239 5.95967 211.682 6.165C212.13 6.37033 212.518 6.68533 212.844 7.11C213.171 7.53 213.428 8.062 213.614 8.706C213.806 9.35 213.901 10.1107 213.901 10.988ZM212.606 10.988C212.606 10.2227 212.541 9.581 212.41 9.063C212.284 8.54033 212.112 8.12033 211.892 7.803C211.678 7.48567 211.428 7.25933 211.143 7.124C210.859 6.984 210.562 6.914 210.254 6.914C209.946 6.914 209.65 6.984 209.365 7.124C209.081 7.25933 208.831 7.48567 208.616 7.803C208.402 8.12033 208.229 8.54033 208.098 9.063C207.972 9.581 207.909 10.2227 207.909 10.988C207.909 11.7533 207.972 12.395 208.098 12.913C208.229 13.431 208.402 13.8487 208.616 14.166C208.831 14.4833 209.081 14.712 209.365 14.852C209.65 14.9873 209.946 15.055 210.254 15.055C210.562 15.055 210.859 14.9873 211.143 14.852C211.428 14.712 211.678 14.4833 211.892 14.166C212.112 13.8487 212.284 13.431 212.41 12.913C212.541 12.395 212.606 11.7533 212.606 10.988ZM221.231 14.817C221.367 14.817 221.474 14.8567 221.553 14.936C221.633 15.0153 221.672 15.118 221.672 15.244V16H214.98V15.573C214.98 15.4843 214.999 15.3933 215.036 15.3C215.074 15.2067 215.132 15.1203 215.211 15.041L218.424 11.814C218.69 11.5433 218.933 11.2843 219.152 11.037C219.372 10.785 219.558 10.533 219.712 10.281C219.866 10.029 219.985 9.77467 220.069 9.518C220.153 9.25667 220.195 8.979 220.195 8.685C220.195 8.391 220.149 8.13433 220.055 7.915C219.962 7.691 219.834 7.50667 219.67 7.362C219.512 7.21733 219.323 7.11 219.103 7.04C218.884 6.96533 218.648 6.928 218.396 6.928C218.14 6.928 217.904 6.96533 217.689 7.04C217.475 7.11467 217.283 7.21967 217.115 7.355C216.952 7.48567 216.814 7.642 216.702 7.824C216.59 8.006 216.511 8.20667 216.464 8.426C216.408 8.58933 216.331 8.699 216.233 8.755C216.14 8.80633 216.007 8.82033 215.834 8.797L215.183 8.685C215.249 8.22767 215.375 7.824 215.561 7.474C215.753 7.11933 215.991 6.823 216.275 6.585C216.565 6.347 216.894 6.16733 217.262 6.046C217.631 5.92 218.03 5.857 218.459 5.857C218.884 5.857 219.281 5.92 219.649 6.046C220.018 6.172 220.338 6.35633 220.608 6.599C220.879 6.837 221.091 7.12867 221.245 7.474C221.399 7.81933 221.476 8.21133 221.476 8.65C221.476 9.02333 221.42 9.371 221.308 9.693C221.196 10.0103 221.045 10.3137 220.853 10.603C220.662 10.8923 220.44 11.1747 220.188 11.45C219.941 11.7253 219.677 12.003 219.397 12.283L216.751 14.985C216.938 14.9337 217.127 14.894 217.318 14.866C217.51 14.8333 217.694 14.817 217.871 14.817H221.231ZM230.143 10.988C230.143 11.8653 230.048 12.626 229.856 13.27C229.67 13.9093 229.413 14.439 229.086 14.859C228.76 15.279 228.372 15.5917 227.924 15.797C227.481 16.0023 227.005 16.105 226.496 16.105C225.983 16.105 225.505 16.0023 225.061 15.797C224.623 15.5917 224.24 15.279 223.913 14.859C223.587 14.439 223.33 13.9093 223.143 13.27C222.957 12.626 222.863 11.8653 222.863 10.988C222.863 10.1107 222.957 9.35 223.143 8.706C223.33 8.062 223.587 7.53 223.913 7.11C224.24 6.68533 224.623 6.37033 225.061 6.165C225.505 5.95967 225.983 5.857 226.496 5.857C227.005 5.857 227.481 5.95967 227.924 6.165C228.372 6.37033 228.76 6.68533 229.086 7.11C229.413 7.53 229.67 8.062 229.856 8.706C230.048 9.35 230.143 10.1107 230.143 10.988ZM228.848 10.988C228.848 10.2227 228.783 9.581 228.652 9.063C228.526 8.54033 228.354 8.12033 228.134 7.803C227.92 7.48567 227.67 7.25933 227.385 7.124C227.101 6.984 226.804 6.914 226.496 6.914C226.188 6.914 225.892 6.984 225.607 7.124C225.323 7.25933 225.073 7.48567 224.858 7.803C224.644 8.12033 224.471 8.54033 224.34 9.063C224.214 9.581 224.151 10.2227 224.151 10.988C224.151 11.7533 224.214 12.395 224.34 12.913C224.471 13.431 224.644 13.8487 224.858 14.166C225.073 14.4833 225.323 14.712 225.607 14.852C225.892 14.9873 226.188 15.055 226.496 15.055C226.804 15.055 227.101 14.9873 227.385 14.852C227.67 14.712 227.92 14.4833 228.134 14.166C228.354 13.8487 228.526 13.431 228.652 12.913C228.783 12.395 228.848 11.7533 228.848 10.988Z" fill="#787A80"/>
</g>
<line x1="243.5" y1="5" x2="243.5" y2="16" stroke="#787A80" stroke-linecap="round"/>
<g clip-path="url(#clip2_2913_1111)">
<path d="M263.667 6.83268C263.667 6.46449 263.368 6.16602 263 6.16602C262.632 6.16602 262.333 6.46449 262.333 6.83268V10.4993C262.333 10.6762 262.403 10.8457 262.528 10.9708L264.528 12.9708C264.789 13.2311 265.211 13.2311 265.471 12.9708C265.732 12.7104 265.732 12.2883 265.471 12.0279L263.667 10.2232V6.83268Z" fill="#787A80"/>
<path fill-rule="evenodd" clip-rule="evenodd" d="M263 3.16602C258.95 3.16602 255.667 6.44926 255.667 10.4993C255.667 14.5494 258.95 17.8327 263 17.8327C267.05 17.8327 270.333 14.5494 270.333 10.4993C270.333 6.44926 267.05 3.16602 263 3.16602ZM257 10.4993C257 7.18564 259.686 4.49935 263 4.49935C266.314 4.49935 269 7.18564 269 10.4993C269 13.8131 266.314 16.4993 263 16.4993C259.686 16.4993 257 13.8131 257 10.4993Z" fill="#787A80"/>
<path d="M279.91 8.685C279.975 8.22767 280.101 7.824 280.288 7.474C280.475 7.11933 280.71 6.823 280.995 6.585C281.284 6.347 281.613 6.16733 281.982 6.046C282.355 5.92 282.757 5.857 283.186 5.857C283.611 5.857 284.003 5.91767 284.362 6.039C284.721 6.16033 285.029 6.333 285.286 6.557C285.547 6.781 285.75 7.05167 285.895 7.369C286.04 7.68633 286.112 8.03867 286.112 8.426C286.112 8.74333 286.07 9.028 285.986 9.28C285.907 9.52733 285.79 9.74433 285.636 9.931C285.487 10.1177 285.305 10.2763 285.09 10.407C284.875 10.5377 284.635 10.645 284.369 10.729C285.022 10.897 285.512 11.1863 285.839 11.597C286.17 12.003 286.336 12.5117 286.336 13.123C286.336 13.585 286.247 14.0003 286.07 14.369C285.897 14.7377 285.659 15.0527 285.356 15.314C285.053 15.5707 284.698 15.769 284.292 15.909C283.891 16.0443 283.459 16.112 282.997 16.112C282.465 16.112 282.01 16.0467 281.632 15.916C281.254 15.7807 280.934 15.5963 280.673 15.363C280.412 15.1297 280.197 14.8543 280.029 14.537C279.861 14.215 279.719 13.8673 279.602 13.494L280.141 13.27C280.281 13.2093 280.416 13.193 280.547 13.221C280.682 13.249 280.78 13.326 280.841 13.452C280.902 13.5827 280.976 13.739 281.065 13.921C281.158 14.103 281.284 14.278 281.443 14.446C281.602 14.614 281.802 14.7563 282.045 14.873C282.292 14.9897 282.605 15.048 282.983 15.048C283.333 15.048 283.639 14.992 283.9 14.88C284.166 14.7633 284.385 14.614 284.558 14.432C284.735 14.25 284.868 14.047 284.957 13.823C285.046 13.599 285.09 13.3773 285.09 13.158C285.09 12.8873 285.055 12.64 284.985 12.416C284.915 12.192 284.784 11.9983 284.593 11.835C284.402 11.6717 284.138 11.5433 283.802 11.45C283.471 11.3567 283.044 11.31 282.521 11.31V10.407C282.95 10.4023 283.314 10.3557 283.613 10.267C283.916 10.1783 284.161 10.057 284.348 9.903C284.539 9.749 284.677 9.56467 284.761 9.35C284.85 9.13533 284.894 8.89733 284.894 8.636C284.894 8.34667 284.847 8.09467 284.754 7.88C284.665 7.66533 284.542 7.488 284.383 7.348C284.224 7.208 284.035 7.103 283.816 7.033C283.601 6.963 283.368 6.928 283.116 6.928C282.864 6.928 282.628 6.96533 282.409 7.04C282.194 7.11467 282.003 7.21967 281.835 7.355C281.672 7.48567 281.534 7.642 281.422 7.824C281.31 8.006 281.231 8.20667 281.184 8.426C281.123 8.58933 281.046 8.699 280.953 8.755C280.864 8.80633 280.734 8.82033 280.561 8.797L279.91 8.685ZM291.167 15.076C291.503 15.076 291.806 15.0223 292.077 14.915C292.352 14.8077 292.586 14.6583 292.777 14.467C292.973 14.2757 293.122 14.0493 293.225 13.788C293.332 13.5267 293.386 13.242 293.386 12.934C293.386 12.6073 293.335 12.3133 293.232 12.052C293.129 11.786 292.982 11.562 292.791 11.38C292.604 11.1933 292.38 11.051 292.119 10.953C291.858 10.855 291.571 10.806 291.258 10.806C290.922 10.806 290.619 10.8643 290.348 10.981C290.077 11.093 289.846 11.247 289.655 11.443C289.468 11.6343 289.324 11.8583 289.221 12.115C289.123 12.367 289.074 12.6307 289.074 12.906C289.074 13.228 289.121 13.522 289.214 13.788C289.307 14.054 289.443 14.2827 289.62 14.474C289.802 14.6653 290.021 14.8147 290.278 14.922C290.539 15.0247 290.836 15.076 291.167 15.076ZM290.439 9.728C290.35 9.84 290.264 9.94967 290.18 10.057C290.101 10.1597 290.024 10.2623 289.949 10.365C290.187 10.2017 290.448 10.0757 290.733 9.987C291.018 9.89833 291.328 9.854 291.664 9.854C292.07 9.854 292.453 9.92167 292.812 10.057C293.171 10.1877 293.484 10.3813 293.75 10.638C294.021 10.89 294.235 11.2027 294.394 11.576C294.553 11.9447 294.632 12.367 294.632 12.843C294.632 13.305 294.548 13.7343 294.38 14.131C294.212 14.5277 293.976 14.873 293.673 15.167C293.374 15.461 293.013 15.692 292.588 15.86C292.168 16.028 291.704 16.112 291.195 16.112C290.691 16.112 290.234 16.0327 289.823 15.874C289.412 15.7107 289.062 15.482 288.773 15.188C288.488 14.8893 288.267 14.53 288.108 14.11C287.954 13.6853 287.877 13.2117 287.877 12.689C287.877 12.2503 287.973 11.7837 288.164 11.289C288.36 10.7897 288.67 10.2577 289.095 9.693L291.643 6.27C291.708 6.186 291.797 6.116 291.909 6.06C292.026 5.99933 292.159 5.969 292.308 5.969H293.414L290.439 9.728ZM299.811 16V8.909H300.56C300.738 8.909 300.847 8.99533 300.889 9.168L300.98 9.896C301.242 9.574 301.536 9.31033 301.862 9.105C302.189 8.89967 302.567 8.797 302.996 8.797C303.472 8.797 303.857 8.93 304.151 9.196C304.45 9.462 304.665 9.82133 304.795 10.274C304.898 10.0173 305.029 9.79567 305.187 9.609C305.351 9.42233 305.533 9.26833 305.733 9.147C305.934 9.02567 306.146 8.937 306.37 8.881C306.599 8.825 306.83 8.797 307.063 8.797C307.437 8.797 307.768 8.85767 308.057 8.979C308.351 9.09567 308.599 9.26833 308.799 9.497C309.005 9.72567 309.161 10.008 309.268 10.344C309.376 10.6753 309.429 11.0557 309.429 11.485V16H308.176V11.485C308.176 10.9297 308.055 10.5097 307.812 10.225C307.57 9.93567 307.22 9.791 306.762 9.791C306.557 9.791 306.361 9.82833 306.174 9.903C305.992 9.973 305.831 10.078 305.691 10.218C305.551 10.358 305.439 10.5353 305.355 10.75C305.276 10.96 305.236 11.205 305.236 11.485V16H303.983V11.485C303.983 10.9157 303.869 10.491 303.64 10.211C303.412 9.931 303.078 9.791 302.639 9.791C302.331 9.791 302.047 9.875 301.785 10.043C301.524 10.2063 301.284 10.4303 301.064 10.715V16H299.811ZM312.639 8.909V16H311.393V8.909H312.639ZM312.905 6.683C312.905 6.80433 312.879 6.91867 312.828 7.026C312.781 7.12867 312.716 7.222 312.632 7.306C312.553 7.38533 312.457 7.44833 312.345 7.495C312.238 7.54167 312.123 7.565 312.002 7.565C311.881 7.565 311.766 7.54167 311.659 7.495C311.556 7.44833 311.465 7.38533 311.386 7.306C311.307 7.222 311.244 7.12867 311.197 7.026C311.15 6.91867 311.127 6.80433 311.127 6.683C311.127 6.56167 311.15 6.44733 311.197 6.34C311.244 6.228 311.307 6.13233 311.386 6.053C311.465 5.969 311.556 5.90367 311.659 5.857C311.766 5.81033 311.881 5.787 312.002 5.787C312.123 5.787 312.238 5.81033 312.345 5.857C312.457 5.90367 312.553 5.969 312.632 6.053C312.716 6.13233 312.781 6.228 312.828 6.34C312.879 6.44733 312.905 6.56167 312.905 6.683ZM315.862 9.938C316.016 9.76533 316.18 9.609 316.352 9.469C316.525 9.329 316.707 9.21 316.898 9.112C317.094 9.00933 317.3 8.93233 317.514 8.881C317.734 8.825 317.969 8.797 318.221 8.797C318.609 8.797 318.949 8.86233 319.243 8.993C319.542 9.119 319.789 9.301 319.985 9.539C320.186 9.77233 320.338 10.0547 320.44 10.386C320.543 10.7173 320.594 11.0837 320.594 11.485V16H319.341V11.485C319.341 10.9483 319.218 10.533 318.97 10.239C318.728 9.94033 318.357 9.791 317.857 9.791C317.489 9.791 317.143 9.87967 316.821 10.057C316.504 10.2343 316.21 10.4747 315.939 10.778V16H314.686V8.909H315.435C315.613 8.909 315.722 8.99533 315.764 9.168L315.862 9.938Z" fill="#787A80"/>
</g>
</g>
<defs>
<clipPath id="clip0_2913_1111">
<rect width="322" height="21" fill="white"/>
</clipPath>
<clipPath id="clip1_2913_1111">
<rect width="142" height="21" fill="white" transform="translate(89)"/>
</clipPath>
<clipPath id="clip2_2913_1111">
<rect width="67" height="21" fill="white" transform="translate(255)"/>
</clipPath>
</defs>
</svg>
