<svg width="252" height="92" viewBox="0 0 252 92" fill="none" xmlns="http://www.w3.org/2000/svg">
<g clip-path="url(#clip0_2234_10327)">
<path d="M12.264 12.216C12.264 13.064 12.1227 13.8507 11.84 14.576C11.5573 15.296 11.16 15.92 10.648 16.448C10.136 16.976 9.52 17.3893 8.8 17.688C8.08 17.9813 7.28267 18.128 6.408 18.128C5.53333 18.128 4.73333 17.9813 4.008 17.688C3.288 17.3893 2.66933 16.976 2.152 16.448C1.64 15.92 1.24267 15.296 0.96 14.576C0.677333 13.8507 0.536 13.064 0.536 12.216C0.536 11.368 0.677333 10.584 0.96 9.864C1.24267 9.13867 1.64 8.512 2.152 7.984C2.66933 7.456 3.288 7.04533 4.008 6.752C4.73333 6.45333 5.53333 6.304 6.408 6.304C7.28267 6.304 8.08 6.45333 8.8 6.752C9.52 7.05067 10.136 7.464 10.648 7.992C11.16 8.51467 11.5573 9.13867 11.84 9.864C12.1227 10.584 12.264 11.368 12.264 12.216ZM10.056 12.216C10.056 11.5813 9.97067 11.0133 9.8 10.512C9.63467 10.0053 9.39467 9.576 9.08 9.224C8.76533 8.872 8.38133 8.60267 7.928 8.416C7.48 8.22933 6.97333 8.136 6.408 8.136C5.84267 8.136 5.33333 8.22933 4.88 8.416C4.42667 8.60267 4.04 8.872 3.72 9.224C3.40533 9.576 3.16267 10.0053 2.992 10.512C2.82133 11.0133 2.736 11.5813 2.736 12.216C2.736 12.8507 2.82133 13.4213 2.992 13.928C3.16267 14.4293 3.40533 14.856 3.72 15.208C4.04 15.5547 4.42667 15.8213 4.88 16.008C5.33333 16.1947 5.84267 16.288 6.408 16.288C6.97333 16.288 7.48 16.1947 7.928 16.008C8.38133 15.8213 8.76533 15.5547 9.08 15.208C9.39467 14.856 9.63467 14.4293 9.8 13.928C9.97067 13.4213 10.056 12.8507 10.056 12.216ZM19.6209 16.264C20.0369 16.264 20.4075 16.1947 20.7329 16.056C21.0635 15.9173 21.3409 15.7227 21.5649 15.472C21.7942 15.2213 21.9675 14.9173 22.0849 14.56C22.2075 14.2027 22.2689 13.8027 22.2689 13.36V6.432H24.4209V13.36C24.4209 14.048 24.3089 14.6853 24.0849 15.272C23.8662 15.8533 23.5489 16.3573 23.1329 16.784C22.7169 17.2053 22.2129 17.536 21.6209 17.776C21.0289 18.0107 20.3622 18.128 19.6209 18.128C18.8795 18.128 18.2129 18.0107 17.6209 17.776C17.0289 17.536 16.5249 17.2053 16.1089 16.784C15.6982 16.3573 15.3809 15.8533 15.1569 15.272C14.9382 14.6853 14.8289 14.048 14.8289 13.36V6.432H16.9809V13.352C16.9809 13.7947 17.0395 14.1947 17.1569 14.552C17.2795 14.9093 17.4529 15.216 17.6769 15.472C17.9009 15.7227 18.1755 15.9173 18.5009 16.056C18.8315 16.1947 19.2049 16.264 19.6209 16.264ZM29.8295 13.48V18H27.6775V6.432H31.2055C31.9948 6.432 32.6695 6.51467 33.2295 6.68C33.7948 6.84 34.2562 7.06667 34.6135 7.36C34.9762 7.65333 35.2402 8.00533 35.4055 8.416C35.5762 8.82133 35.6615 9.26933 35.6615 9.76C35.6615 10.1493 35.6028 10.5173 35.4855 10.864C35.3735 11.2107 35.2082 11.5253 34.9895 11.808C34.7762 12.0907 34.5095 12.3387 34.1895 12.552C33.8748 12.7653 33.5148 12.936 33.1095 13.064C33.3815 13.2187 33.6162 13.44 33.8135 13.728L36.7095 18H34.7735C34.5868 18 34.4268 17.9627 34.2935 17.888C34.1655 17.8133 34.0562 17.7067 33.9655 17.568L31.5335 13.864C31.4428 13.7253 31.3415 13.6267 31.2295 13.568C31.1228 13.5093 30.9628 13.48 30.7495 13.48H29.8295ZM29.8295 11.936H31.1735C31.5788 11.936 31.9308 11.8853 32.2295 11.784C32.5335 11.6827 32.7815 11.544 32.9735 11.368C33.1708 11.1867 33.3175 10.9733 33.4135 10.728C33.5095 10.4827 33.5575 10.2133 33.5575 9.92C33.5575 9.33333 33.3628 8.88267 32.9735 8.568C32.5895 8.25333 32.0002 8.096 31.2055 8.096H29.8295V11.936ZM43.1836 18V6.432H47.1756C47.933 6.432 48.5783 6.504 49.1116 6.648C49.6503 6.792 50.0903 6.99733 50.4316 7.264C50.7783 7.53067 51.0316 7.85333 51.1916 8.232C51.3516 8.61067 51.4316 9.03733 51.4316 9.512C51.4316 9.784 51.3916 10.0453 51.3116 10.296C51.2316 10.5413 51.1063 10.7733 50.9356 10.992C50.7703 11.2053 50.557 11.4 50.2956 11.576C50.0396 11.752 49.733 11.9013 49.3756 12.024C50.965 12.3813 51.7596 13.24 51.7596 14.6C51.7596 15.0907 51.6663 15.544 51.4796 15.96C51.293 16.376 51.021 16.736 50.6636 17.04C50.3063 17.3387 49.8663 17.5733 49.3436 17.744C48.821 17.9147 48.2236 18 47.5516 18H43.1836ZM45.3356 12.928V16.32H47.5196C47.9196 16.32 48.253 16.272 48.5196 16.176C48.7916 16.08 49.0076 15.952 49.1676 15.792C49.333 15.632 49.4503 15.4453 49.5196 15.232C49.5943 15.0187 49.6316 14.792 49.6316 14.552C49.6316 14.3013 49.5916 14.0773 49.5116 13.88C49.4316 13.6773 49.3063 13.5067 49.1356 13.368C48.965 13.224 48.7463 13.1147 48.4796 13.04C48.213 12.9653 47.8903 12.928 47.5116 12.928H45.3356ZM45.3356 11.44H47.0556C47.7863 11.44 48.341 11.3067 48.7196 11.04C49.0983 10.7733 49.2876 10.3493 49.2876 9.768C49.2876 9.16533 49.117 8.736 48.7756 8.48C48.4343 8.224 47.901 8.096 47.1756 8.096H45.3356V11.44ZM56.7575 16.224H61.3895V18H54.6055V6.432H56.7575V16.224ZM74.3265 12.216C74.3265 13.064 74.1852 13.8507 73.9025 14.576C73.6198 15.296 73.2225 15.92 72.7105 16.448C72.1985 16.976 71.5825 17.3893 70.8625 17.688C70.1425 17.9813 69.3452 18.128 68.4705 18.128C67.5958 18.128 66.7958 17.9813 66.0705 17.688C65.3505 17.3893 64.7318 16.976 64.2145 16.448C63.7025 15.92 63.3052 15.296 63.0225 14.576C62.7398 13.8507 62.5985 13.064 62.5985 12.216C62.5985 11.368 62.7398 10.584 63.0225 9.864C63.3052 9.13867 63.7025 8.512 64.2145 7.984C64.7318 7.456 65.3505 7.04533 66.0705 6.752C66.7958 6.45333 67.5958 6.304 68.4705 6.304C69.3452 6.304 70.1425 6.45333 70.8625 6.752C71.5825 7.05067 72.1985 7.464 72.7105 7.992C73.2225 8.51467 73.6198 9.13867 73.9025 9.864C74.1852 10.584 74.3265 11.368 74.3265 12.216ZM72.1185 12.216C72.1185 11.5813 72.0332 11.0133 71.8625 10.512C71.6972 10.0053 71.4572 9.576 71.1425 9.224C70.8278 8.872 70.4438 8.60267 69.9905 8.416C69.5425 8.22933 69.0358 8.136 68.4705 8.136C67.9052 8.136 67.3958 8.22933 66.9425 8.416C66.4892 8.60267 66.1025 8.872 65.7825 9.224C65.4678 9.576 65.2252 10.0053 65.0545 10.512C64.8838 11.0133 64.7985 11.5813 64.7985 12.216C64.7985 12.8507 64.8838 13.4213 65.0545 13.928C65.2252 14.4293 65.4678 14.856 65.7825 15.208C66.1025 15.5547 66.4892 15.8213 66.9425 16.008C67.3958 16.1947 67.9052 16.288 68.4705 16.288C69.0358 16.288 69.5425 16.1947 69.9905 16.008C70.4438 15.8213 70.8278 15.5547 71.1425 15.208C71.4572 14.856 71.6972 14.4293 71.8625 13.928C72.0332 13.4213 72.1185 12.8507 72.1185 12.216ZM82.3394 16.416C82.8247 16.416 83.246 16.3733 83.6034 16.288C83.966 16.1973 84.31 16.0747 84.6354 15.92V13.816H83.1874C83.0487 13.816 82.9394 13.7787 82.8594 13.704C82.7794 13.624 82.7394 13.528 82.7394 13.416V12.2H86.5874V16.88C86.294 17.0933 85.9874 17.28 85.6674 17.44C85.3527 17.5947 85.014 17.7227 84.6514 17.824C84.294 17.9253 83.91 18 83.4994 18.048C83.0887 18.1013 82.646 18.128 82.1714 18.128C81.3287 18.128 80.5527 17.9813 79.8434 17.688C79.134 17.3947 78.5207 16.9867 78.0034 16.464C77.486 15.9413 77.0807 15.3173 76.7874 14.592C76.4994 13.8667 76.3554 13.0747 76.3554 12.216C76.3554 11.3467 76.4967 10.5493 76.7794 9.824C77.062 9.09867 77.462 8.47467 77.9794 7.952C78.502 7.42933 79.134 7.024 79.8754 6.736C80.6167 6.448 81.4487 6.304 82.3714 6.304C83.3154 6.304 84.1314 6.44533 84.8194 6.728C85.5127 7.00533 86.0994 7.368 86.5794 7.816L85.9554 8.792C85.8327 8.98933 85.67 9.088 85.4674 9.088C85.3394 9.088 85.2087 9.04533 85.0754 8.96C84.9047 8.85867 84.7287 8.75733 84.5474 8.656C84.3714 8.55467 84.174 8.46667 83.9554 8.392C83.742 8.31733 83.4994 8.256 83.2274 8.208C82.9607 8.16 82.6514 8.136 82.2994 8.136C81.7287 8.136 81.2114 8.232 80.7474 8.424C80.2887 8.616 79.8967 8.89067 79.5714 9.248C79.246 9.60533 78.9954 10.0347 78.8194 10.536C78.6434 11.0373 78.5554 11.5973 78.5554 12.216C78.5554 12.8827 78.6487 13.4773 78.8354 14C79.022 14.5173 79.2834 14.9547 79.6194 15.312C79.9554 15.6693 80.3554 15.944 80.8194 16.136C81.2834 16.3227 81.79 16.416 82.3394 16.416Z" fill="#1E212C"/>
<path d="M10.534 73.79H22.954V80H2.76V46.489H10.534V73.79ZM43.0815 80C42.4069 80 41.8932 79.908 41.5405 79.724C41.2032 79.54 40.9195 79.1567 40.6895 78.574L40.1835 77.263C39.5855 77.769 39.0105 78.2137 38.4585 78.597C37.9065 78.9803 37.3315 79.31 36.7335 79.586C36.1508 79.8467 35.5222 80.0383 34.8475 80.161C34.1882 80.299 33.4522 80.368 32.6395 80.368C31.5508 80.368 30.5618 80.23 29.6725 79.954C28.7832 79.6627 28.0242 79.241 27.3955 78.689C26.7822 78.137 26.3068 77.4547 25.9695 76.642C25.6322 75.814 25.4635 74.8633 25.4635 73.79C25.4635 72.9467 25.6782 72.0803 26.1075 71.191C26.5368 70.3017 27.2805 69.4967 28.3385 68.776C29.3965 68.04 30.8225 67.4267 32.6165 66.936C34.4105 66.4453 36.6722 66.1693 39.4015 66.108V65.096C39.4015 63.7007 39.1102 62.6963 38.5275 62.083C37.9602 61.4543 37.1475 61.14 36.0895 61.14C35.2462 61.14 34.5562 61.232 34.0195 61.416C33.4828 61.6 32.9998 61.807 32.5705 62.037C32.1565 62.267 31.7502 62.474 31.3515 62.658C30.9528 62.842 30.4775 62.934 29.9255 62.934C29.4348 62.934 29.0132 62.819 28.6605 62.589C28.3232 62.3437 28.0548 62.0447 27.8555 61.692L26.5675 59.461C28.0088 58.1883 29.6035 57.2453 31.3515 56.632C33.1148 56.0033 35.0008 55.689 37.0095 55.689C38.4508 55.689 39.7465 55.9267 40.8965 56.402C42.0618 56.862 43.0432 57.5137 43.8405 58.357C44.6532 59.185 45.2742 60.174 45.7035 61.324C46.1329 62.474 46.3475 63.7313 46.3475 65.096V80H43.0815ZM34.8935 75.653C35.8135 75.653 36.6185 75.492 37.3085 75.17C37.9985 74.848 38.6962 74.3267 39.4015 73.606V70.294C37.9755 70.3553 36.8025 70.478 35.8825 70.662C34.9625 70.846 34.2342 71.076 33.6975 71.352C33.1608 71.628 32.7852 71.9423 32.5705 72.295C32.3712 72.6477 32.2715 73.031 32.2715 73.445C32.2715 74.2577 32.4938 74.8327 32.9385 75.17C33.3832 75.492 34.0348 75.653 34.8935 75.653ZM59.7824 80.368C58.6477 80.368 57.6434 80.207 56.7694 79.885C55.9107 79.5477 55.1824 79.08 54.5844 78.482C54.0017 77.8687 53.5571 77.1327 53.2504 76.274C52.9437 75.4153 52.7904 74.457 52.7904 73.399V61.071H50.7664C50.3984 61.071 50.0841 60.956 49.8234 60.726C49.5627 60.4807 49.4324 60.128 49.4324 59.668V56.885L53.2274 56.149L54.6304 50.33C54.8144 49.594 55.3357 49.226 56.1944 49.226H59.9204V56.195H65.7164V61.071H59.9204V72.916C59.9204 73.468 60.0507 73.928 60.3114 74.296C60.5874 74.6487 60.9784 74.825 61.4844 74.825C61.7451 74.825 61.9597 74.802 62.1284 74.756C62.3124 74.6947 62.4657 74.6333 62.5884 74.572C62.7264 74.4953 62.8491 74.434 62.9564 74.388C63.0791 74.3267 63.2171 74.296 63.3704 74.296C63.5851 74.296 63.7537 74.3497 63.8764 74.457C64.0144 74.549 64.1524 74.7023 64.2904 74.917L66.4524 78.298C65.5324 78.988 64.4974 79.5093 63.3474 79.862C62.1974 80.1993 61.0091 80.368 59.7824 80.368ZM80.0404 55.781C81.6197 55.781 83.061 56.0263 84.3644 56.517C85.683 57.0077 86.81 57.7207 87.7454 58.656C88.696 59.5913 89.432 60.7413 89.9534 62.106C90.49 63.4553 90.7584 64.9887 90.7584 66.706C90.7584 67.2427 90.7354 67.6797 90.6894 68.017C90.6434 68.3543 90.559 68.6227 90.4364 68.822C90.3137 69.0213 90.145 69.1593 89.9304 69.236C89.731 69.3127 89.4704 69.351 89.1484 69.351H75.3944C75.6244 71.3443 76.23 72.7933 77.2114 73.698C78.1927 74.5873 79.4577 75.032 81.0064 75.032C81.8344 75.032 82.5474 74.9323 83.1454 74.733C83.7434 74.5337 84.2724 74.3113 84.7324 74.066C85.2077 73.8207 85.637 73.5983 86.0204 73.399C86.419 73.1997 86.833 73.1 87.2624 73.1C87.8297 73.1 88.259 73.307 88.5504 73.721L90.6204 76.274C89.8844 77.1173 89.087 77.8073 88.2284 78.344C87.385 78.8653 86.511 79.2793 85.6064 79.586C84.717 79.8773 83.82 80.0767 82.9154 80.184C82.026 80.3067 81.175 80.368 80.3624 80.368C78.691 80.368 77.1194 80.0997 75.6474 79.563C74.1907 79.011 72.9104 78.1983 71.8064 77.125C70.7177 76.0517 69.8514 74.7177 69.2074 73.123C68.5787 71.5283 68.2644 69.673 68.2644 67.557C68.2644 65.9623 68.5327 64.452 69.0694 63.026C69.6214 61.6 70.4034 60.3503 71.4154 59.277C72.4427 58.2037 73.677 57.3527 75.1184 56.724C76.575 56.0953 78.2157 55.781 80.0404 55.781ZM80.1784 60.703C78.8137 60.703 77.748 61.094 76.9814 61.876C76.2147 62.6427 75.7087 63.7543 75.4634 65.211H84.3644C84.3644 64.6437 84.2877 64.0917 84.1344 63.555C83.9964 63.0183 83.7587 62.543 83.4214 62.129C83.0994 61.6997 82.67 61.3547 82.1334 61.094C81.5967 60.8333 80.945 60.703 80.1784 60.703ZM109.432 61.37C109.248 61.6613 109.049 61.8683 108.834 61.991C108.635 62.1137 108.374 62.175 108.052 62.175C107.715 62.175 107.377 62.106 107.04 61.968C106.703 61.8147 106.335 61.6537 105.936 61.485C105.553 61.3163 105.116 61.163 104.625 61.025C104.134 60.8717 103.575 60.795 102.946 60.795C102.041 60.795 101.344 60.9713 100.853 61.324C100.378 61.6613 100.14 62.1367 100.14 62.75C100.14 63.1947 100.293 63.5627 100.6 63.854C100.922 64.1453 101.344 64.406 101.865 64.636C102.386 64.8507 102.977 65.0577 103.636 65.257C104.295 65.4563 104.97 65.6787 105.66 65.924C106.35 66.1693 107.025 66.4607 107.684 66.798C108.343 67.12 108.934 67.5263 109.455 68.017C109.976 68.4923 110.39 69.075 110.697 69.765C111.019 70.455 111.18 71.283 111.18 72.249C111.18 73.4297 110.965 74.5183 110.536 75.515C110.107 76.5117 109.463 77.3703 108.604 78.091C107.761 78.8117 106.71 79.3713 105.453 79.77C104.211 80.1687 102.777 80.368 101.152 80.368C100.339 80.368 99.5265 80.2913 98.7138 80.138C97.9012 79.9847 97.1115 79.7777 96.3448 79.517C95.5935 79.2563 94.8958 78.9497 94.2518 78.597C93.6078 78.229 93.0558 77.838 92.5958 77.424L94.2518 74.802C94.4512 74.4953 94.6888 74.2577 94.9648 74.089C95.2408 73.905 95.6012 73.813 96.0458 73.813C96.4598 73.813 96.8278 73.905 97.1498 74.089C97.4872 74.273 97.8475 74.4723 98.2308 74.687C98.6142 74.9017 99.0588 75.101 99.5648 75.285C100.086 75.469 100.738 75.561 101.52 75.561C102.072 75.561 102.54 75.5073 102.923 75.4C103.306 75.2773 103.613 75.1163 103.843 74.917C104.073 74.7177 104.242 74.4953 104.349 74.25C104.456 74.0047 104.51 73.7517 104.51 73.491C104.51 73.0157 104.349 72.6247 104.027 72.318C103.705 72.0113 103.283 71.7507 102.762 71.536C102.241 71.306 101.643 71.099 100.968 70.915C100.309 70.7157 99.6338 70.4933 98.9438 70.248C98.2538 70.0027 97.5715 69.7113 96.8968 69.374C96.2375 69.0213 95.6472 68.5843 95.1258 68.063C94.6045 67.5263 94.1828 66.8747 93.8608 66.108C93.5388 65.3413 93.3778 64.4137 93.3778 63.325C93.3778 62.313 93.5695 61.3547 93.9528 60.45C94.3515 59.53 94.9418 58.725 95.7238 58.035C96.5058 57.345 97.4872 56.8007 98.6678 56.402C99.8485 55.988 101.229 55.781 102.808 55.781C103.667 55.781 104.495 55.8577 105.292 56.011C106.105 56.1643 106.864 56.379 107.569 56.655C108.274 56.931 108.918 57.2607 109.501 57.644C110.084 58.012 110.597 58.4183 111.042 58.863L109.432 61.37ZM123.482 80.368C122.347 80.368 121.343 80.207 120.469 79.885C119.61 79.5477 118.882 79.08 118.284 78.482C117.701 77.8687 117.256 77.1327 116.95 76.274C116.643 75.4153 116.49 74.457 116.49 73.399V61.071H114.466C114.098 61.071 113.783 60.956 113.523 60.726C113.262 60.4807 113.132 60.128 113.132 59.668V56.885L116.927 56.149L118.33 50.33C118.514 49.594 119.035 49.226 119.894 49.226H123.62V56.195H129.416V61.071H123.62V72.916C123.62 73.468 123.75 73.928 124.011 74.296C124.287 74.6487 124.678 74.825 125.184 74.825C125.444 74.825 125.659 74.802 125.828 74.756C126.012 74.6947 126.165 74.6333 126.288 74.572C126.426 74.4953 126.548 74.434 126.656 74.388C126.778 74.3267 126.916 74.296 127.07 74.296C127.284 74.296 127.453 74.3497 127.576 74.457C127.714 74.549 127.852 74.7023 127.99 74.917L130.152 78.298C129.232 78.988 128.197 79.5093 127.047 79.862C125.897 80.1993 124.708 80.368 123.482 80.368ZM142.422 87.567V56.149H146.838C147.283 56.149 147.651 56.2487 147.942 56.448C148.249 56.6473 148.463 56.9463 148.586 57.345L149.115 59.093C149.575 58.587 150.066 58.127 150.587 57.713C151.124 57.299 151.691 56.9463 152.289 56.655C152.902 56.3483 153.554 56.1107 154.244 55.942C154.949 55.7733 155.716 55.689 156.544 55.689C157.786 55.689 158.936 55.965 159.994 56.517C161.052 57.069 161.964 57.8663 162.731 58.909C163.498 59.9517 164.096 61.232 164.525 62.75C164.97 64.2527 165.192 65.9623 165.192 67.879C165.192 69.673 164.939 71.329 164.433 72.847C163.942 74.365 163.245 75.6837 162.34 76.803C161.451 77.9223 160.377 78.7963 159.12 79.425C157.878 80.0537 156.498 80.368 154.98 80.368C153.738 80.368 152.695 80.1917 151.852 79.839C151.009 79.4863 150.242 79.011 149.552 78.413V87.567H142.422ZM154.06 61.14C153.539 61.14 153.063 61.1937 152.634 61.301C152.22 61.393 151.829 61.531 151.461 61.715C151.108 61.899 150.779 62.1367 150.472 62.428C150.165 62.704 149.859 63.026 149.552 63.394V73.514C150.089 74.112 150.671 74.5337 151.3 74.779C151.929 75.009 152.588 75.124 153.278 75.124C153.937 75.124 154.543 74.9937 155.095 74.733C155.647 74.4723 156.122 74.0583 156.521 73.491C156.935 72.9083 157.257 72.157 157.487 71.237C157.717 70.317 157.832 69.1977 157.832 67.879C157.832 66.6217 157.74 65.5637 157.556 64.705C157.372 63.8463 157.111 63.1563 156.774 62.635C156.452 62.0983 156.061 61.715 155.601 61.485C155.141 61.255 154.627 61.14 154.06 61.14ZM179.642 55.781C181.451 55.781 183.1 56.0647 184.587 56.632C186.074 57.1993 187.347 58.012 188.405 59.07C189.478 60.128 190.306 61.416 190.889 62.934C191.487 64.4367 191.786 66.131 191.786 68.017C191.786 69.9183 191.487 71.6357 190.889 73.169C190.306 74.687 189.478 75.9827 188.405 77.056C187.347 78.114 186.074 78.9343 184.587 79.517C183.1 80.0843 181.451 80.368 179.642 80.368C177.817 80.368 176.154 80.0843 174.651 79.517C173.164 78.9343 171.876 78.114 170.787 77.056C169.714 75.9827 168.878 74.687 168.28 73.169C167.697 71.6357 167.406 69.9183 167.406 68.017C167.406 66.131 167.697 64.4367 168.28 62.934C168.878 61.416 169.714 60.128 170.787 59.07C171.876 58.012 173.164 57.1993 174.651 56.632C176.154 56.0647 177.817 55.781 179.642 55.781ZM179.642 75.078C181.283 75.078 182.486 74.503 183.253 73.353C184.035 72.1877 184.426 70.4243 184.426 68.063C184.426 65.7017 184.035 63.946 183.253 62.796C182.486 61.646 181.283 61.071 179.642 61.071C177.955 61.071 176.721 61.646 175.939 62.796C175.157 63.946 174.766 65.7017 174.766 68.063C174.766 70.4243 175.157 72.1877 175.939 73.353C176.721 74.503 177.955 75.078 179.642 75.078ZM210.281 61.37C210.097 61.6613 209.898 61.8683 209.683 61.991C209.484 62.1137 209.223 62.175 208.901 62.175C208.564 62.175 208.227 62.106 207.889 61.968C207.552 61.8147 207.184 61.6537 206.785 61.485C206.402 61.3163 205.965 61.163 205.474 61.025C204.984 60.8717 204.424 60.795 203.795 60.795C202.891 60.795 202.193 60.9713 201.702 61.324C201.227 61.6613 200.989 62.1367 200.989 62.75C200.989 63.1947 201.143 63.5627 201.449 63.854C201.771 64.1453 202.193 64.406 202.714 64.636C203.236 64.8507 203.826 65.0577 204.485 65.257C205.145 65.4563 205.819 65.6787 206.509 65.924C207.199 66.1693 207.874 66.4607 208.533 66.798C209.193 67.12 209.783 67.5263 210.304 68.017C210.826 68.4923 211.24 69.075 211.546 69.765C211.868 70.455 212.029 71.283 212.029 72.249C212.029 73.4297 211.815 74.5183 211.385 75.515C210.956 76.5117 210.312 77.3703 209.453 78.091C208.61 78.8117 207.56 79.3713 206.302 79.77C205.06 80.1687 203.627 80.368 202.001 80.368C201.189 80.368 200.376 80.2913 199.563 80.138C198.751 79.9847 197.961 79.7777 197.194 79.517C196.443 79.2563 195.745 78.9497 195.101 78.597C194.457 78.229 193.905 77.838 193.445 77.424L195.101 74.802C195.301 74.4953 195.538 74.2577 195.814 74.089C196.09 73.905 196.451 73.813 196.895 73.813C197.309 73.813 197.677 73.905 197.999 74.089C198.337 74.273 198.697 74.4723 199.08 74.687C199.464 74.9017 199.908 75.101 200.414 75.285C200.936 75.469 201.587 75.561 202.369 75.561C202.921 75.561 203.389 75.5073 203.772 75.4C204.156 75.2773 204.462 75.1163 204.692 74.917C204.922 74.7177 205.091 74.4953 205.198 74.25C205.306 74.0047 205.359 73.7517 205.359 73.491C205.359 73.0157 205.198 72.6247 204.876 72.318C204.554 72.0113 204.133 71.7507 203.611 71.536C203.09 71.306 202.492 71.099 201.817 70.915C201.158 70.7157 200.483 70.4933 199.793 70.248C199.103 70.0027 198.421 69.7113 197.746 69.374C197.087 69.0213 196.497 68.5843 195.975 68.063C195.454 67.5263 195.032 66.8747 194.71 66.108C194.388 65.3413 194.227 64.4137 194.227 63.325C194.227 62.313 194.419 61.3547 194.802 60.45C195.201 59.53 195.791 58.725 196.573 58.035C197.355 57.345 198.337 56.8007 199.517 56.402C200.698 55.988 202.078 55.781 203.657 55.781C204.516 55.781 205.344 55.8577 206.141 56.011C206.954 56.1643 207.713 56.379 208.418 56.655C209.124 56.931 209.768 57.2607 210.35 57.644C210.933 58.012 211.447 58.4183 211.891 58.863L210.281 61.37ZM224.331 80.368C223.197 80.368 222.192 80.207 221.318 79.885C220.46 79.5477 219.731 79.08 219.133 78.482C218.551 77.8687 218.106 77.1327 217.799 76.274C217.493 75.4153 217.339 74.457 217.339 73.399V61.071H215.315C214.947 61.071 214.633 60.956 214.372 60.726C214.112 60.4807 213.981 60.128 213.981 59.668V56.885L217.776 56.149L219.179 50.33C219.363 49.594 219.885 49.226 220.743 49.226H224.469V56.195H230.265V61.071H224.469V72.916C224.469 73.468 224.6 73.928 224.86 74.296C225.136 74.6487 225.527 74.825 226.033 74.825C226.294 74.825 226.509 74.802 226.677 74.756C226.861 74.6947 227.015 74.6333 227.137 74.572C227.275 74.4953 227.398 74.434 227.505 74.388C227.628 74.3267 227.766 74.296 227.919 74.296C228.134 74.296 228.303 74.3497 228.425 74.457C228.563 74.549 228.701 74.7023 228.839 74.917L231.001 78.298C230.081 78.988 229.046 79.5093 227.896 79.862C226.746 80.1993 225.558 80.368 224.331 80.368ZM248.959 61.37C248.775 61.6613 248.576 61.8683 248.361 61.991C248.162 62.1137 247.901 62.175 247.579 62.175C247.242 62.175 246.905 62.106 246.567 61.968C246.23 61.8147 245.862 61.6537 245.463 61.485C245.08 61.3163 244.643 61.163 244.152 61.025C243.662 60.8717 243.102 60.795 242.473 60.795C241.569 60.795 240.871 60.9713 240.38 61.324C239.905 61.6613 239.667 62.1367 239.667 62.75C239.667 63.1947 239.821 63.5627 240.127 63.854C240.449 64.1453 240.871 64.406 241.392 64.636C241.914 64.8507 242.504 65.0577 243.163 65.257C243.823 65.4563 244.497 65.6787 245.187 65.924C245.877 66.1693 246.552 66.4607 247.211 66.798C247.871 67.12 248.461 67.5263 248.982 68.017C249.504 68.4923 249.918 69.075 250.224 69.765C250.546 70.455 250.707 71.283 250.707 72.249C250.707 73.4297 250.493 74.5183 250.063 75.515C249.634 76.5117 248.99 77.3703 248.131 78.091C247.288 78.8117 246.238 79.3713 244.98 79.77C243.738 80.1687 242.305 80.368 240.679 80.368C239.867 80.368 239.054 80.2913 238.241 80.138C237.429 79.9847 236.639 79.7777 235.872 79.517C235.121 79.2563 234.423 78.9497 233.779 78.597C233.135 78.229 232.583 77.838 232.123 77.424L233.779 74.802C233.979 74.4953 234.216 74.2577 234.492 74.089C234.768 73.905 235.129 73.813 235.573 73.813C235.987 73.813 236.355 73.905 236.677 74.089C237.015 74.273 237.375 74.4723 237.758 74.687C238.142 74.9017 238.586 75.101 239.092 75.285C239.614 75.469 240.265 75.561 241.047 75.561C241.599 75.561 242.067 75.5073 242.45 75.4C242.834 75.2773 243.14 75.1163 243.37 74.917C243.6 74.7177 243.769 74.4953 243.876 74.25C243.984 74.0047 244.037 73.7517 244.037 73.491C244.037 73.0157 243.876 72.6247 243.554 72.318C243.232 72.0113 242.811 71.7507 242.289 71.536C241.768 71.306 241.17 71.099 240.495 70.915C239.836 70.7157 239.161 70.4933 238.471 70.248C237.781 70.0027 237.099 69.7113 236.424 69.374C235.765 69.0213 235.175 68.5843 234.653 68.063C234.132 67.5263 233.71 66.8747 233.388 66.108C233.066 65.3413 232.905 64.4137 232.905 63.325C232.905 62.313 233.097 61.3547 233.48 60.45C233.879 59.53 234.469 58.725 235.251 58.035C236.033 57.345 237.015 56.8007 238.195 56.402C239.376 55.988 240.756 55.781 242.335 55.781C243.194 55.781 244.022 55.8577 244.819 56.011C245.632 56.1643 246.391 56.379 247.096 56.655C247.802 56.931 248.446 57.2607 249.028 57.644C249.611 58.012 250.125 58.4183 250.569 58.863L248.959 61.37Z" fill="#1E212C"/>
</g>
<defs>
<clipPath id="clip0_2234_10327">
<rect width="252" height="92" fill="white"/>
</clipPath>
</defs>
</svg>
