<svg width="305" height="92" viewBox="0 0 305 92" fill="none" xmlns="http://www.w3.org/2000/svg">
<path d="M6.03788 16.32C6.43788 16.32 6.77388 16.272 7.04588 16.176C7.31788 16.08 7.53388 15.952 7.69388 15.792C7.85921 15.632 7.97654 15.4453 8.04588 15.232C8.12054 15.0187 8.15788 14.792 8.15788 14.552C8.15788 14.3013 8.11788 14.0773 8.03788 13.88C7.95788 13.6773 7.83254 13.5067 7.66188 13.368C7.49121 13.224 7.26988 13.1147 6.99788 13.04C6.73121 12.9653 6.40854 12.928 6.02988 12.928H3.86188V16.32H6.03788ZM3.86188 8.096V11.44H5.57388C6.30988 11.44 6.86454 11.3067 7.23788 11.04C7.61654 10.7733 7.80588 10.3493 7.80588 9.768C7.80588 9.16533 7.63521 8.736 7.29388 8.48C6.95254 8.224 6.41921 8.096 5.69388 8.096H3.86188ZM5.69388 6.432C6.45121 6.432 7.09921 6.504 7.63788 6.648C8.17654 6.792 8.61654 6.99733 8.95788 7.264C9.30454 7.53067 9.55788 7.85333 9.71788 8.232C9.87788 8.61067 9.95788 9.03733 9.95788 9.512C9.95788 9.784 9.91788 10.0453 9.83788 10.296C9.75788 10.5413 9.63254 10.7733 9.46187 10.992C9.29654 11.2053 9.08321 11.4 8.82188 11.576C8.56588 11.752 8.25921 11.9013 7.90188 12.024C9.49121 12.3813 10.2859 13.24 10.2859 14.6C10.2859 15.0907 10.1925 15.544 10.0059 15.96C9.81921 16.376 9.54721 16.736 9.18988 17.04C8.83254 17.3387 8.39254 17.5733 7.86988 17.744C7.34721 17.9147 6.74988 18 6.07788 18H1.70988V6.432H5.69388ZM15.4011 8.144V11.352H19.4491V13.008H15.4011V16.28H20.5371V18H13.2411V6.432H20.5371V8.144H15.4011ZM29.6043 8.536C29.5403 8.648 29.4709 8.73067 29.3963 8.784C29.3269 8.832 29.2389 8.856 29.1323 8.856C29.0203 8.856 28.8976 8.816 28.7643 8.736C28.6363 8.65067 28.4816 8.55733 28.3003 8.456C28.1189 8.35467 27.9056 8.264 27.6603 8.184C27.4203 8.09867 27.1349 8.056 26.8043 8.056C26.5056 8.056 26.2443 8.09333 26.0203 8.168C25.7963 8.23733 25.6069 8.336 25.4523 8.464C25.3029 8.592 25.1909 8.74667 25.1163 8.928C25.0416 9.104 25.0043 9.29867 25.0043 9.512C25.0043 9.784 25.0789 10.0107 25.2283 10.192C25.3829 10.3733 25.5856 10.528 25.8363 10.656C26.0869 10.784 26.3723 10.8987 26.6923 11C27.0123 11.1013 27.3403 11.2107 27.6763 11.328C28.0123 11.44 28.3403 11.5733 28.6603 11.728C28.9803 11.8773 29.2656 12.0693 29.5163 12.304C29.7669 12.5333 29.9669 12.816 30.1163 13.152C30.2709 13.488 30.3483 13.896 30.3483 14.376C30.3483 14.8987 30.2576 15.3893 30.0763 15.848C29.9003 16.3013 29.6389 16.6987 29.2923 17.04C28.9509 17.376 28.5323 17.6427 28.0363 17.84C27.5403 18.032 26.9723 18.128 26.3323 18.128C25.9643 18.128 25.6016 18.0907 25.2443 18.016C24.8869 17.9467 24.5429 17.8453 24.2122 17.712C23.8869 17.5787 23.5803 17.4187 23.2923 17.232C23.0043 17.0453 22.7483 16.8373 22.5243 16.608L23.1562 15.576C23.2096 15.5013 23.2789 15.44 23.3643 15.392C23.4496 15.3387 23.5403 15.312 23.6363 15.312C23.7696 15.312 23.9136 15.368 24.0683 15.48C24.2229 15.5867 24.4069 15.7067 24.6203 15.84C24.8336 15.9733 25.0816 16.096 25.3643 16.208C25.6523 16.3147 25.9963 16.368 26.3963 16.368C27.0096 16.368 27.4843 16.224 27.8203 15.936C28.1563 15.6427 28.3243 15.224 28.3243 14.68C28.3243 14.376 28.2469 14.128 28.0923 13.936C27.9429 13.744 27.7429 13.584 27.4923 13.456C27.2416 13.3227 26.9563 13.2107 26.6363 13.12C26.3163 13.0293 25.9909 12.9307 25.6603 12.824C25.3296 12.7173 25.0043 12.5893 24.6843 12.44C24.3643 12.2907 24.0789 12.096 23.8283 11.856C23.5776 11.616 23.3749 11.3173 23.2203 10.96C23.0709 10.5973 22.9963 10.152 22.9963 9.624C22.9963 9.20267 23.0789 8.792 23.2443 8.392C23.4149 7.992 23.6603 7.63733 23.9803 7.328C24.3003 7.01867 24.6949 6.77067 25.1643 6.584C25.6336 6.39733 26.1723 6.304 26.7803 6.304C27.4629 6.304 28.0923 6.41067 28.6683 6.624C29.2443 6.83733 29.7349 7.136 30.1403 7.52L29.6043 8.536ZM41.3055 8.2H37.8175V18H35.6655V8.2H32.1775V6.432H41.3055V8.2ZM55.8211 8.2H52.3331V18H50.1811V8.2H46.6931V6.432H55.8211V8.2ZM62.9909 16.264C63.4069 16.264 63.7775 16.1947 64.1029 16.056C64.4335 15.9173 64.7109 15.7227 64.9349 15.472C65.1589 15.2213 65.3295 14.9173 65.4469 14.56C65.5695 14.2027 65.6309 13.8027 65.6309 13.36V6.432H67.7829V13.36C67.7829 14.048 67.6709 14.6853 67.4469 15.272C67.2282 15.8533 66.9109 16.3573 66.4949 16.784C66.0842 17.2053 65.5829 17.536 64.9909 17.776C64.3989 18.0107 63.7322 18.128 62.9909 18.128C62.2442 18.128 61.5749 18.0107 60.9829 17.776C60.3909 17.536 59.8869 17.2053 59.4709 16.784C59.0602 16.3573 58.7429 15.8533 58.5189 15.272C58.3002 14.6853 58.1909 14.048 58.1909 13.36V6.432H60.3429V13.352C60.3429 13.7947 60.4015 14.1947 60.5189 14.552C60.6415 14.9093 60.8149 15.216 61.0389 15.472C61.2682 15.7227 61.5455 15.9173 61.8709 16.056C62.2015 16.1947 62.5749 16.264 62.9909 16.264ZM79.2899 8.2H75.8019V18H73.6499V8.2H70.1619V6.432H79.2899V8.2ZM92.445 12.216C92.445 13.064 92.3037 13.8507 92.021 14.576C91.7437 15.296 91.349 15.92 90.837 16.448C90.325 16.976 89.709 17.3893 88.989 17.688C88.269 17.9813 87.469 18.128 86.589 18.128C85.7143 18.128 84.917 17.9813 84.197 17.688C83.477 17.3893 82.8583 16.976 82.341 16.448C81.829 15.92 81.4317 15.296 81.149 14.576C80.8663 13.8507 80.725 13.064 80.725 12.216C80.725 11.368 80.8663 10.584 81.149 9.864C81.4317 9.13867 81.829 8.512 82.341 7.984C82.8583 7.456 83.477 7.04533 84.197 6.752C84.917 6.45333 85.7143 6.304 86.589 6.304C87.1757 6.304 87.7277 6.37333 88.245 6.512C88.7623 6.64533 89.237 6.83733 89.669 7.088C90.101 7.33333 90.4877 7.63467 90.829 7.992C91.1757 8.344 91.469 8.73867 91.709 9.176C91.949 9.61333 92.1303 10.088 92.253 10.6C92.381 11.112 92.445 11.6507 92.445 12.216ZM90.245 12.216C90.245 11.5813 90.1597 11.0133 89.989 10.512C89.8183 10.0053 89.5757 9.576 89.261 9.224C88.9463 8.872 88.5623 8.60267 88.109 8.416C87.661 8.22933 87.1543 8.136 86.589 8.136C86.0237 8.136 85.5143 8.22933 85.061 8.416C84.613 8.60267 84.229 8.872 83.909 9.224C83.5943 9.576 83.3517 10.0053 83.181 10.512C83.0103 11.0133 82.925 11.5813 82.925 12.216C82.925 12.8507 83.0103 13.4213 83.181 13.928C83.3517 14.4293 83.5943 14.856 83.909 15.208C84.229 15.5547 84.613 15.8213 85.061 16.008C85.5143 16.1947 86.0237 16.288 86.589 16.288C87.1543 16.288 87.661 16.1947 88.109 16.008C88.5623 15.8213 88.9463 15.5547 89.261 15.208C89.5757 14.856 89.8183 14.4293 89.989 13.928C90.1597 13.4213 90.245 12.8507 90.245 12.216ZM98.8309 11.936C99.2362 11.936 99.5882 11.8853 99.8869 11.784C100.191 11.6827 100.439 11.544 100.631 11.368C100.828 11.1867 100.975 10.9733 101.071 10.728C101.167 10.4827 101.215 10.2133 101.215 9.92C101.215 9.33333 101.02 8.88267 100.631 8.568C100.247 8.25333 99.6575 8.096 98.8629 8.096H97.4869V11.936H98.8309ZM104.367 18H102.423C102.055 18 101.788 17.856 101.623 17.568L99.1909 13.864C99.1002 13.7253 98.9989 13.6267 98.8869 13.568C98.7802 13.5093 98.6202 13.48 98.4069 13.48H97.4869V18H95.3349V6.432H98.8629C99.6469 6.432 100.319 6.51467 100.879 6.68C101.444 6.84 101.906 7.06667 102.263 7.36C102.626 7.65333 102.892 8.00533 103.063 8.416C103.234 8.82133 103.319 9.26933 103.319 9.76C103.319 10.1493 103.26 10.5173 103.143 10.864C103.031 11.2107 102.866 11.5253 102.647 11.808C102.434 12.0907 102.167 12.3387 101.847 12.552C101.532 12.7653 101.172 12.9333 100.767 13.056C100.906 13.136 101.034 13.232 101.151 13.344C101.268 13.4507 101.375 13.5787 101.471 13.728L104.367 18ZM112.776 8.536C112.712 8.648 112.643 8.73067 112.568 8.784C112.499 8.832 112.411 8.856 112.304 8.856C112.192 8.856 112.069 8.816 111.936 8.736C111.808 8.65067 111.653 8.55733 111.472 8.456C111.291 8.35467 111.077 8.264 110.832 8.184C110.592 8.09867 110.307 8.056 109.976 8.056C109.677 8.056 109.416 8.09333 109.192 8.168C108.968 8.23733 108.779 8.336 108.624 8.464C108.475 8.592 108.363 8.74667 108.288 8.928C108.213 9.104 108.176 9.29867 108.176 9.512C108.176 9.784 108.251 10.0107 108.4 10.192C108.555 10.3733 108.757 10.528 109.008 10.656C109.259 10.784 109.544 10.8987 109.864 11C110.184 11.1013 110.512 11.2107 110.848 11.328C111.184 11.44 111.512 11.5733 111.832 11.728C112.152 11.8773 112.437 12.0693 112.688 12.304C112.939 12.5333 113.139 12.816 113.288 13.152C113.443 13.488 113.52 13.896 113.52 14.376C113.52 14.8987 113.429 15.3893 113.248 15.848C113.072 16.3013 112.811 16.6987 112.464 17.04C112.123 17.376 111.704 17.6427 111.208 17.84C110.712 18.032 110.144 18.128 109.504 18.128C109.136 18.128 108.773 18.0907 108.416 18.016C108.059 17.9467 107.715 17.8453 107.384 17.712C107.059 17.5787 106.752 17.4187 106.464 17.232C106.176 17.0453 105.92 16.8373 105.696 16.608L106.328 15.576C106.381 15.5013 106.451 15.44 106.536 15.392C106.621 15.3387 106.712 15.312 106.808 15.312C106.941 15.312 107.085 15.368 107.24 15.48C107.395 15.5867 107.579 15.7067 107.792 15.84C108.005 15.9733 108.253 16.096 108.536 16.208C108.824 16.3147 109.168 16.368 109.568 16.368C110.181 16.368 110.656 16.224 110.992 15.936C111.328 15.6427 111.496 15.224 111.496 14.68C111.496 14.376 111.419 14.128 111.264 13.936C111.115 13.744 110.915 13.584 110.664 13.456C110.413 13.3227 110.128 13.2107 109.808 13.12C109.488 13.0293 109.163 12.9307 108.832 12.824C108.501 12.7173 108.176 12.5893 107.856 12.44C107.536 12.2907 107.251 12.096 107 11.856C106.749 11.616 106.547 11.3173 106.392 10.96C106.243 10.5973 106.168 10.152 106.168 9.624C106.168 9.20267 106.251 8.792 106.416 8.392C106.587 7.992 106.832 7.63733 107.152 7.328C107.472 7.01867 107.867 6.77067 108.336 6.584C108.805 6.39733 109.344 6.304 109.952 6.304C110.635 6.304 111.264 6.41067 111.84 6.624C112.416 6.83733 112.907 7.136 113.312 7.52L112.776 8.536ZM126.869 13.632L125.461 9.784C125.391 9.61333 125.319 9.41067 125.245 9.176C125.17 8.94133 125.095 8.688 125.021 8.416C124.951 8.688 124.879 8.944 124.805 9.184C124.73 9.41867 124.658 9.624 124.589 9.8L123.189 13.632H126.869ZM130.669 18H129.005C128.818 18 128.666 17.9547 128.549 17.864C128.431 17.768 128.343 17.6507 128.285 17.512L127.421 15.152H122.629L121.765 17.512C121.722 17.6347 121.639 17.7467 121.517 17.848C121.394 17.9493 121.242 18 121.061 18H119.381L123.933 6.432H126.125L130.669 18ZM136.362 11.936C136.767 11.936 137.119 11.8853 137.418 11.784C137.722 11.6827 137.97 11.544 138.162 11.368C138.359 11.1867 138.506 10.9733 138.602 10.728C138.698 10.4827 138.746 10.2133 138.746 9.92C138.746 9.33333 138.551 8.88267 138.162 8.568C137.778 8.25333 137.189 8.096 136.394 8.096H135.018V11.936H136.362ZM141.898 18H139.954C139.586 18 139.319 17.856 139.154 17.568L136.722 13.864C136.631 13.7253 136.53 13.6267 136.418 13.568C136.311 13.5093 136.151 13.48 135.938 13.48H135.018V18H132.866V6.432H136.394C137.178 6.432 137.85 6.51467 138.41 6.68C138.975 6.84 139.437 7.06667 139.794 7.36C140.157 7.65333 140.423 8.00533 140.594 8.416C140.765 8.82133 140.85 9.26933 140.85 9.76C140.85 10.1493 140.791 10.5173 140.674 10.864C140.562 11.2107 140.397 11.5253 140.178 11.808C139.965 12.0907 139.698 12.3387 139.378 12.552C139.063 12.7653 138.703 12.9333 138.298 13.056C138.437 13.136 138.565 13.232 138.682 13.344C138.799 13.4507 138.906 13.5787 139.002 13.728L141.898 18ZM146.307 8.144V11.352H150.355V13.008H146.307V16.28H151.443V18H144.147V6.432H151.443V8.144H146.307ZM164.822 13.632L163.414 9.784C163.345 9.61333 163.273 9.41067 163.198 9.176C163.123 8.94133 163.049 8.688 162.974 8.416C162.905 8.688 162.833 8.944 162.758 9.184C162.683 9.41867 162.611 9.624 162.542 9.8L161.142 13.632H164.822ZM168.622 18H166.958C166.771 18 166.619 17.9547 166.502 17.864C166.385 17.768 166.297 17.6507 166.238 17.512L165.374 15.152H160.582L159.718 17.512C159.675 17.6347 159.593 17.7467 159.47 17.848C159.347 17.9493 159.195 18 159.014 18H157.334L161.886 6.432H164.078L168.622 18ZM177.595 16.224V18H170.819V6.432H172.971V16.224H177.595ZM186.908 16.224V18H180.132V6.432H182.284V16.224H186.908ZM203.603 6.432V18H201.443V12.944H196.011V18H193.851V6.432H196.011V11.408H201.443V6.432H203.603ZM209.339 8.144V11.352H213.387V13.008H209.339V16.28H214.475V18H207.179V6.432H214.475V8.144H209.339ZM220.878 11.936C221.283 11.936 221.635 11.8853 221.934 11.784C222.238 11.6827 222.486 11.544 222.678 11.368C222.875 11.1867 223.022 10.9733 223.118 10.728C223.214 10.4827 223.262 10.2133 223.262 9.92C223.262 9.33333 223.067 8.88267 222.678 8.568C222.294 8.25333 221.704 8.096 220.91 8.096H219.534V11.936H220.878ZM226.414 18H224.47C224.102 18 223.835 17.856 223.67 17.568L221.238 13.864C221.147 13.7253 221.046 13.6267 220.934 13.568C220.827 13.5093 220.667 13.48 220.454 13.48H219.534V18H217.382V6.432H220.91C221.694 6.432 222.366 6.51467 222.926 6.68C223.491 6.84 223.952 7.06667 224.31 7.36C224.672 7.65333 224.939 8.00533 225.11 8.416C225.28 8.82133 225.366 9.26933 225.366 9.76C225.366 10.1493 225.307 10.5173 225.19 10.864C225.078 11.2107 224.912 11.5253 224.694 11.808C224.48 12.0907 224.214 12.3387 223.894 12.552C223.579 12.7653 223.219 12.9333 222.814 13.056C222.952 13.136 223.08 13.232 223.198 13.344C223.315 13.4507 223.422 13.5787 223.518 13.728L226.414 18ZM230.823 8.144V11.352H234.871V13.008H230.823V16.28H235.959V18H228.663V6.432H235.959V8.144H230.823Z" fill="#1E212C"/>
<path d="M40.5558 46.627V80H34.4608V59.507C34.4608 59.0777 34.4684 58.6177 34.4838 58.127C34.5144 57.6363 34.5604 57.138 34.6218 56.632L25.0768 74.733C24.5554 75.7297 23.7504 76.228 22.6618 76.228H21.6958C21.1591 76.228 20.6838 76.1053 20.2698 75.86C19.8558 75.5993 19.5261 75.2237 19.2808 74.733L9.68977 56.563C9.73577 57.0997 9.7741 57.621 9.80477 58.127C9.83543 58.6177 9.85077 59.0777 9.85077 59.507V80H3.75577V46.627H8.99977C9.2911 46.627 9.55177 46.6347 9.78177 46.65C10.0118 46.6653 10.2111 46.7113 10.3798 46.788C10.5638 46.8493 10.7248 46.9567 10.8628 47.11C11.0161 47.248 11.1618 47.4473 11.2998 47.708L20.6378 65.51C20.9291 66.0467 21.1974 66.5987 21.4428 67.166C21.7034 67.7333 21.9488 68.316 22.1788 68.914C22.4088 68.3007 22.6464 67.7027 22.8918 67.12C23.1524 66.5373 23.4284 65.9777 23.7198 65.441L32.9888 47.708C33.1268 47.4473 33.2724 47.248 33.4258 47.11C33.5791 46.9567 33.7401 46.8493 33.9088 46.788C34.0928 46.7113 34.2921 46.6653 34.5068 46.65C34.7368 46.6347 35.0051 46.627 35.3118 46.627H40.5558ZM60.9589 65.349C60.9589 64.6897 60.8669 64.061 60.6829 63.463C60.5143 62.865 60.2383 62.336 59.8549 61.876C59.4716 61.416 58.9886 61.0557 58.4059 60.795C57.8233 60.519 57.1256 60.381 56.3129 60.381C54.7949 60.381 53.6066 60.8103 52.7479 61.669C51.8893 62.5277 51.3296 63.7543 51.0689 65.349H60.9589ZM50.9769 69.121C51.1763 71.3443 51.8049 72.9697 52.8629 73.997C53.9363 75.0243 55.3316 75.538 57.0489 75.538C57.9229 75.538 58.6743 75.4383 59.3029 75.239C59.9469 75.0243 60.5066 74.7943 60.9819 74.549C61.4726 74.2883 61.9096 74.0583 62.2929 73.859C62.6916 73.6443 63.0826 73.537 63.4659 73.537C63.9566 73.537 64.3399 73.721 64.6159 74.089L66.4559 76.389C65.7813 77.171 65.0376 77.8227 64.2249 78.344C63.4123 78.85 62.5689 79.2563 61.6949 79.563C60.8209 79.8543 59.9393 80.0537 59.0499 80.161C58.1606 80.2837 57.3019 80.345 56.4739 80.345C54.8179 80.345 53.2693 80.0767 51.8279 79.54C50.4019 78.988 49.1523 78.183 48.0789 77.125C47.0209 76.0517 46.1853 74.7253 45.5719 73.146C44.9586 71.5667 44.6519 69.7343 44.6519 67.649C44.6519 66.039 44.9126 64.521 45.4339 63.095C45.9706 61.669 46.7373 60.427 47.7339 59.369C48.7306 58.311 49.9419 57.4753 51.3679 56.862C52.7939 56.2333 54.4039 55.919 56.1979 55.919C57.7159 55.919 59.1113 56.1643 60.3839 56.655C61.6719 57.1303 62.7759 57.828 63.6959 58.748C64.6313 59.668 65.3519 60.8027 65.8579 62.152C66.3793 63.486 66.6399 65.0117 66.6399 66.729C66.6399 67.2043 66.6169 67.5953 66.5709 67.902C66.5249 68.2087 66.4483 68.454 66.3409 68.638C66.2336 68.822 66.0879 68.9523 65.9039 69.029C65.7199 69.0903 65.4823 69.121 65.1909 69.121H50.9769ZM85.621 65.349C85.621 64.6897 85.529 64.061 85.345 63.463C85.1764 62.865 84.9004 62.336 84.517 61.876C84.1337 61.416 83.6507 61.0557 83.068 60.795C82.4854 60.519 81.7877 60.381 80.975 60.381C79.457 60.381 78.2687 60.8103 77.41 61.669C76.5514 62.5277 75.9917 63.7543 75.731 65.349H85.621ZM75.639 69.121C75.8384 71.3443 76.467 72.9697 77.525 73.997C78.5984 75.0243 79.9937 75.538 81.711 75.538C82.585 75.538 83.3364 75.4383 83.965 75.239C84.609 75.0243 85.1687 74.7943 85.644 74.549C86.1347 74.2883 86.5717 74.0583 86.955 73.859C87.3537 73.6443 87.7447 73.537 88.128 73.537C88.6187 73.537 89.002 73.721 89.278 74.089L91.118 76.389C90.4434 77.171 89.6997 77.8227 88.887 78.344C88.0744 78.85 87.231 79.2563 86.357 79.563C85.483 79.8543 84.6014 80.0537 83.712 80.161C82.8227 80.2837 81.964 80.345 81.136 80.345C79.48 80.345 77.9314 80.0767 76.49 79.54C75.064 78.988 73.8144 78.183 72.741 77.125C71.683 76.0517 70.8474 74.7253 70.234 73.146C69.6207 71.5667 69.314 69.7343 69.314 67.649C69.314 66.039 69.5747 64.521 70.096 63.095C70.6327 61.669 71.3994 60.427 72.396 59.369C73.3927 58.311 74.604 57.4753 76.03 56.862C77.456 56.2333 79.066 55.919 80.86 55.919C82.378 55.919 83.7734 56.1643 85.046 56.655C86.334 57.1303 87.438 57.828 88.358 58.748C89.2934 59.668 90.014 60.8027 90.52 62.152C91.0414 63.486 91.302 65.0117 91.302 66.729C91.302 67.2043 91.279 67.5953 91.233 67.902C91.187 68.2087 91.1104 68.454 91.003 68.638C90.8957 68.822 90.75 68.9523 90.566 69.029C90.382 69.0903 90.1444 69.121 89.853 69.121H75.639ZM103.16 80.368C102.086 80.368 101.136 80.2147 100.308 79.908C99.4796 79.586 98.7819 79.1337 98.2146 78.551C97.6473 77.9683 97.2179 77.263 96.9266 76.435C96.6353 75.607 96.4896 74.6717 96.4896 73.629V60.841H94.2586C93.9213 60.841 93.6299 60.7337 93.3846 60.519C93.1546 60.3043 93.0396 59.9823 93.0396 59.553V57.069L96.8346 56.379L98.1226 50.238C98.2913 49.548 98.7589 49.203 99.5256 49.203H102.838V56.425H108.956V60.841H102.838V73.215C102.838 73.8743 102.991 74.3957 103.298 74.779C103.62 75.1623 104.072 75.354 104.655 75.354C104.961 75.354 105.222 75.3233 105.437 75.262C105.651 75.1853 105.835 75.1087 105.989 75.032C106.142 74.94 106.28 74.8633 106.403 74.802C106.541 74.7253 106.679 74.687 106.817 74.687C107.001 74.687 107.154 74.733 107.277 74.825C107.399 74.9017 107.522 75.0397 107.645 75.239L109.554 78.275C108.68 78.965 107.691 79.4863 106.587 79.839C105.483 80.1917 104.34 80.368 103.16 80.368ZM133.967 55.919C135.746 55.919 137.364 56.2027 138.82 56.77C140.277 57.3373 141.527 58.15 142.569 59.208C143.612 60.2507 144.417 61.5233 144.984 63.026C145.552 64.5287 145.835 66.223 145.835 68.109C145.835 69.995 145.552 71.697 144.984 73.215C144.417 74.7177 143.612 75.998 142.569 77.056C141.527 78.114 140.277 78.9267 138.82 79.494C137.364 80.0613 135.746 80.345 133.967 80.345C132.173 80.345 130.54 80.0613 129.068 79.494C127.612 78.9267 126.362 78.114 125.319 77.056C124.277 75.998 123.464 74.7177 122.881 73.215C122.314 71.697 122.03 69.995 122.03 68.109C122.03 66.223 122.314 64.5287 122.881 63.026C123.464 61.5233 124.277 60.2507 125.319 59.208C126.362 58.15 127.612 57.3373 129.068 56.77C130.54 56.2027 132.173 55.919 133.967 55.919ZM133.967 75.584C135.777 75.584 137.118 74.963 137.992 73.721C138.866 72.4637 139.303 70.6007 139.303 68.132C139.303 65.6787 138.866 63.831 137.992 62.589C137.118 61.3317 135.777 60.703 133.967 60.703C132.112 60.703 130.747 61.3317 129.873 62.589C128.999 63.831 128.562 65.6787 128.562 68.132C128.562 70.6007 128.999 72.4637 129.873 73.721C130.747 74.963 132.112 75.584 133.967 75.584ZM170.636 56.287V80H166.726C165.914 80 165.392 79.632 165.162 78.896L164.748 77.24C164.273 77.7 163.782 78.1217 163.276 78.505C162.77 78.8883 162.226 79.218 161.643 79.494C161.076 79.77 160.455 79.9847 159.78 80.138C159.121 80.2913 158.4 80.368 157.618 80.368C156.33 80.368 155.18 80.1457 154.168 79.701C153.172 79.2563 152.336 78.6353 151.661 77.838C150.987 77.0407 150.473 76.09 150.12 74.986C149.768 73.882 149.591 72.6707 149.591 71.352V56.287H155.939V71.352C155.939 72.6707 156.238 73.698 156.836 74.434C157.45 75.1547 158.354 75.515 159.55 75.515C160.44 75.515 161.275 75.3233 162.057 74.94C162.839 74.5413 163.583 74.0047 164.288 73.33V56.287H170.636ZM181.833 60.197C182.584 58.8477 183.451 57.782 184.432 57C185.413 56.218 186.563 55.827 187.882 55.827C188.955 55.827 189.829 56.08 190.504 56.586L190.09 61.278C190.013 61.5847 189.891 61.7993 189.722 61.922C189.569 62.0293 189.354 62.083 189.078 62.083C188.833 62.083 188.48 62.0523 188.02 61.991C187.56 61.9143 187.131 61.876 186.732 61.876C186.149 61.876 185.628 61.9603 185.168 62.129C184.723 62.2977 184.325 62.5353 183.972 62.842C183.619 63.1487 183.297 63.5243 183.006 63.969C182.73 64.4137 182.469 64.9197 182.224 65.487V80H175.876V56.287H179.625C180.269 56.287 180.714 56.402 180.959 56.632C181.204 56.862 181.381 57.2607 181.488 57.828L181.833 60.197ZM211.376 80.368C210.303 80.368 209.352 80.2147 208.524 79.908C207.696 79.586 206.999 79.1337 206.431 78.551C205.864 77.9683 205.435 77.263 205.143 76.435C204.852 75.607 204.706 74.6717 204.706 73.629V60.841H202.475C202.138 60.841 201.847 60.7337 201.601 60.519C201.371 60.3043 201.256 59.9823 201.256 59.553V57.069L205.051 56.379L206.339 50.238C206.508 49.548 206.976 49.203 207.742 49.203H211.054V56.425H217.172V60.841H211.054V73.215C211.054 73.8743 211.208 74.3957 211.514 74.779C211.836 75.1623 212.289 75.354 212.871 75.354C213.178 75.354 213.439 75.3233 213.653 75.262C213.868 75.1853 214.052 75.1087 214.205 75.032C214.359 74.94 214.497 74.8633 214.619 74.802C214.757 74.7253 214.895 74.687 215.033 74.687C215.217 74.687 215.371 74.733 215.493 74.825C215.616 74.9017 215.739 75.0397 215.861 75.239L217.77 78.275C216.896 78.965 215.907 79.4863 214.803 79.839C213.699 80.1917 212.557 80.368 211.376 80.368ZM235.391 65.349C235.391 64.6897 235.299 64.061 235.115 63.463C234.946 62.865 234.67 62.336 234.287 61.876C233.903 61.416 233.42 61.0557 232.838 60.795C232.255 60.519 231.557 60.381 230.745 60.381C229.227 60.381 228.038 60.8103 227.18 61.669C226.321 62.5277 225.761 63.7543 225.501 65.349H235.391ZM225.409 69.121C225.608 71.3443 226.237 72.9697 227.295 73.997C228.368 75.0243 229.763 75.538 231.481 75.538C232.355 75.538 233.106 75.4383 233.735 75.239C234.379 75.0243 234.938 74.7943 235.414 74.549C235.904 74.2883 236.341 74.0583 236.725 73.859C237.123 73.6443 237.514 73.537 237.898 73.537C238.388 73.537 238.772 73.721 239.048 74.089L240.888 76.389C240.213 77.171 239.469 77.8227 238.657 78.344C237.844 78.85 237.001 79.2563 236.127 79.563C235.253 79.8543 234.371 80.0537 233.482 80.161C232.592 80.2837 231.734 80.345 230.906 80.345C229.25 80.345 227.701 80.0767 226.26 79.54C224.834 78.988 223.584 78.183 222.511 77.125C221.453 76.0517 220.617 74.7253 220.004 73.146C219.39 71.5667 219.084 69.7343 219.084 67.649C219.084 66.039 219.344 64.521 219.866 63.095C220.402 61.669 221.169 60.427 222.166 59.369C223.162 58.311 224.374 57.4753 225.8 56.862C227.226 56.2333 228.836 55.919 230.63 55.919C232.148 55.919 233.543 56.1643 234.816 56.655C236.104 57.1303 237.208 57.828 238.128 58.748C239.063 59.668 239.784 60.8027 240.29 62.152C240.811 63.486 241.072 65.0117 241.072 66.729C241.072 67.2043 241.049 67.5953 241.003 67.902C240.957 68.2087 240.88 68.454 240.773 68.638C240.665 68.822 240.52 68.9523 240.336 69.029C240.152 69.0903 239.914 69.121 239.623 69.121H225.409ZM257.408 70.087C255.859 70.1637 254.571 70.3017 253.544 70.501C252.516 70.685 251.696 70.9303 251.083 71.237C250.485 71.5437 250.055 71.8963 249.795 72.295C249.549 72.6783 249.427 73.1 249.427 73.56C249.427 74.48 249.68 75.1317 250.186 75.515C250.707 75.8983 251.428 76.09 252.348 76.09C253.406 76.09 254.318 75.906 255.085 75.538C255.867 75.1547 256.641 74.5643 257.408 73.767V70.087ZM244.482 59.576C245.877 58.3187 247.418 57.3833 249.105 56.77C250.791 56.1413 252.616 55.827 254.579 55.827C255.989 55.827 257.247 56.057 258.351 56.517C259.47 56.977 260.413 57.621 261.18 58.449C261.962 59.2617 262.56 60.2353 262.974 61.37C263.388 62.5047 263.595 63.7467 263.595 65.096V80H260.697C260.099 80 259.639 79.9157 259.317 79.747C259.01 79.5783 258.757 79.2257 258.558 78.689L258.052 77.171C257.454 77.6923 256.871 78.1523 256.304 78.551C255.752 78.9497 255.177 79.287 254.579 79.563C253.981 79.8237 253.337 80.023 252.647 80.161C251.972 80.299 251.213 80.368 250.37 80.368C249.327 80.368 248.376 80.23 247.518 79.954C246.659 79.678 245.915 79.2717 245.287 78.735C244.673 78.183 244.198 77.5007 243.861 76.688C243.523 75.8753 243.355 74.94 243.355 73.882C243.355 73.008 243.577 72.134 244.022 71.26C244.466 70.386 245.225 69.5963 246.299 68.891C247.387 68.1703 248.829 67.58 250.623 67.12C252.432 66.6447 254.694 66.3763 257.408 66.315V65.096C257.408 63.6087 257.093 62.52 256.465 61.83C255.836 61.1247 254.931 60.772 253.751 60.772C252.877 60.772 252.148 60.8793 251.566 61.094C250.983 61.2933 250.469 61.5157 250.025 61.761C249.595 61.991 249.189 62.2133 248.806 62.428C248.422 62.6273 247.978 62.727 247.472 62.727C247.027 62.727 246.651 62.6197 246.345 62.405C246.053 62.175 245.808 61.9067 245.609 61.6L244.482 59.576ZM268.55 80V56.287H272.46C273.257 56.287 273.786 56.655 274.047 57.391L274.415 58.932C274.829 58.5027 275.25 58.104 275.68 57.736C276.124 57.368 276.6 57.0537 277.106 56.793C277.612 56.517 278.156 56.3023 278.739 56.149C279.337 55.9957 279.981 55.919 280.671 55.919C282.127 55.919 283.331 56.31 284.282 57.092C285.232 57.8587 285.953 58.886 286.444 60.174C286.827 59.4227 287.295 58.7787 287.847 58.242C288.414 57.69 289.027 57.2453 289.687 56.908C290.361 56.5707 291.067 56.3253 291.803 56.172C292.554 56.0033 293.305 55.919 294.057 55.919C295.391 55.919 296.571 56.1183 297.599 56.517C298.626 56.9157 299.485 57.506 300.175 58.288C300.88 59.0547 301.417 59.9977 301.785 61.117C302.153 62.2363 302.337 63.509 302.337 64.935V80H295.989V64.935C295.989 62.1597 294.8 60.772 292.424 60.772C291.887 60.772 291.389 60.864 290.929 61.048C290.484 61.2167 290.085 61.4773 289.733 61.83C289.395 62.1827 289.127 62.6197 288.928 63.141C288.744 63.6623 288.652 64.2603 288.652 64.935V80H282.304V64.935C282.304 63.4323 282.005 62.3667 281.407 61.738C280.824 61.094 279.958 60.772 278.808 60.772C278.072 60.772 277.374 60.9483 276.715 61.301C276.071 61.6383 275.465 62.1137 274.898 62.727V80H268.55Z" fill="#1E212C"/>
</svg>
