<svg width="471" height="92" viewBox="0 0 471 92" fill="none" xmlns="http://www.w3.org/2000/svg">
<path d="M181.743 8.2H178.255V18H176.103V8.2H172.615V6.432H181.743V8.2ZM186.417 8.144V11.352H190.465V13.008H186.417V16.28H191.553V18H184.257V6.432H191.553V8.144H186.417ZM200.62 8.536C200.556 8.648 200.487 8.73067 200.412 8.784C200.343 8.832 200.255 8.856 200.148 8.856C200.036 8.856 199.913 8.816 199.78 8.736C199.652 8.65067 199.497 8.55733 199.316 8.456C199.135 8.35467 198.921 8.264 198.676 8.184C198.436 8.09867 198.151 8.056 197.82 8.056C197.521 8.056 197.26 8.09333 197.036 8.168C196.812 8.23733 196.623 8.336 196.468 8.464C196.319 8.592 196.207 8.74667 196.132 8.928C196.057 9.104 196.02 9.29867 196.02 9.512C196.02 9.784 196.095 10.0107 196.244 10.192C196.399 10.3733 196.601 10.528 196.852 10.656C197.103 10.784 197.388 10.8987 197.708 11C198.028 11.1013 198.356 11.2107 198.692 11.328C199.028 11.44 199.356 11.5733 199.676 11.728C199.996 11.8773 200.281 12.0693 200.532 12.304C200.783 12.5333 200.983 12.816 201.132 13.152C201.287 13.488 201.364 13.896 201.364 14.376C201.364 14.8987 201.273 15.3893 201.092 15.848C200.916 16.3013 200.655 16.6987 200.308 17.04C199.967 17.376 199.548 17.6427 199.052 17.84C198.556 18.032 197.988 18.128 197.348 18.128C196.98 18.128 196.617 18.0907 196.26 18.016C195.903 17.9467 195.559 17.8453 195.228 17.712C194.903 17.5787 194.596 17.4187 194.308 17.232C194.02 17.0453 193.764 16.8373 193.54 16.608L194.172 15.576C194.225 15.5013 194.295 15.44 194.38 15.392C194.465 15.3387 194.556 15.312 194.652 15.312C194.785 15.312 194.929 15.368 195.084 15.48C195.239 15.5867 195.423 15.7067 195.636 15.84C195.849 15.9733 196.097 16.096 196.38 16.208C196.668 16.3147 197.012 16.368 197.412 16.368C198.025 16.368 198.5 16.224 198.836 15.936C199.172 15.6427 199.34 15.224 199.34 14.68C199.34 14.376 199.263 14.128 199.108 13.936C198.959 13.744 198.759 13.584 198.508 13.456C198.257 13.3227 197.972 13.2107 197.652 13.12C197.332 13.0293 197.007 12.9307 196.676 12.824C196.345 12.7173 196.02 12.5893 195.7 12.44C195.38 12.2907 195.095 12.096 194.844 11.856C194.593 11.616 194.391 11.3173 194.236 10.96C194.087 10.5973 194.012 10.152 194.012 9.624C194.012 9.20267 194.095 8.792 194.26 8.392C194.431 7.992 194.676 7.63733 194.996 7.328C195.316 7.01867 195.711 6.77067 196.18 6.584C196.649 6.39733 197.188 6.304 197.796 6.304C198.479 6.304 199.108 6.41067 199.684 6.624C200.26 6.83733 200.751 7.136 201.156 7.52L200.62 8.536ZM212.321 8.2H208.833V18H206.681V8.2H203.193V6.432H212.321V8.2ZM216.995 18H214.835V6.432H216.995V18ZM233.129 6.432V18H231.233V10.528C231.233 10.2293 231.249 9.90667 231.281 9.56L227.785 16.128C227.62 16.4427 227.366 16.6 227.025 16.6H226.721C226.38 16.6 226.126 16.4427 225.961 16.128L222.425 9.536C222.441 9.712 222.454 9.88533 222.465 10.056C222.476 10.2267 222.481 10.384 222.481 10.528V18H220.585V6.432H222.209C222.305 6.432 222.388 6.43467 222.457 6.44C222.526 6.44533 222.588 6.45867 222.641 6.48C222.7 6.50133 222.75 6.536 222.793 6.584C222.841 6.632 222.886 6.696 222.929 6.776L226.393 13.2C226.484 13.3707 226.566 13.5467 226.641 13.728C226.721 13.9093 226.798 14.096 226.873 14.288C226.948 14.0907 227.025 13.9013 227.105 13.72C227.185 13.5333 227.27 13.3547 227.361 13.184L230.777 6.776C230.82 6.696 230.865 6.632 230.913 6.584C230.961 6.536 231.012 6.50133 231.065 6.48C231.124 6.45867 231.188 6.44533 231.257 6.44C231.326 6.43467 231.409 6.432 231.505 6.432H233.129ZM247.742 12.216C247.742 13.064 247.601 13.8507 247.318 14.576C247.041 15.296 246.646 15.92 246.134 16.448C245.622 16.976 245.006 17.3893 244.286 17.688C243.566 17.9813 242.766 18.128 241.886 18.128C241.011 18.128 240.214 17.9813 239.494 17.688C238.774 17.3893 238.155 16.976 237.638 16.448C237.126 15.92 236.729 15.296 236.446 14.576C236.163 13.8507 236.022 13.064 236.022 12.216C236.022 11.368 236.163 10.584 236.446 9.864C236.729 9.13867 237.126 8.512 237.638 7.984C238.155 7.456 238.774 7.04533 239.494 6.752C240.214 6.45333 241.011 6.304 241.886 6.304C242.473 6.304 243.025 6.37333 243.542 6.512C244.059 6.64533 244.534 6.83733 244.966 7.088C245.398 7.33333 245.785 7.63467 246.126 7.992C246.473 8.344 246.766 8.73867 247.006 9.176C247.246 9.61333 247.427 10.088 247.55 10.6C247.678 11.112 247.742 11.6507 247.742 12.216ZM245.542 12.216C245.542 11.5813 245.457 11.0133 245.286 10.512C245.115 10.0053 244.873 9.576 244.558 9.224C244.243 8.872 243.859 8.60267 243.406 8.416C242.958 8.22933 242.451 8.136 241.886 8.136C241.321 8.136 240.811 8.22933 240.358 8.416C239.91 8.60267 239.526 8.872 239.206 9.224C238.891 9.576 238.649 10.0053 238.478 10.512C238.307 11.0133 238.222 11.5813 238.222 12.216C238.222 12.8507 238.307 13.4213 238.478 13.928C238.649 14.4293 238.891 14.856 239.206 15.208C239.526 15.5547 239.91 15.8213 240.358 16.008C240.811 16.1947 241.321 16.288 241.886 16.288C242.451 16.288 242.958 16.1947 243.406 16.008C243.859 15.8213 244.243 15.5547 244.558 15.208C244.873 14.856 245.115 14.4293 245.286 13.928C245.457 13.4213 245.542 12.8507 245.542 12.216ZM260.384 6.432V18H259.28C259.109 18 258.965 17.9733 258.848 17.92C258.736 17.8613 258.626 17.7653 258.52 17.632L252.48 9.92C252.512 10.272 252.528 10.5973 252.528 10.896V18H250.632V6.432H251.76C251.85 6.432 251.928 6.43733 251.992 6.448C252.061 6.45333 252.12 6.46933 252.168 6.496C252.221 6.51733 252.272 6.552 252.32 6.6C252.368 6.64267 252.421 6.70133 252.48 6.776L258.544 14.52C258.528 14.3333 258.514 14.1493 258.504 13.968C258.493 13.7867 258.488 13.6187 258.488 13.464V6.432H260.384ZM266.12 18H263.96V6.432H266.12V18ZM275.822 13.632L274.414 9.784C274.345 9.61333 274.273 9.41067 274.198 9.176C274.123 8.94133 274.049 8.688 273.974 8.416C273.905 8.688 273.833 8.944 273.758 9.184C273.683 9.41867 273.611 9.624 273.542 9.8L272.142 13.632H275.822ZM279.622 18H277.958C277.771 18 277.619 17.9547 277.502 17.864C277.385 17.768 277.297 17.6507 277.238 17.512L276.374 15.152H271.582L270.718 17.512C270.675 17.6347 270.593 17.7467 270.47 17.848C270.347 17.9493 270.195 18 270.014 18H268.334L272.886 6.432H275.078L279.622 18ZM288.595 16.224V18H281.819V6.432H283.971V16.224H288.595ZM297.292 8.536C297.228 8.648 297.158 8.73067 297.084 8.784C297.014 8.832 296.926 8.856 296.82 8.856C296.708 8.856 296.585 8.816 296.452 8.736C296.324 8.65067 296.169 8.55733 295.988 8.456C295.806 8.35467 295.593 8.264 295.348 8.184C295.108 8.09867 294.822 8.056 294.492 8.056C294.193 8.056 293.932 8.09333 293.708 8.168C293.484 8.23733 293.294 8.336 293.14 8.464C292.99 8.592 292.878 8.74667 292.804 8.928C292.729 9.104 292.692 9.29867 292.692 9.512C292.692 9.784 292.766 10.0107 292.916 10.192C293.07 10.3733 293.273 10.528 293.524 10.656C293.774 10.784 294.06 10.8987 294.38 11C294.7 11.1013 295.028 11.2107 295.364 11.328C295.7 11.44 296.028 11.5733 296.348 11.728C296.668 11.8773 296.953 12.0693 297.204 12.304C297.454 12.5333 297.654 12.816 297.804 13.152C297.958 13.488 298.036 13.896 298.036 14.376C298.036 14.8987 297.945 15.3893 297.764 15.848C297.588 16.3013 297.326 16.6987 296.98 17.04C296.638 17.376 296.22 17.6427 295.724 17.84C295.228 18.032 294.66 18.128 294.02 18.128C293.652 18.128 293.289 18.0907 292.932 18.016C292.574 17.9467 292.23 17.8453 291.9 17.712C291.574 17.5787 291.268 17.4187 290.98 17.232C290.692 17.0453 290.436 16.8373 290.212 16.608L290.844 15.576C290.897 15.5013 290.966 15.44 291.052 15.392C291.137 15.3387 291.228 15.312 291.324 15.312C291.457 15.312 291.601 15.368 291.756 15.48C291.91 15.5867 292.094 15.7067 292.308 15.84C292.521 15.9733 292.769 16.096 293.052 16.208C293.34 16.3147 293.684 16.368 294.084 16.368C294.697 16.368 295.172 16.224 295.508 15.936C295.844 15.6427 296.012 15.224 296.012 14.68C296.012 14.376 295.934 14.128 295.78 13.936C295.63 13.744 295.43 13.584 295.18 13.456C294.929 13.3227 294.644 13.2107 294.324 13.12C294.004 13.0293 293.678 12.9307 293.348 12.824C293.017 12.7173 292.692 12.5893 292.372 12.44C292.052 12.2907 291.766 12.096 291.516 11.856C291.265 11.616 291.062 11.3173 290.908 10.96C290.758 10.5973 290.684 10.152 290.684 9.624C290.684 9.20267 290.766 8.792 290.932 8.392C291.102 7.992 291.348 7.63733 291.668 7.328C291.988 7.01867 292.382 6.77067 292.852 6.584C293.321 6.39733 293.86 6.304 294.468 6.304C295.15 6.304 295.78 6.41067 296.356 6.624C296.932 6.83733 297.422 7.136 297.828 7.52L297.292 8.536Z" fill="#1E212C"/>
<path d="M0.608906 46.489H7.14091C7.81557 46.489 8.37524 46.6423 8.81991 46.949C9.27991 47.2557 9.57891 47.662 9.71691 48.168L14.3169 65.648C14.4702 66.2153 14.6236 66.821 14.7769 67.465C14.9302 68.109 15.0452 68.7837 15.1219 69.489C15.2752 68.7683 15.4439 68.0937 15.6279 67.465C15.8119 66.821 15.9882 66.2153 16.1569 65.648L21.5849 48.168C21.7229 47.7387 22.0142 47.3553 22.4589 47.018C22.9189 46.6653 23.4709 46.489 24.1149 46.489H26.4149C27.0896 46.489 27.6416 46.6423 28.0709 46.949C28.5156 47.2403 28.8222 47.6467 28.9909 48.168L34.3729 65.648C34.5416 66.1847 34.7179 66.7597 34.9019 67.373C35.0859 67.971 35.2469 68.615 35.3849 69.305C35.5076 68.6303 35.6302 67.9863 35.7529 67.373C35.8909 66.7597 36.0289 66.1847 36.1669 65.648L40.7669 48.168C40.8896 47.7233 41.1809 47.3323 41.6409 46.995C42.1009 46.6577 42.6529 46.489 43.2969 46.489H49.4149L39.0649 80H32.0269L25.7249 59.231C25.6176 58.909 25.5026 58.5563 25.3799 58.173C25.2726 57.7897 25.1652 57.3833 25.0579 56.954C24.9506 57.3833 24.8356 57.7897 24.7129 58.173C24.6056 58.5563 24.4982 58.909 24.3909 59.231L17.9969 80H10.9589L0.608906 46.489ZM52.4182 80V45.569H59.5482V58.242C60.4069 57.506 61.3345 56.9157 62.3312 56.471C63.3432 56.011 64.5469 55.781 65.9422 55.781C67.2455 55.781 68.3955 56.011 69.3922 56.471C70.4042 56.9157 71.2552 57.5443 71.9452 58.357C72.6352 59.1543 73.1565 60.1127 73.5092 61.232C73.8619 62.336 74.0382 63.5397 74.0382 64.843V80H66.9082V64.843C66.9082 63.6777 66.6399 62.773 66.1032 62.129C65.5665 61.4697 64.7769 61.14 63.7342 61.14C62.9522 61.14 62.2162 61.3087 61.5262 61.646C60.8362 61.9833 60.1769 62.4357 59.5482 63.003V80H52.4182ZM95.5698 80C94.8951 80 94.3815 79.908 94.0288 79.724C93.6915 79.54 93.4078 79.1567 93.1778 78.574L92.6718 77.263C92.0738 77.769 91.4988 78.2137 90.9468 78.597C90.3948 78.9803 89.8198 79.31 89.2218 79.586C88.6391 79.8467 88.0105 80.0383 87.3358 80.161C86.6765 80.299 85.9405 80.368 85.1278 80.368C84.0391 80.368 83.0501 80.23 82.1608 79.954C81.2715 79.6627 80.5125 79.241 79.8838 78.689C79.2705 78.137 78.7951 77.4547 78.4578 76.642C78.1205 75.814 77.9518 74.8633 77.9518 73.79C77.9518 72.9467 78.1665 72.0803 78.5958 71.191C79.0251 70.3017 79.7688 69.4967 80.8268 68.776C81.8848 68.04 83.3108 67.4267 85.1048 66.936C86.8988 66.4453 89.1605 66.1693 91.8898 66.108V65.096C91.8898 63.7007 91.5985 62.6963 91.0158 62.083C90.4485 61.4543 89.6358 61.14 88.5778 61.14C87.7345 61.14 87.0445 61.232 86.5078 61.416C85.9711 61.6 85.4881 61.807 85.0588 62.037C84.6448 62.267 84.2385 62.474 83.8398 62.658C83.4411 62.842 82.9658 62.934 82.4138 62.934C81.9231 62.934 81.5015 62.819 81.1488 62.589C80.8115 62.3437 80.5431 62.0447 80.3438 61.692L79.0558 59.461C80.4971 58.1883 82.0918 57.2453 83.8398 56.632C85.6031 56.0033 87.4891 55.689 89.4978 55.689C90.9391 55.689 92.2348 55.9267 93.3848 56.402C94.5501 56.862 95.5315 57.5137 96.3288 58.357C97.1415 59.185 97.7625 60.174 98.1918 61.324C98.6211 62.474 98.8358 63.7313 98.8358 65.096V80H95.5698ZM87.3818 75.653C88.3018 75.653 89.1068 75.492 89.7968 75.17C90.4868 74.848 91.1845 74.3267 91.8898 73.606V70.294C90.4638 70.3553 89.2908 70.478 88.3708 70.662C87.4508 70.846 86.7225 71.076 86.1858 71.352C85.6491 71.628 85.2735 71.9423 85.0588 72.295C84.8595 72.6477 84.7598 73.031 84.7598 73.445C84.7598 74.2577 84.9821 74.8327 85.4268 75.17C85.8715 75.492 86.5231 75.653 87.3818 75.653ZM112.271 80.368C111.136 80.368 110.132 80.207 109.258 79.885C108.399 79.5477 107.671 79.08 107.073 78.482C106.49 77.8687 106.045 77.1327 105.739 76.274C105.432 75.4153 105.279 74.457 105.279 73.399V61.071H103.255C102.887 61.071 102.572 60.956 102.312 60.726C102.051 60.4807 101.921 60.128 101.921 59.668V56.885L105.716 56.149L107.119 50.33C107.303 49.594 107.824 49.226 108.683 49.226H112.409V56.195H118.205V61.071H112.409V72.916C112.409 73.468 112.539 73.928 112.8 74.296C113.076 74.6487 113.467 74.825 113.973 74.825C114.233 74.825 114.448 74.802 114.617 74.756C114.801 74.6947 114.954 74.6333 115.077 74.572C115.215 74.4953 115.337 74.434 115.445 74.388C115.567 74.3267 115.705 74.296 115.859 74.296C116.073 74.296 116.242 74.3497 116.365 74.457C116.503 74.549 116.641 74.7023 116.779 74.917L118.941 78.298C118.021 78.988 116.986 79.5093 115.836 79.862C114.686 80.1993 113.497 80.368 112.271 80.368ZM141.837 55.781C143.647 55.781 145.295 56.0647 146.782 56.632C148.27 57.1993 149.542 58.012 150.6 59.07C151.674 60.128 152.502 61.416 153.084 62.934C153.682 64.4367 153.981 66.131 153.981 68.017C153.981 69.9183 153.682 71.6357 153.084 73.169C152.502 74.687 151.674 75.9827 150.6 77.056C149.542 78.114 148.27 78.9343 146.782 79.517C145.295 80.0843 143.647 80.368 141.837 80.368C140.013 80.368 138.349 80.0843 136.846 79.517C135.359 78.9343 134.071 78.114 132.982 77.056C131.909 75.9827 131.073 74.687 130.475 73.169C129.893 71.6357 129.601 69.9183 129.601 68.017C129.601 66.131 129.893 64.4367 130.475 62.934C131.073 61.416 131.909 60.128 132.982 59.07C134.071 58.012 135.359 57.1993 136.846 56.632C138.349 56.0647 140.013 55.781 141.837 55.781ZM141.837 75.078C143.478 75.078 144.682 74.503 145.448 73.353C146.23 72.1877 146.621 70.4243 146.621 68.063C146.621 65.7017 146.23 63.946 145.448 62.796C144.682 61.646 143.478 61.071 141.837 61.071C140.151 61.071 138.916 61.646 138.134 62.796C137.352 63.946 136.961 65.7017 136.961 68.063C136.961 70.4243 137.352 72.1877 138.134 73.353C138.916 74.503 140.151 75.078 141.837 75.078ZM164.565 56.149V71.283C164.565 72.4637 164.833 73.376 165.37 74.02C165.906 74.664 166.696 74.986 167.739 74.986C168.521 74.986 169.249 74.825 169.924 74.503C170.614 74.181 171.281 73.7287 171.925 73.146V56.149H179.055V80H174.639C173.749 80 173.167 79.6013 172.891 78.804L172.454 77.424C171.994 77.8687 171.518 78.275 171.028 78.643C170.537 78.9957 170.008 79.3023 169.441 79.563C168.889 79.8083 168.291 80 167.647 80.138C167.003 80.2913 166.297 80.368 165.531 80.368C164.227 80.368 163.07 80.1457 162.058 79.701C161.061 79.241 160.218 78.6047 159.528 77.792C158.838 76.9793 158.316 76.021 157.964 74.917C157.611 73.813 157.435 72.6017 157.435 71.283V56.149H164.565ZM184.578 80V56.149H188.81C189.163 56.149 189.454 56.1797 189.684 56.241C189.93 56.3023 190.129 56.402 190.282 56.54C190.451 56.6627 190.574 56.8313 190.65 57.046C190.742 57.2607 190.819 57.5213 190.88 57.828L191.271 60.059C192.145 58.7097 193.127 57.644 194.215 56.862C195.304 56.08 196.492 55.689 197.78 55.689C198.869 55.689 199.743 55.9497 200.402 56.471L199.482 61.715C199.421 62.037 199.298 62.267 199.114 62.405C198.93 62.5277 198.685 62.589 198.378 62.589C198.118 62.589 197.811 62.5583 197.458 62.497C197.106 62.4203 196.661 62.382 196.124 62.382C194.254 62.382 192.782 63.3787 191.708 65.372V80H184.578ZM227.057 61.37C226.873 61.6613 226.674 61.8683 226.459 61.991C226.26 62.1137 225.999 62.175 225.677 62.175C225.34 62.175 225.002 62.106 224.665 61.968C224.328 61.8147 223.96 61.6537 223.561 61.485C223.178 61.3163 222.741 61.163 222.25 61.025C221.759 60.8717 221.2 60.795 220.571 60.795C219.666 60.795 218.969 60.9713 218.478 61.324C218.003 61.6613 217.765 62.1367 217.765 62.75C217.765 63.1947 217.918 63.5627 218.225 63.854C218.547 64.1453 218.969 64.406 219.49 64.636C220.011 64.8507 220.602 65.0577 221.261 65.257C221.92 65.4563 222.595 65.6787 223.285 65.924C223.975 66.1693 224.65 66.4607 225.309 66.798C225.968 67.12 226.559 67.5263 227.08 68.017C227.601 68.4923 228.015 69.075 228.322 69.765C228.644 70.455 228.805 71.283 228.805 72.249C228.805 73.4297 228.59 74.5183 228.161 75.515C227.732 76.5117 227.088 77.3703 226.229 78.091C225.386 78.8117 224.335 79.3713 223.078 79.77C221.836 80.1687 220.402 80.368 218.777 80.368C217.964 80.368 217.152 80.2913 216.339 80.138C215.526 79.9847 214.737 79.7777 213.97 79.517C213.219 79.2563 212.521 78.9497 211.877 78.597C211.233 78.229 210.681 77.838 210.221 77.424L211.877 74.802C212.076 74.4953 212.314 74.2577 212.59 74.089C212.866 73.905 213.226 73.813 213.671 73.813C214.085 73.813 214.453 73.905 214.775 74.089C215.112 74.273 215.473 74.4723 215.856 74.687C216.239 74.9017 216.684 75.101 217.19 75.285C217.711 75.469 218.363 75.561 219.145 75.561C219.697 75.561 220.165 75.5073 220.548 75.4C220.931 75.2773 221.238 75.1163 221.468 74.917C221.698 74.7177 221.867 74.4953 221.974 74.25C222.081 74.0047 222.135 73.7517 222.135 73.491C222.135 73.0157 221.974 72.6247 221.652 72.318C221.33 72.0113 220.908 71.7507 220.387 71.536C219.866 71.306 219.268 71.099 218.593 70.915C217.934 70.7157 217.259 70.4933 216.569 70.248C215.879 70.0027 215.197 69.7113 214.522 69.374C213.863 69.0213 213.272 68.5843 212.751 68.063C212.23 67.5263 211.808 66.8747 211.486 66.108C211.164 65.3413 211.003 64.4137 211.003 63.325C211.003 62.313 211.195 61.3547 211.578 60.45C211.977 59.53 212.567 58.725 213.349 58.035C214.131 57.345 215.112 56.8007 216.293 56.402C217.474 55.988 218.854 55.781 220.433 55.781C221.292 55.781 222.12 55.8577 222.917 56.011C223.73 56.1643 224.489 56.379 225.194 56.655C225.899 56.931 226.543 57.2607 227.126 57.644C227.709 58.012 228.222 58.4183 228.667 58.863L227.057 61.37ZM241.107 80.368C239.972 80.368 238.968 80.207 238.094 79.885C237.235 79.5477 236.507 79.08 235.909 78.482C235.326 77.8687 234.881 77.1327 234.575 76.274C234.268 75.4153 234.115 74.457 234.115 73.399V61.071H232.091C231.723 61.071 231.408 60.956 231.148 60.726C230.887 60.4807 230.757 60.128 230.757 59.668V56.885L234.552 56.149L235.955 50.33C236.139 49.594 236.66 49.226 237.519 49.226H241.245V56.195H247.041V61.071H241.245V72.916C241.245 73.468 241.375 73.928 241.636 74.296C241.912 74.6487 242.303 74.825 242.809 74.825C243.069 74.825 243.284 74.802 243.453 74.756C243.637 74.6947 243.79 74.6333 243.913 74.572C244.051 74.4953 244.173 74.434 244.281 74.388C244.403 74.3267 244.541 74.296 244.695 74.296C244.909 74.296 245.078 74.3497 245.201 74.457C245.339 74.549 245.477 74.7023 245.615 74.917L247.777 78.298C246.857 78.988 245.822 79.5093 244.672 79.862C243.522 80.1993 242.333 80.368 241.107 80.368ZM257.823 56.149V71.283C257.823 72.4637 258.091 73.376 258.628 74.02C259.164 74.664 259.954 74.986 260.997 74.986C261.779 74.986 262.507 74.825 263.182 74.503C263.872 74.181 264.539 73.7287 265.183 73.146V56.149H272.313V80H267.897C267.007 80 266.425 79.6013 266.149 78.804L265.712 77.424C265.252 77.8687 264.776 78.275 264.286 78.643C263.795 78.9957 263.266 79.3023 262.699 79.563C262.147 79.8083 261.549 80 260.905 80.138C260.261 80.2913 259.555 80.368 258.789 80.368C257.485 80.368 256.328 80.1457 255.316 79.701C254.319 79.241 253.476 78.6047 252.786 77.792C252.096 76.9793 251.574 76.021 251.222 74.917C250.869 73.813 250.693 72.6017 250.693 71.283V56.149H257.823ZM294.58 80C294.136 80 293.76 79.9003 293.453 79.701C293.162 79.5017 292.955 79.2027 292.832 78.804L292.28 76.987C291.805 77.493 291.307 77.953 290.785 78.367C290.264 78.781 289.697 79.1413 289.083 79.448C288.485 79.7393 287.834 79.9617 287.128 80.115C286.438 80.2837 285.687 80.368 284.874 80.368C283.632 80.368 282.482 80.092 281.424 79.54C280.366 78.988 279.454 78.1907 278.687 77.148C277.921 76.1053 277.315 74.8327 276.87 73.33C276.441 71.812 276.226 70.087 276.226 68.155C276.226 66.3763 276.472 64.728 276.962 63.21C277.453 61.6767 278.143 60.358 279.032 59.254C279.937 58.1347 281.018 57.2607 282.275 56.632C283.533 56.0033 284.92 55.689 286.438 55.689C287.665 55.689 288.7 55.873 289.543 56.241C290.402 56.5937 291.176 57.0613 291.866 57.644V45.569H298.996V80H294.58ZM287.358 74.894C287.88 74.894 288.347 74.848 288.761 74.756C289.191 74.6487 289.582 74.503 289.934 74.319C290.287 74.135 290.617 73.905 290.923 73.629C291.245 73.353 291.56 73.031 291.866 72.663V62.543C291.314 61.945 290.724 61.531 290.095 61.301C289.482 61.0557 288.83 60.933 288.14 60.933C287.481 60.933 286.875 61.0633 286.323 61.324C285.771 61.5847 285.288 62.0063 284.874 62.589C284.476 63.1563 284.161 63.9 283.931 64.82C283.701 65.74 283.586 66.8517 283.586 68.155C283.586 69.4123 283.678 70.4703 283.862 71.329C284.046 72.1877 284.299 72.8853 284.621 73.422C284.959 73.9433 285.357 74.319 285.817 74.549C286.277 74.779 286.791 74.894 287.358 74.894ZM314.732 55.781C316.311 55.781 317.752 56.0263 319.056 56.517C320.374 57.0077 321.501 57.7207 322.437 58.656C323.387 59.5913 324.123 60.7413 324.645 62.106C325.181 63.4553 325.45 64.9887 325.45 66.706C325.45 67.2427 325.427 67.6797 325.381 68.017C325.335 68.3543 325.25 68.6227 325.128 68.822C325.005 69.0213 324.836 69.1593 324.622 69.236C324.422 69.3127 324.162 69.351 323.84 69.351H310.086C310.316 71.3443 310.921 72.7933 311.903 73.698C312.884 74.5873 314.149 75.032 315.698 75.032C316.526 75.032 317.239 74.9323 317.837 74.733C318.435 74.5337 318.964 74.3113 319.424 74.066C319.899 73.8207 320.328 73.5983 320.712 73.399C321.11 73.1997 321.524 73.1 321.954 73.1C322.521 73.1 322.95 73.307 323.242 73.721L325.312 76.274C324.576 77.1173 323.778 77.8073 322.92 78.344C322.076 78.8653 321.202 79.2793 320.298 79.586C319.408 79.8773 318.511 80.0767 317.607 80.184C316.717 80.3067 315.866 80.368 315.054 80.368C313.382 80.368 311.811 80.0997 310.339 79.563C308.882 79.011 307.602 78.1983 306.498 77.125C305.409 76.0517 304.543 74.7177 303.899 73.123C303.27 71.5283 302.956 69.673 302.956 67.557C302.956 65.9623 303.224 64.452 303.761 63.026C304.313 61.6 305.095 60.3503 306.107 59.277C307.134 58.2037 308.368 57.3527 309.81 56.724C311.266 56.0953 312.907 55.781 314.732 55.781ZM314.87 60.703C313.505 60.703 312.439 61.094 311.673 61.876C310.906 62.6427 310.4 63.7543 310.155 65.211H319.056C319.056 64.6437 318.979 64.0917 318.826 63.555C318.688 63.0183 318.45 62.543 318.113 62.129C317.791 61.6997 317.361 61.3547 316.825 61.094C316.288 60.8333 315.636 60.703 314.87 60.703ZM329.541 80V56.149H333.957C334.402 56.149 334.77 56.2487 335.061 56.448C335.368 56.6473 335.583 56.9463 335.705 57.345L336.119 58.725C336.579 58.2957 337.055 57.897 337.545 57.529C338.036 57.161 338.557 56.8543 339.109 56.609C339.677 56.3483 340.282 56.149 340.926 56.011C341.586 55.8577 342.299 55.781 343.065 55.781C344.369 55.781 345.519 56.011 346.515 56.471C347.527 56.9157 348.378 57.5443 349.068 58.357C349.758 59.1543 350.28 60.1127 350.632 61.232C350.985 62.336 351.161 63.5397 351.161 64.843V80H344.031V64.843C344.031 63.6777 343.763 62.773 343.226 62.129C342.69 61.4697 341.9 61.14 340.857 61.14C340.075 61.14 339.339 61.3087 338.649 61.646C337.959 61.9833 337.3 62.4357 336.671 63.003V80H329.541ZM364.597 80.368C363.462 80.368 362.458 80.207 361.584 79.885C360.725 79.5477 359.997 79.08 359.399 78.482C358.816 77.8687 358.372 77.1327 358.065 76.274C357.758 75.4153 357.605 74.457 357.605 73.399V61.071H355.581C355.213 61.071 354.899 60.956 354.638 60.726C354.377 60.4807 354.247 60.128 354.247 59.668V56.885L358.042 56.149L359.445 50.33C359.629 49.594 360.15 49.226 361.009 49.226H364.735V56.195H370.531V61.071H364.735V72.916C364.735 73.468 364.865 73.928 365.126 74.296C365.402 74.6487 365.793 74.825 366.299 74.825C366.56 74.825 366.774 74.802 366.943 74.756C367.127 74.6947 367.28 74.6333 367.403 74.572C367.541 74.4953 367.664 74.434 367.771 74.388C367.894 74.3267 368.032 74.296 368.185 74.296C368.4 74.296 368.568 74.3497 368.691 74.457C368.829 74.549 368.967 74.7023 369.105 74.917L371.267 78.298C370.347 78.988 369.312 79.5093 368.162 79.862C367.012 80.1993 365.824 80.368 364.597 80.368ZM389.225 61.37C389.041 61.6613 388.841 61.8683 388.627 61.991C388.427 62.1137 388.167 62.175 387.845 62.175C387.507 62.175 387.17 62.106 386.833 61.968C386.495 61.8147 386.127 61.6537 385.729 61.485C385.345 61.3163 384.908 61.163 384.418 61.025C383.927 60.8717 383.367 60.795 382.739 60.795C381.834 60.795 381.136 60.9713 380.646 61.324C380.17 61.6613 379.933 62.1367 379.933 62.75C379.933 63.1947 380.086 63.5627 380.393 63.854C380.715 64.1453 381.136 64.406 381.658 64.636C382.179 64.8507 382.769 65.0577 383.429 65.257C384.088 65.4563 384.763 65.6787 385.453 65.924C386.143 66.1693 386.817 66.4607 387.477 66.798C388.136 67.12 388.726 67.5263 389.248 68.017C389.769 68.4923 390.183 69.075 390.49 69.765C390.812 70.455 390.973 71.283 390.973 72.249C390.973 73.4297 390.758 74.5183 390.329 75.515C389.899 76.5117 389.255 77.3703 388.397 78.091C387.553 78.8117 386.503 79.3713 385.246 79.77C384.004 80.1687 382.57 80.368 380.945 80.368C380.132 80.368 379.319 80.2913 378.507 80.138C377.694 79.9847 376.904 79.7777 376.138 79.517C375.386 79.2563 374.689 78.9497 374.045 78.597C373.401 78.229 372.849 77.838 372.389 77.424L374.045 74.802C374.244 74.4953 374.482 74.2577 374.758 74.089C375.034 73.905 375.394 73.813 375.839 73.813C376.253 73.813 376.621 73.905 376.943 74.089C377.28 74.273 377.64 74.4723 378.024 74.687C378.407 74.9017 378.852 75.101 379.358 75.285C379.879 75.469 380.531 75.561 381.313 75.561C381.865 75.561 382.332 75.5073 382.716 75.4C383.099 75.2773 383.406 75.1163 383.636 74.917C383.866 74.7177 384.034 74.4953 384.142 74.25C384.249 74.0047 384.303 73.7517 384.303 73.491C384.303 73.0157 384.142 72.6247 383.82 72.318C383.498 72.0113 383.076 71.7507 382.555 71.536C382.033 71.306 381.435 71.099 380.761 70.915C380.101 70.7157 379.427 70.4933 378.737 70.248C378.047 70.0027 377.364 69.7113 376.69 69.374C376.03 69.0213 375.44 68.5843 374.919 68.063C374.397 67.5263 373.976 66.8747 373.654 66.108C373.332 65.3413 373.171 64.4137 373.171 63.325C373.171 62.313 373.362 61.3547 373.746 60.45C374.144 59.53 374.735 58.725 375.517 58.035C376.299 57.345 377.28 56.8007 378.461 56.402C379.641 55.988 381.021 55.781 382.601 55.781C383.459 55.781 384.287 55.8577 385.085 56.011C385.897 56.1643 386.656 56.379 387.362 56.655C388.067 56.931 388.711 57.2607 389.294 57.644C389.876 58.012 390.39 58.4183 390.835 58.863L389.225 61.37ZM418.379 61.37C418.195 61.6613 417.996 61.8683 417.781 61.991C417.582 62.1137 417.321 62.175 416.999 62.175C416.662 62.175 416.324 62.106 415.987 61.968C415.65 61.8147 415.282 61.6537 414.883 61.485C414.5 61.3163 414.063 61.163 413.572 61.025C413.081 60.8717 412.522 60.795 411.893 60.795C410.988 60.795 410.291 60.9713 409.8 61.324C409.325 61.6613 409.087 62.1367 409.087 62.75C409.087 63.1947 409.24 63.5627 409.547 63.854C409.869 64.1453 410.291 64.406 410.812 64.636C411.333 64.8507 411.924 65.0577 412.583 65.257C413.242 65.4563 413.917 65.6787 414.607 65.924C415.297 66.1693 415.972 66.4607 416.631 66.798C417.29 67.12 417.881 67.5263 418.402 68.017C418.923 68.4923 419.337 69.075 419.644 69.765C419.966 70.455 420.127 71.283 420.127 72.249C420.127 73.4297 419.912 74.5183 419.483 75.515C419.054 76.5117 418.41 77.3703 417.551 78.091C416.708 78.8117 415.657 79.3713 414.4 79.77C413.158 80.1687 411.724 80.368 410.099 80.368C409.286 80.368 408.474 80.2913 407.661 80.138C406.848 79.9847 406.059 79.7777 405.292 79.517C404.541 79.2563 403.843 78.9497 403.199 78.597C402.555 78.229 402.003 77.838 401.543 77.424L403.199 74.802C403.398 74.4953 403.636 74.2577 403.912 74.089C404.188 73.905 404.548 73.813 404.993 73.813C405.407 73.813 405.775 73.905 406.097 74.089C406.434 74.273 406.795 74.4723 407.178 74.687C407.561 74.9017 408.006 75.101 408.512 75.285C409.033 75.469 409.685 75.561 410.467 75.561C411.019 75.561 411.487 75.5073 411.87 75.4C412.253 75.2773 412.56 75.1163 412.79 74.917C413.02 74.7177 413.189 74.4953 413.296 74.25C413.403 74.0047 413.457 73.7517 413.457 73.491C413.457 73.0157 413.296 72.6247 412.974 72.318C412.652 72.0113 412.23 71.7507 411.709 71.536C411.188 71.306 410.59 71.099 409.915 70.915C409.256 70.7157 408.581 70.4933 407.891 70.248C407.201 70.0027 406.519 69.7113 405.844 69.374C405.185 69.0213 404.594 68.5843 404.073 68.063C403.552 67.5263 403.13 66.8747 402.808 66.108C402.486 65.3413 402.325 64.4137 402.325 63.325C402.325 62.313 402.517 61.3547 402.9 60.45C403.299 59.53 403.889 58.725 404.671 58.035C405.453 57.345 406.434 56.8007 407.615 56.402C408.796 55.988 410.176 55.781 411.755 55.781C412.614 55.781 413.442 55.8577 414.239 56.011C415.052 56.1643 415.811 56.379 416.516 56.655C417.221 56.931 417.865 57.2607 418.448 57.644C419.031 58.012 419.544 58.4183 419.989 58.863L418.379 61.37ZM440.525 80C439.85 80 439.337 79.908 438.984 79.724C438.647 79.54 438.363 79.1567 438.133 78.574L437.627 77.263C437.029 77.769 436.454 78.2137 435.902 78.597C435.35 78.9803 434.775 79.31 434.177 79.586C433.594 79.8467 432.966 80.0383 432.291 80.161C431.632 80.299 430.896 80.368 430.083 80.368C428.994 80.368 428.005 80.23 427.116 79.954C426.227 79.6627 425.468 79.241 424.839 78.689C424.226 78.137 423.75 77.4547 423.413 76.642C423.076 75.814 422.907 74.8633 422.907 73.79C422.907 72.9467 423.122 72.0803 423.551 71.191C423.98 70.3017 424.724 69.4967 425.782 68.776C426.84 68.04 428.266 67.4267 430.06 66.936C431.854 66.4453 434.116 66.1693 436.845 66.108V65.096C436.845 63.7007 436.554 62.6963 435.971 62.083C435.404 61.4543 434.591 61.14 433.533 61.14C432.69 61.14 432 61.232 431.463 61.416C430.926 61.6 430.443 61.807 430.014 62.037C429.6 62.267 429.194 62.474 428.795 62.658C428.396 62.842 427.921 62.934 427.369 62.934C426.878 62.934 426.457 62.819 426.104 62.589C425.767 62.3437 425.498 62.0447 425.299 61.692L424.011 59.461C425.452 58.1883 427.047 57.2453 428.795 56.632C430.558 56.0033 432.444 55.689 434.453 55.689C435.894 55.689 437.19 55.9267 438.34 56.402C439.505 56.862 440.487 57.5137 441.284 58.357C442.097 59.185 442.718 60.174 443.147 61.324C443.576 62.474 443.791 63.7313 443.791 65.096V80H440.525ZM432.337 75.653C433.257 75.653 434.062 75.492 434.752 75.17C435.442 74.848 436.14 74.3267 436.845 73.606V70.294C435.419 70.3553 434.246 70.478 433.326 70.662C432.406 70.846 431.678 71.076 431.141 71.352C430.604 71.628 430.229 71.9423 430.014 72.295C429.815 72.6477 429.715 73.031 429.715 73.445C429.715 74.2577 429.937 74.8327 430.382 75.17C430.827 75.492 431.478 75.653 432.337 75.653ZM457.707 86.187C457.493 86.6623 457.232 87.0073 456.925 87.222C456.619 87.452 456.128 87.567 455.453 87.567H450.117L454.717 77.907L445.195 56.149H451.497C452.049 56.149 452.479 56.2717 452.785 56.517C453.092 56.7623 453.307 57.0537 453.429 57.391L457.339 67.672C457.707 68.6227 458.006 69.5733 458.236 70.524C458.39 70.0333 458.558 69.5503 458.742 69.075C458.926 68.5997 459.103 68.1167 459.271 67.626L462.813 57.391C462.936 57.0383 463.174 56.747 463.526 56.517C463.894 56.2717 464.285 56.149 464.699 56.149H470.449L457.707 86.187Z" fill="#1E212C"/>
</svg>
