<svg width="461" height="92" viewBox="0 0 461 92" fill="none" xmlns="http://www.w3.org/2000/svg">
<g clip-path="url(#clip0_2234_10599)">
<path d="M189.264 12.216C189.264 13.064 189.123 13.8507 188.84 14.576C188.557 15.296 188.16 15.92 187.648 16.448C187.136 16.976 186.52 17.3893 185.8 17.688C185.08 17.9813 184.283 18.128 183.408 18.128C182.533 18.128 181.733 17.9813 181.008 17.688C180.288 17.3893 179.669 16.976 179.152 16.448C178.64 15.92 178.243 15.296 177.96 14.576C177.677 13.8507 177.536 13.064 177.536 12.216C177.536 11.368 177.677 10.584 177.96 9.864C178.243 9.13867 178.64 8.512 179.152 7.984C179.669 7.456 180.288 7.04533 181.008 6.752C181.733 6.45333 182.533 6.304 183.408 6.304C184.283 6.304 185.08 6.45333 185.8 6.752C186.52 7.05067 187.136 7.464 187.648 7.992C188.16 8.51467 188.557 9.13867 188.84 9.864C189.123 10.584 189.264 11.368 189.264 12.216ZM187.056 12.216C187.056 11.5813 186.971 11.0133 186.8 10.512C186.635 10.0053 186.395 9.576 186.08 9.224C185.765 8.872 185.381 8.60267 184.928 8.416C184.48 8.22933 183.973 8.136 183.408 8.136C182.843 8.136 182.333 8.22933 181.88 8.416C181.427 8.60267 181.04 8.872 180.72 9.224C180.405 9.576 180.163 10.0053 179.992 10.512C179.821 11.0133 179.736 11.5813 179.736 12.216C179.736 12.8507 179.821 13.4213 179.992 13.928C180.163 14.4293 180.405 14.856 180.72 15.208C181.04 15.5547 181.427 15.8213 181.88 16.008C182.333 16.1947 182.843 16.288 183.408 16.288C183.973 16.288 184.48 16.1947 184.928 16.008C185.381 15.8213 185.765 15.5547 186.08 15.208C186.395 14.856 186.635 14.4293 186.8 13.928C186.971 13.4213 187.056 12.8507 187.056 12.216ZM196.621 16.264C197.037 16.264 197.408 16.1947 197.733 16.056C198.064 15.9173 198.341 15.7227 198.565 15.472C198.794 15.2213 198.968 14.9173 199.085 14.56C199.208 14.2027 199.269 13.8027 199.269 13.36V6.432H201.421V13.36C201.421 14.048 201.309 14.6853 201.085 15.272C200.866 15.8533 200.549 16.3573 200.133 16.784C199.717 17.2053 199.213 17.536 198.621 17.776C198.029 18.0107 197.362 18.128 196.621 18.128C195.88 18.128 195.213 18.0107 194.621 17.776C194.029 17.536 193.525 17.2053 193.109 16.784C192.698 16.3573 192.381 15.8533 192.157 15.272C191.938 14.6853 191.829 14.048 191.829 13.36V6.432H193.981V13.352C193.981 13.7947 194.04 14.1947 194.157 14.552C194.28 14.9093 194.453 15.216 194.677 15.472C194.901 15.7227 195.176 15.9173 195.501 16.056C195.832 16.1947 196.205 16.264 196.621 16.264ZM206.83 13.48V18H204.678V6.432H208.206C208.995 6.432 209.67 6.51467 210.23 6.68C210.795 6.84 211.256 7.06667 211.614 7.36C211.976 7.65333 212.24 8.00533 212.406 8.416C212.576 8.82133 212.661 9.26933 212.661 9.76C212.661 10.1493 212.603 10.5173 212.486 10.864C212.374 11.2107 212.208 11.5253 211.99 11.808C211.776 12.0907 211.51 12.3387 211.19 12.552C210.875 12.7653 210.515 12.936 210.11 13.064C210.382 13.2187 210.616 13.44 210.814 13.728L213.71 18H211.774C211.587 18 211.427 17.9627 211.294 17.888C211.166 17.8133 211.056 17.7067 210.966 17.568L208.534 13.864C208.443 13.7253 208.342 13.6267 208.23 13.568C208.123 13.5093 207.963 13.48 207.75 13.48H206.83ZM206.83 11.936H208.174C208.579 11.936 208.931 11.8853 209.23 11.784C209.534 11.6827 209.782 11.544 209.974 11.368C210.171 11.1867 210.318 10.9733 210.414 10.728C210.51 10.4827 210.558 10.2133 210.558 9.92C210.558 9.33333 210.363 8.88267 209.974 8.568C209.59 8.25333 209 8.096 208.206 8.096H206.83V11.936ZM227.48 6.432V8.144H222.352V11.352H226.392V13.008H222.352V16.28H227.48V18H220.184V6.432H227.48ZM229.204 6.432H230.94C231.127 6.432 231.279 6.47733 231.396 6.568C231.513 6.65867 231.601 6.776 231.66 6.92L234.38 13.976C234.471 14.2053 234.556 14.4587 234.636 14.736C234.721 15.008 234.801 15.296 234.876 15.6C234.999 14.9867 235.151 14.4453 235.332 13.976L238.044 6.92C238.092 6.79733 238.177 6.68533 238.3 6.584C238.423 6.48267 238.575 6.432 238.756 6.432H240.492L235.82 18H233.876L229.204 6.432ZM249.995 6.432V8.144H244.867V11.352H248.907V13.008H244.867V16.28H249.995V18H242.699V6.432H249.995ZM253.984 6.432C254.08 6.432 254.16 6.43733 254.224 6.448C254.288 6.45333 254.344 6.46933 254.392 6.496C254.445 6.51733 254.496 6.552 254.544 6.6C254.592 6.64267 254.645 6.70133 254.704 6.776L260.776 14.512C260.754 14.3253 260.738 14.144 260.727 13.968C260.722 13.7867 260.72 13.6187 260.72 13.464V6.432H262.616V18H261.504C261.333 18 261.192 17.9733 261.08 17.92C260.968 17.8667 260.858 17.7707 260.752 17.632L254.704 9.928C254.72 10.0987 254.73 10.2693 254.736 10.44C254.746 10.6053 254.752 10.7573 254.752 10.896V18H252.856V6.432H253.984ZM274.101 6.432V8.2H270.621V18H268.469V8.2H264.973V6.432H274.101ZM282.665 8.536C282.606 8.65333 282.537 8.736 282.457 8.784C282.382 8.832 282.292 8.856 282.185 8.856C282.078 8.856 281.958 8.816 281.825 8.736C281.692 8.65067 281.534 8.55733 281.353 8.456C281.172 8.35467 280.958 8.264 280.713 8.184C280.473 8.09867 280.188 8.056 279.857 8.056C279.558 8.056 279.297 8.09333 279.073 8.168C278.854 8.23733 278.668 8.336 278.513 8.464C278.364 8.592 278.252 8.74667 278.177 8.928C278.102 9.104 278.065 9.29867 278.065 9.512C278.065 9.784 278.14 10.0107 278.289 10.192C278.444 10.3733 278.646 10.528 278.897 10.656C279.148 10.784 279.433 10.8987 279.753 11C280.073 11.1013 280.398 11.2107 280.729 11.328C281.065 11.44 281.393 11.5733 281.713 11.728C282.033 11.8773 282.318 12.0693 282.569 12.304C282.82 12.5333 283.02 12.816 283.169 13.152C283.324 13.488 283.401 13.896 283.401 14.376C283.401 14.8987 283.31 15.3893 283.129 15.848C282.953 16.3013 282.692 16.6987 282.345 17.04C282.004 17.376 281.585 17.6427 281.089 17.84C280.593 18.032 280.025 18.128 279.385 18.128C279.017 18.128 278.654 18.0907 278.297 18.016C277.94 17.9467 277.596 17.8453 277.265 17.712C276.94 17.5787 276.633 17.4187 276.345 17.232C276.062 17.0453 275.809 16.8373 275.585 16.608L276.209 15.576C276.268 15.5013 276.337 15.44 276.417 15.392C276.502 15.3387 276.596 15.312 276.697 15.312C276.83 15.312 276.974 15.368 277.129 15.48C277.284 15.5867 277.465 15.7067 277.673 15.84C277.886 15.9733 278.134 16.096 278.417 16.208C278.705 16.3147 279.049 16.368 279.449 16.368C280.062 16.368 280.537 16.224 280.873 15.936C281.209 15.6427 281.377 15.224 281.377 14.68C281.377 14.376 281.3 14.128 281.145 13.936C280.996 13.744 280.796 13.584 280.545 13.456C280.294 13.3227 280.009 13.2107 279.689 13.12C279.369 13.0293 279.044 12.9307 278.713 12.824C278.382 12.7173 278.057 12.5893 277.737 12.44C277.417 12.2907 277.132 12.096 276.881 11.856C276.63 11.616 276.428 11.3173 276.273 10.96C276.124 10.5973 276.049 10.152 276.049 9.624C276.049 9.20267 276.132 8.792 276.297 8.392C276.468 7.992 276.713 7.63733 277.033 7.328C277.358 7.01867 277.756 6.77067 278.225 6.584C278.694 6.39733 279.23 6.304 279.833 6.304C280.516 6.304 281.145 6.41067 281.721 6.624C282.297 6.83733 282.788 7.136 283.193 7.52L282.665 8.536Z" fill="#1E212C"/>
<path d="M10.534 73.79H22.954V80H2.76V46.489H10.534V73.79ZM35.9271 55.781C37.5064 55.781 38.9477 56.0263 40.2511 56.517C41.5697 57.0077 42.6967 57.7207 43.6321 58.656C44.5827 59.5913 45.3187 60.7413 45.8401 62.106C46.3767 63.4553 46.6451 64.9887 46.6451 66.706C46.6451 67.2427 46.6221 67.6797 46.5761 68.017C46.5301 68.3543 46.4457 68.6227 46.3231 68.822C46.2004 69.0213 46.0317 69.1593 45.8171 69.236C45.6177 69.3127 45.3571 69.351 45.0351 69.351H31.2811C31.5111 71.3443 32.1167 72.7933 33.0981 73.698C34.0794 74.5873 35.3444 75.032 36.8931 75.032C37.7211 75.032 38.4341 74.9323 39.0321 74.733C39.6301 74.5337 40.1591 74.3113 40.6191 74.066C41.0944 73.8207 41.5237 73.5983 41.9071 73.399C42.3057 73.1997 42.7197 73.1 43.1491 73.1C43.7164 73.1 44.1457 73.307 44.4371 73.721L46.5071 76.274C45.7711 77.1173 44.9737 77.8073 44.1151 78.344C43.2717 78.8653 42.3977 79.2793 41.4931 79.586C40.6037 79.8773 39.7067 80.0767 38.8021 80.184C37.9127 80.3067 37.0617 80.368 36.2491 80.368C34.5777 80.368 33.0061 80.0997 31.5341 79.563C30.0774 79.011 28.7971 78.1983 27.6931 77.125C26.6044 76.0517 25.7381 74.7177 25.0941 73.123C24.4654 71.5283 24.1511 69.673 24.1511 67.557C24.1511 65.9623 24.4194 64.452 24.9561 63.026C25.5081 61.6 26.2901 60.3503 27.3021 59.277C28.3294 58.2037 29.5637 57.3527 31.0051 56.724C32.4617 56.0953 34.1024 55.781 35.9271 55.781ZM36.0651 60.703C34.7004 60.703 33.6347 61.094 32.8681 61.876C32.1014 62.6427 31.5954 63.7543 31.3501 65.211H40.2511C40.2511 64.6437 40.1744 64.0917 40.0211 63.555C39.8831 63.0183 39.6454 62.543 39.3081 62.129C38.9861 61.6997 38.5567 61.3547 38.0201 61.094C37.4834 60.8333 36.8317 60.703 36.0651 60.703ZM67.9406 61.807C67.7259 62.0677 67.5189 62.2747 67.3196 62.428C67.1202 62.5813 66.8366 62.658 66.4686 62.658C66.1159 62.658 65.7939 62.5737 65.5026 62.405C65.2266 62.2363 64.9122 62.0523 64.5596 61.853C64.2069 61.6383 63.7929 61.4467 63.3176 61.278C62.8422 61.1093 62.2519 61.025 61.5466 61.025C60.6726 61.025 59.9136 61.186 59.2696 61.508C58.6409 61.83 58.1196 62.29 57.7056 62.888C57.2916 63.486 56.9849 64.222 56.7856 65.096C56.5862 65.9547 56.4866 66.9283 56.4866 68.017C56.4866 70.3017 56.9236 72.0573 57.7976 73.284C58.6869 74.5107 59.9059 75.124 61.4546 75.124C62.2826 75.124 62.9342 75.0243 63.4096 74.825C63.9002 74.6103 64.3142 74.3803 64.6516 74.135C64.9889 73.8743 65.2956 73.6367 65.5716 73.422C65.8629 73.2073 66.2232 73.1 66.6526 73.1C67.2199 73.1 67.6492 73.307 67.9406 73.721L70.0106 76.274C69.2746 77.1173 68.5002 77.8073 67.6876 78.344C66.8749 78.8653 66.0392 79.2793 65.1806 79.586C64.3372 79.8773 63.4862 80.0767 62.6276 80.184C61.7689 80.3067 60.9332 80.368 60.1206 80.368C58.6639 80.368 57.2686 80.092 55.9346 79.54C54.6159 78.988 53.4506 78.1907 52.4386 77.148C51.4419 76.09 50.6446 74.7943 50.0466 73.261C49.4639 71.7277 49.1726 69.9797 49.1726 68.017C49.1726 66.2997 49.4256 64.6973 49.9316 63.21C50.4529 61.7073 51.2119 60.4117 52.2086 59.323C53.2206 58.219 54.4626 57.3527 55.9346 56.724C57.4219 56.0953 59.1392 55.781 61.0866 55.781C62.9572 55.781 64.5979 56.08 66.0086 56.678C67.4192 57.276 68.6919 58.15 69.8266 59.3L67.9406 61.807ZM81.4797 80.368C80.345 80.368 79.3407 80.207 78.4667 79.885C77.608 79.5477 76.8797 79.08 76.2817 78.482C75.699 77.8687 75.2543 77.1327 74.9477 76.274C74.641 75.4153 74.4877 74.457 74.4877 73.399V61.071H72.4637C72.0957 61.071 71.7813 60.956 71.5207 60.726C71.26 60.4807 71.1297 60.128 71.1297 59.668V56.885L74.9247 56.149L76.3277 50.33C76.5117 49.594 77.033 49.226 77.8917 49.226H81.6177V56.195H87.4137V61.071H81.6177V72.916C81.6177 73.468 81.748 73.928 82.0087 74.296C82.2847 74.6487 82.6757 74.825 83.1817 74.825C83.4423 74.825 83.657 74.802 83.8257 74.756C84.0097 74.6947 84.163 74.6333 84.2857 74.572C84.4237 74.4953 84.5463 74.434 84.6537 74.388C84.7763 74.3267 84.9143 74.296 85.0677 74.296C85.2823 74.296 85.451 74.3497 85.5737 74.457C85.7117 74.549 85.8497 74.7023 85.9877 74.917L88.1497 78.298C87.2297 78.988 86.1947 79.5093 85.0447 79.862C83.8947 80.1993 82.7063 80.368 81.4797 80.368ZM98.1956 56.149V71.283C98.1956 72.4637 98.464 73.376 99.0006 74.02C99.5373 74.664 100.327 74.986 101.37 74.986C102.152 74.986 102.88 74.825 103.555 74.503C104.245 74.181 104.912 73.7287 105.556 73.146V56.149H112.686V80H108.27C107.38 80 106.798 79.6013 106.522 78.804L106.085 77.424C105.625 77.8687 105.149 78.275 104.659 78.643C104.168 78.9957 103.639 79.3023 103.072 79.563C102.52 79.8083 101.922 80 101.278 80.138C100.634 80.2913 99.9283 80.368 99.1616 80.368C97.8583 80.368 96.7006 80.1457 95.6886 79.701C94.692 79.241 93.8486 78.6047 93.1586 77.792C92.4686 76.9793 91.9473 76.021 91.5946 74.917C91.242 73.813 91.0656 72.6017 91.0656 71.283V56.149H98.1956ZM118.209 80V56.149H122.441C122.794 56.149 123.085 56.1797 123.315 56.241C123.561 56.3023 123.76 56.402 123.913 56.54C124.082 56.6627 124.205 56.8313 124.281 57.046C124.373 57.2607 124.45 57.5213 124.511 57.828L124.902 60.059C125.776 58.7097 126.758 57.644 127.846 56.862C128.935 56.08 130.123 55.689 131.411 55.689C132.5 55.689 133.374 55.9497 134.033 56.471L133.113 61.715C133.052 62.037 132.929 62.267 132.745 62.405C132.561 62.5277 132.316 62.589 132.009 62.589C131.749 62.589 131.442 62.5583 131.089 62.497C130.737 62.4203 130.292 62.382 129.755 62.382C127.885 62.382 126.413 63.3787 125.339 65.372V80H118.209ZM147.423 55.781C149.003 55.781 150.444 56.0263 151.747 56.517C153.066 57.0077 154.193 57.7207 155.128 58.656C156.079 59.5913 156.815 60.7413 157.336 62.106C157.873 63.4553 158.141 64.9887 158.141 66.706C158.141 67.2427 158.118 67.6797 158.072 68.017C158.026 68.3543 157.942 68.6227 157.819 68.822C157.697 69.0213 157.528 69.1593 157.313 69.236C157.114 69.3127 156.853 69.351 156.531 69.351H142.777C143.007 71.3443 143.613 72.7933 144.594 73.698C145.576 74.5873 146.841 75.032 148.389 75.032C149.217 75.032 149.93 74.9323 150.528 74.733C151.126 74.5337 151.655 74.3113 152.115 74.066C152.591 73.8207 153.02 73.5983 153.403 73.399C153.802 73.1997 154.216 73.1 154.645 73.1C155.213 73.1 155.642 73.307 155.933 73.721L158.003 76.274C157.267 77.1173 156.47 77.8073 155.611 78.344C154.768 78.8653 153.894 79.2793 152.989 79.586C152.1 79.8773 151.203 80.0767 150.298 80.184C149.409 80.3067 148.558 80.368 147.745 80.368C146.074 80.368 144.502 80.0997 143.03 79.563C141.574 79.011 140.293 78.1983 139.189 77.125C138.101 76.0517 137.234 74.7177 136.59 73.123C135.962 71.5283 135.647 69.673 135.647 67.557C135.647 65.9623 135.916 64.452 136.452 63.026C137.004 61.6 137.786 60.3503 138.798 59.277C139.826 58.2037 141.06 57.3527 142.501 56.724C143.958 56.0953 145.599 55.781 147.423 55.781ZM147.561 60.703C146.197 60.703 145.131 61.094 144.364 61.876C143.598 62.6427 143.092 63.7543 142.846 65.211H151.747C151.747 64.6437 151.671 64.0917 151.517 63.555C151.379 63.0183 151.142 62.543 150.804 62.129C150.482 61.6997 150.053 61.3547 149.516 61.094C148.98 60.8333 148.328 60.703 147.561 60.703ZM176.815 61.37C176.631 61.6613 176.431 61.8683 176.217 61.991C176.017 62.1137 175.757 62.175 175.435 62.175C175.097 62.175 174.76 62.106 174.423 61.968C174.085 61.8147 173.717 61.6537 173.319 61.485C172.935 61.3163 172.498 61.163 172.008 61.025C171.517 60.8717 170.957 60.795 170.329 60.795C169.424 60.795 168.726 60.9713 168.236 61.324C167.76 61.6613 167.523 62.1367 167.523 62.75C167.523 63.1947 167.676 63.5627 167.983 63.854C168.305 64.1453 168.726 64.406 169.248 64.636C169.769 64.8507 170.359 65.0577 171.019 65.257C171.678 65.4563 172.353 65.6787 173.043 65.924C173.733 66.1693 174.407 66.4607 175.067 66.798C175.726 67.12 176.316 67.5263 176.838 68.017C177.359 68.4923 177.773 69.075 178.08 69.765C178.402 70.455 178.563 71.283 178.563 72.249C178.563 73.4297 178.348 74.5183 177.919 75.515C177.489 76.5117 176.845 77.3703 175.987 78.091C175.143 78.8117 174.093 79.3713 172.836 79.77C171.594 80.1687 170.16 80.368 168.535 80.368C167.722 80.368 166.909 80.2913 166.097 80.138C165.284 79.9847 164.494 79.7777 163.728 79.517C162.976 79.2563 162.279 78.9497 161.635 78.597C160.991 78.229 160.439 77.838 159.979 77.424L161.635 74.802C161.834 74.4953 162.072 74.2577 162.348 74.089C162.624 73.905 162.984 73.813 163.429 73.813C163.843 73.813 164.211 73.905 164.533 74.089C164.87 74.273 165.23 74.4723 165.614 74.687C165.997 74.9017 166.442 75.101 166.948 75.285C167.469 75.469 168.121 75.561 168.903 75.561C169.455 75.561 169.922 75.5073 170.306 75.4C170.689 75.2773 170.996 75.1163 171.226 74.917C171.456 74.7177 171.624 74.4953 171.732 74.25C171.839 74.0047 171.893 73.7517 171.893 73.491C171.893 73.0157 171.732 72.6247 171.41 72.318C171.088 72.0113 170.666 71.7507 170.145 71.536C169.623 71.306 169.025 71.099 168.351 70.915C167.691 70.7157 167.017 70.4933 166.327 70.248C165.637 70.0027 164.954 69.7113 164.28 69.374C163.62 69.0213 163.03 68.5843 162.509 68.063C161.987 67.5263 161.566 66.8747 161.244 66.108C160.922 65.3413 160.761 64.4137 160.761 63.325C160.761 62.313 160.952 61.3547 161.336 60.45C161.734 59.53 162.325 58.725 163.107 58.035C163.889 57.345 164.87 56.8007 166.051 56.402C167.231 55.988 168.611 55.781 170.191 55.781C171.049 55.781 171.877 55.8577 172.675 56.011C173.487 56.1643 174.246 56.379 174.952 56.655C175.657 56.931 176.301 57.2607 176.884 57.644C177.466 58.012 177.98 58.4183 178.425 58.863L176.815 61.37ZM203.899 46.121C205.386 46.121 206.697 46.3433 207.832 46.788C208.967 47.2173 209.925 47.7923 210.707 48.513C211.489 49.2183 212.102 50.0387 212.547 50.974C212.992 51.9093 213.268 52.8677 213.375 53.849L208.775 54.769C208.698 54.7843 208.629 54.7997 208.568 54.815C208.522 54.815 208.468 54.815 208.407 54.815C207.763 54.815 207.288 54.4777 206.981 53.803C206.628 53.0057 206.214 52.4 205.739 51.986C205.279 51.572 204.666 51.365 203.899 51.365C203.362 51.365 202.895 51.4647 202.496 51.664C202.097 51.8633 201.76 52.124 201.484 52.446C201.223 52.768 201.024 53.1437 200.886 53.573C200.748 54.0023 200.679 54.447 200.679 54.907C200.679 55.3057 200.71 55.689 200.771 56.057C200.848 56.425 200.963 56.8007 201.116 57.184C201.285 57.552 201.507 57.9353 201.783 58.334C202.074 58.7327 202.442 59.162 202.887 59.622L211.167 68.362C211.581 67.442 211.911 66.4837 212.156 65.487C212.401 64.4903 212.578 63.4553 212.685 62.382C212.716 61.9527 212.854 61.6153 213.099 61.37C213.36 61.1247 213.697 61.002 214.111 61.002H218.619C218.619 63.2407 218.32 65.3337 217.722 67.281C217.124 69.213 216.273 70.984 215.169 72.594L222.207 80H215.169C214.816 80 214.502 79.9847 214.226 79.954C213.95 79.908 213.689 79.839 213.444 79.747C213.214 79.655 212.992 79.5247 212.777 79.356C212.562 79.1873 212.332 78.9727 212.087 78.712L210.638 77.194C209.181 78.206 207.587 78.988 205.854 79.54C204.137 80.092 202.304 80.368 200.357 80.368C199.023 80.368 197.712 80.138 196.424 79.678C195.151 79.218 194.017 78.5663 193.02 77.723C192.023 76.8643 191.218 75.8293 190.605 74.618C189.992 73.4067 189.685 72.0497 189.685 70.547C189.685 69.535 189.838 68.5767 190.145 67.672C190.467 66.7673 190.912 65.9317 191.479 65.165C192.046 64.383 192.721 63.6777 193.503 63.049C194.3 62.405 195.167 61.8453 196.102 61.37C195.381 60.2507 194.86 59.1543 194.538 58.081C194.216 57.0077 194.055 55.965 194.055 54.953C194.055 53.757 194.27 52.63 194.699 51.572C195.144 50.4987 195.78 49.5633 196.608 48.766C197.451 47.9533 198.479 47.3093 199.69 46.834C200.917 46.3587 202.32 46.121 203.899 46.121ZM196.953 69.972C196.953 70.708 197.06 71.375 197.275 71.973C197.505 72.571 197.827 73.0847 198.241 73.514C198.655 73.9433 199.146 74.2807 199.713 74.526C200.296 74.756 200.94 74.871 201.645 74.871C202.672 74.871 203.623 74.7407 204.497 74.48C205.386 74.204 206.214 73.8207 206.981 73.33L199.276 65.165C198.433 65.855 197.835 66.6063 197.482 67.419C197.129 68.2317 196.953 69.0827 196.953 69.972ZM230.764 56.149H236.468C236.974 56.149 237.411 56.264 237.779 56.494C238.147 56.724 238.369 57.023 238.446 57.391L240.838 68.086C241.022 68.8987 241.19 69.6883 241.344 70.455C241.497 71.2217 241.635 71.9807 241.758 72.732C241.972 71.9807 242.195 71.2293 242.425 70.478C242.67 69.7113 242.908 68.914 243.138 68.086L246.128 57.368C246.22 57.0153 246.442 56.724 246.795 56.494C247.147 56.2487 247.554 56.126 248.014 56.126H251.188C251.694 56.126 252.123 56.2487 252.476 56.494C252.844 56.724 253.074 57.0153 253.166 57.368L256.018 68.086C256.232 68.8987 256.447 69.6883 256.662 70.455C256.892 71.2217 257.106 71.996 257.306 72.778C257.428 72.0113 257.574 71.2523 257.743 70.501C257.927 69.7343 258.118 68.9293 258.318 68.086L260.848 57.391C260.924 57.023 261.139 56.724 261.492 56.494C261.86 56.264 262.274 56.149 262.734 56.149H268.162L260.756 80H254.96C254.653 80 254.392 79.908 254.178 79.724C253.963 79.54 253.794 79.2333 253.672 78.804L250.268 66.913C250.114 66.3763 249.969 65.8473 249.831 65.326C249.693 64.8047 249.57 64.2833 249.463 63.762C249.355 64.2987 249.233 64.8353 249.095 65.372C248.972 65.8933 248.826 66.4223 248.658 66.959L245.208 78.804C244.978 79.6013 244.472 80 243.69 80H238.17L230.764 56.149ZM281.57 55.781C283.379 55.781 285.027 56.0647 286.515 56.632C288.002 57.1993 289.275 58.012 290.333 59.07C291.406 60.128 292.234 61.416 292.817 62.934C293.415 64.4367 293.714 66.131 293.714 68.017C293.714 69.9183 293.415 71.6357 292.817 73.169C292.234 74.687 291.406 75.9827 290.333 77.056C289.275 78.114 288.002 78.9343 286.515 79.517C285.027 80.0843 283.379 80.368 281.57 80.368C279.745 80.368 278.081 80.0843 276.579 79.517C275.091 78.9343 273.803 78.114 272.715 77.056C271.641 75.9827 270.806 74.687 270.208 73.169C269.625 71.6357 269.334 69.9183 269.334 68.017C269.334 66.131 269.625 64.4367 270.208 62.934C270.806 61.416 271.641 60.128 272.715 59.07C273.803 58.012 275.091 57.1993 276.579 56.632C278.081 56.0647 279.745 55.781 281.57 55.781ZM281.57 75.078C283.21 75.078 284.414 74.503 285.181 73.353C285.963 72.1877 286.354 70.4243 286.354 68.063C286.354 65.7017 285.963 63.946 285.181 62.796C284.414 61.646 283.21 61.071 281.57 61.071C279.883 61.071 278.649 61.646 277.867 62.796C277.085 63.946 276.694 65.7017 276.694 68.063C276.694 70.4243 277.085 72.1877 277.867 73.353C278.649 74.503 279.883 75.078 281.57 75.078ZM297.627 80V56.149H301.859C302.212 56.149 302.503 56.1797 302.733 56.241C302.979 56.3023 303.178 56.402 303.331 56.54C303.5 56.6627 303.623 56.8313 303.699 57.046C303.791 57.2607 303.868 57.5213 303.929 57.828L304.32 60.059C305.194 58.7097 306.176 57.644 307.264 56.862C308.353 56.08 309.541 55.689 310.829 55.689C311.918 55.689 312.792 55.9497 313.451 56.471L312.531 61.715C312.47 62.037 312.347 62.267 312.163 62.405C311.979 62.5277 311.734 62.589 311.427 62.589C311.167 62.589 310.86 62.5583 310.507 62.497C310.155 62.4203 309.71 62.382 309.173 62.382C307.303 62.382 305.831 63.3787 304.757 65.372V80H297.627ZM323.759 45.569V64.866H324.817C325.262 64.866 325.599 64.8047 325.829 64.682C326.074 64.5593 326.304 64.337 326.519 64.015L331.027 57.299C331.288 56.9003 331.594 56.609 331.947 56.425C332.315 56.241 332.775 56.149 333.327 56.149H339.859L333.695 64.636C333.404 65.0347 333.082 65.3873 332.729 65.694C332.392 66.0007 332.024 66.2767 331.625 66.522C332.315 67.0433 332.913 67.7333 333.419 68.592L340.135 80H333.695C333.158 80 332.691 79.9157 332.292 79.747C331.909 79.563 331.594 79.2487 331.349 78.804L326.841 70.363C326.626 69.9797 326.404 69.7343 326.174 69.627C325.944 69.5043 325.599 69.443 325.139 69.443H323.759V80H316.629V45.569H323.759ZM357.715 61.37C357.531 61.6613 357.332 61.8683 357.117 61.991C356.918 62.1137 356.657 62.175 356.335 62.175C355.998 62.175 355.66 62.106 355.323 61.968C354.986 61.8147 354.618 61.6537 354.219 61.485C353.836 61.3163 353.399 61.163 352.908 61.025C352.417 60.8717 351.858 60.795 351.229 60.795C350.324 60.795 349.627 60.9713 349.136 61.324C348.661 61.6613 348.423 62.1367 348.423 62.75C348.423 63.1947 348.576 63.5627 348.883 63.854C349.205 64.1453 349.627 64.406 350.148 64.636C350.669 64.8507 351.26 65.0577 351.919 65.257C352.578 65.4563 353.253 65.6787 353.943 65.924C354.633 66.1693 355.308 66.4607 355.967 66.798C356.626 67.12 357.217 67.5263 357.738 68.017C358.259 68.4923 358.673 69.075 358.98 69.765C359.302 70.455 359.463 71.283 359.463 72.249C359.463 73.4297 359.248 74.5183 358.819 75.515C358.39 76.5117 357.746 77.3703 356.887 78.091C356.044 78.8117 354.993 79.3713 353.736 79.77C352.494 80.1687 351.06 80.368 349.435 80.368C348.622 80.368 347.81 80.2913 346.997 80.138C346.184 79.9847 345.395 79.7777 344.628 79.517C343.877 79.2563 343.179 78.9497 342.535 78.597C341.891 78.229 341.339 77.838 340.879 77.424L342.535 74.802C342.734 74.4953 342.972 74.2577 343.248 74.089C343.524 73.905 343.884 73.813 344.329 73.813C344.743 73.813 345.111 73.905 345.433 74.089C345.77 74.273 346.131 74.4723 346.514 74.687C346.897 74.9017 347.342 75.101 347.848 75.285C348.369 75.469 349.021 75.561 349.803 75.561C350.355 75.561 350.823 75.5073 351.206 75.4C351.589 75.2773 351.896 75.1163 352.126 74.917C352.356 74.7177 352.525 74.4953 352.632 74.25C352.739 74.0047 352.793 73.7517 352.793 73.491C352.793 73.0157 352.632 72.6247 352.31 72.318C351.988 72.0113 351.566 71.7507 351.045 71.536C350.524 71.306 349.926 71.099 349.251 70.915C348.592 70.7157 347.917 70.4933 347.227 70.248C346.537 70.0027 345.855 69.7113 345.18 69.374C344.521 69.0213 343.93 68.5843 343.409 68.063C342.888 67.5263 342.466 66.8747 342.144 66.108C341.822 65.3413 341.661 64.4137 341.661 63.325C341.661 62.313 341.853 61.3547 342.236 60.45C342.635 59.53 343.225 58.725 344.007 58.035C344.789 57.345 345.77 56.8007 346.951 56.402C348.132 55.988 349.512 55.781 351.091 55.781C351.95 55.781 352.778 55.8577 353.575 56.011C354.388 56.1643 355.147 56.379 355.852 56.655C356.557 56.931 357.201 57.2607 357.784 57.644C358.367 58.012 358.88 58.4183 359.325 58.863L357.715 61.37ZM363.393 80V45.569H370.523V58.242C371.381 57.506 372.309 56.9157 373.306 56.471C374.318 56.011 375.521 55.781 376.917 55.781C378.22 55.781 379.37 56.011 380.367 56.471C381.379 56.9157 382.23 57.5443 382.92 58.357C383.61 59.1543 384.131 60.1127 384.484 61.232C384.836 62.336 385.013 63.5397 385.013 64.843V80H377.883V64.843C377.883 63.6777 377.614 62.773 377.078 62.129C376.541 61.4697 375.751 61.14 374.709 61.14C373.927 61.14 373.191 61.3087 372.501 61.646C371.811 61.9833 371.151 62.4357 370.523 63.003V80H363.393ZM400.702 55.781C402.512 55.781 404.16 56.0647 405.647 56.632C407.135 57.1993 408.407 58.012 409.465 59.07C410.539 60.128 411.367 61.416 411.949 62.934C412.547 64.4367 412.846 66.131 412.846 68.017C412.846 69.9183 412.547 71.6357 411.949 73.169C411.367 74.687 410.539 75.9827 409.465 77.056C408.407 78.114 407.135 78.9343 405.647 79.517C404.16 80.0843 402.512 80.368 400.702 80.368C398.878 80.368 397.214 80.0843 395.711 79.517C394.224 78.9343 392.936 78.114 391.847 77.056C390.774 75.9827 389.938 74.687 389.34 73.169C388.758 71.6357 388.466 69.9183 388.466 68.017C388.466 66.131 388.758 64.4367 389.34 62.934C389.938 61.416 390.774 60.128 391.847 59.07C392.936 58.012 394.224 57.1993 395.711 56.632C397.214 56.0647 398.878 55.781 400.702 55.781ZM400.702 75.078C402.343 75.078 403.547 74.503 404.313 73.353C405.095 72.1877 405.486 70.4243 405.486 68.063C405.486 65.7017 405.095 63.946 404.313 62.796C403.547 61.646 402.343 61.071 400.702 61.071C399.016 61.071 397.781 61.646 396.999 62.796C396.217 63.946 395.826 65.7017 395.826 68.063C395.826 70.4243 396.217 72.1877 396.999 73.353C397.781 74.503 399.016 75.078 400.702 75.078ZM416.76 87.567V56.149H421.176C421.621 56.149 421.989 56.2487 422.28 56.448C422.587 56.6473 422.801 56.9463 422.924 57.345L423.453 59.093C423.913 58.587 424.404 58.127 424.925 57.713C425.462 57.299 426.029 56.9463 426.627 56.655C427.24 56.3483 427.892 56.1107 428.582 55.942C429.287 55.7733 430.054 55.689 430.882 55.689C432.124 55.689 433.274 55.965 434.332 56.517C435.39 57.069 436.302 57.8663 437.069 58.909C437.836 59.9517 438.434 61.232 438.863 62.75C439.308 64.2527 439.53 65.9623 439.53 67.879C439.53 69.673 439.277 71.329 438.771 72.847C438.28 74.365 437.583 75.6837 436.678 76.803C435.789 77.9223 434.715 78.7963 433.458 79.425C432.216 80.0537 430.836 80.368 429.318 80.368C428.076 80.368 427.033 80.1917 426.19 79.839C425.347 79.4863 424.58 79.011 423.89 78.413V87.567H416.76ZM428.398 61.14C427.877 61.14 427.401 61.1937 426.972 61.301C426.558 61.393 426.167 61.531 425.799 61.715C425.446 61.899 425.117 62.1367 424.81 62.428C424.503 62.704 424.197 63.026 423.89 63.394V73.514C424.427 74.112 425.009 74.5337 425.638 74.779C426.267 75.009 426.926 75.124 427.616 75.124C428.275 75.124 428.881 74.9937 429.433 74.733C429.985 74.4723 430.46 74.0583 430.859 73.491C431.273 72.9083 431.595 72.157 431.825 71.237C432.055 70.317 432.17 69.1977 432.17 67.879C432.17 66.6217 432.078 65.5637 431.894 64.705C431.71 63.8463 431.449 63.1563 431.112 62.635C430.79 62.0983 430.399 61.715 429.939 61.485C429.479 61.255 428.965 61.14 428.398 61.14ZM457.936 61.37C457.752 61.6613 457.552 61.8683 457.338 61.991C457.138 62.1137 456.878 62.175 456.556 62.175C456.218 62.175 455.881 62.106 455.544 61.968C455.206 61.8147 454.838 61.6537 454.44 61.485C454.056 61.3163 453.619 61.163 453.129 61.025C452.638 60.8717 452.078 60.795 451.45 60.795C450.545 60.795 449.847 60.9713 449.357 61.324C448.881 61.6613 448.644 62.1367 448.644 62.75C448.644 63.1947 448.797 63.5627 449.104 63.854C449.426 64.1453 449.847 64.406 450.369 64.636C450.89 64.8507 451.48 65.0577 452.14 65.257C452.799 65.4563 453.474 65.6787 454.164 65.924C454.854 66.1693 455.528 66.4607 456.188 66.798C456.847 67.12 457.437 67.5263 457.959 68.017C458.48 68.4923 458.894 69.075 459.201 69.765C459.523 70.455 459.684 71.283 459.684 72.249C459.684 73.4297 459.469 74.5183 459.04 75.515C458.61 76.5117 457.966 77.3703 457.108 78.091C456.264 78.8117 455.214 79.3713 453.957 79.77C452.715 80.1687 451.281 80.368 449.656 80.368C448.843 80.368 448.03 80.2913 447.218 80.138C446.405 79.9847 445.615 79.7777 444.849 79.517C444.097 79.2563 443.4 78.9497 442.756 78.597C442.112 78.229 441.56 77.838 441.1 77.424L442.756 74.802C442.955 74.4953 443.193 74.2577 443.469 74.089C443.745 73.905 444.105 73.813 444.55 73.813C444.964 73.813 445.332 73.905 445.654 74.089C445.991 74.273 446.351 74.4723 446.735 74.687C447.118 74.9017 447.563 75.101 448.069 75.285C448.59 75.469 449.242 75.561 450.024 75.561C450.576 75.561 451.043 75.5073 451.427 75.4C451.81 75.2773 452.117 75.1163 452.347 74.917C452.577 74.7177 452.745 74.4953 452.853 74.25C452.96 74.0047 453.014 73.7517 453.014 73.491C453.014 73.0157 452.853 72.6247 452.531 72.318C452.209 72.0113 451.787 71.7507 451.266 71.536C450.744 71.306 450.146 71.099 449.472 70.915C448.812 70.7157 448.138 70.4933 447.448 70.248C446.758 70.0027 446.075 69.7113 445.401 69.374C444.741 69.0213 444.151 68.5843 443.63 68.063C443.108 67.5263 442.687 66.8747 442.365 66.108C442.043 65.3413 441.882 64.4137 441.882 63.325C441.882 62.313 442.073 61.3547 442.457 60.45C442.855 59.53 443.446 58.725 444.228 58.035C445.01 57.345 445.991 56.8007 447.172 56.402C448.352 55.988 449.732 55.781 451.312 55.781C452.17 55.781 452.998 55.8577 453.796 56.011C454.608 56.1643 455.367 56.379 456.073 56.655C456.778 56.931 457.422 57.2607 458.005 57.644C458.587 58.012 459.101 58.4183 459.546 58.863L457.936 61.37Z" fill="#1E212C"/>
</g>
<defs>
<clipPath id="clip0_2234_10599">
<rect width="461" height="92" fill="white"/>
</clipPath>
</defs>
</svg>
